VelekaWorld-SemiBoldItalic.ufo
<glyph name="exclam" format="2">
  <advance width="365"/>
  <unicode hex="0021"/>
  <outline>
    <contour>
      <point x="325" y="621.333" type="curve"/>
      <point x="325" y="621.333"/>
      <point x="233" y="311.333"/>
      <point x="195.667" y="195" type="curve"/>
      <point x="138.667" y="195" type="line"/>
      <point x="171" y="595.667" type="line"/>
      <point x="173.333" y="650"/>
      <point x="211.333" y="685.667" name="n07"/>
      <point x="263" y="685.667" type="curve" smooth="yes"/>
      <point x="307" y="685.667"/>
      <point x="325" y="665.333"/>
    </contour>
    <contour>
      <point x="225.333" y="59.6667" type="curve" smooth="yes" name="n11"/>
      <point x="225.333" y="19.6667"/>
      <point x="191.333" y="-11"/>
      <point x="148.667" y="-11" type="curve" smooth="yes" name="n14"/>
      <point x="110.333" y="-11"/>
      <point x="77.3333" y="21"/>
      <point x="77.3333" y="62.3333" type="curve" smooth="yes" name="n17"/>
      <point x="77.3333" y="103.333"/>
      <point x="108.667" y="135.667"/>
      <point x="149.333" y="135.667" type="curve" smooth="yes" name="n20"/>
      <point x="193" y="135.667"/>
      <point x="225.333" y="101.667"/>
    </contour>
  </outline>
</glyph>
<glyph name="percent" format="2">
  <advance width="886"/>
  <unicode hex="0025"/>
  <outline>
    <contour>
      <point x="847.667" y="262.333" type="curve" smooth="yes" name="n00"/>
      <point x="847.667" y="134.667"/>
      <point x="778.667" y="-16"/>
      <point x="633.333" y="-16" type="curve" smooth="yes" name="n03"/>
      <point x="544.333" y="-16"/>
      <point x="503.333" y="38.3333"/>
      <point x="503.333" y="124" type="curve" smooth="yes" name="n06"/>
      <point x="503.333" y="251"/>
      <point x="571" y="402.667"/>
      <point x="717" y="402.667" type="curve" smooth="yes" name="n09"/>
      <point x="806" y="402.667"/>
      <point x="847.667" y="348"/>
    </contour>
    <contour>
      <point x="768.333" y="671" type="line" name="n12"/>
      <point x="216" y="0" type="line" name="n13"/>
      <point x="147" y="0" type="line" name="hr01"/>
      <point x="699" y="671" type="line"/>
    </contour>
    <contour>
      <point x="412.333" y="546.667" type="curve" smooth="yes" name="n16"/>
      <point x="412.333" y="419.667"/>
      <point x="344" y="267.667"/>
      <point x="198.667" y="267.667" type="curve" smooth="yes" name="n19"/>
      <point x="109" y="267.667"/>
      <point x="67" y="323.333"/>
      <point x="67" y="409" type="curve" smooth="yes" name="n22"/>
      <point x="67" y="536"/>
      <point x="136.333" y="687"/>
      <point x="281.667" y="687" type="curve" smooth="yes" name="n25"/>
      <point x="370.667" y="687"/>
      <point x="412.333" y="632.333"/>
    </contour>
    <contour>
      <point x="753.333" y="284.667" type="curve" smooth="yes" name="n28"/>
      <point x="753.333" y="315"/>
      <point x="747.333" y="358.667"/>
      <point x="707.667" y="358.667" type="curve" smooth="yes" name="n31"/>
      <point x="623.667" y="358.667"/>
      <point x="593.333" y="171"/>
      <point x="593.333" y="108.667" type="curve" smooth="yes" name="n34"/>
      <point x="593.333" y="76"/>
      <point x="600" y="27.6667"/>
      <point x="642" y="27.6667" type="curve" smooth="yes" name="n37"/>
      <point x="723.667" y="27.6667"/>
      <point x="753.333" y="224.667"/>
    </contour>
    <contour>
      <point x="318.333" y="568.333" type="curve" smooth="yes" name="n40"/>
      <point x="318.333" y="599.333"/>
      <point x="312.667" y="643"/>
      <point x="273" y="643" type="curve" smooth="yes" name="n43"/>
      <point x="188" y="643"/>
      <point x="157.667" y="456"/>
      <point x="157.667" y="394.333" type="curve" smooth="yes" name="n46"/>
      <point x="157.667" y="361"/>
      <point x="164.667" y="311.667"/>
      <point x="207.333" y="311.667" type="curve" smooth="yes" name="n49"/>
      <point x="288.333" y="311.667"/>
      <point x="318.333" y="509"/>
    </contour>
  </outline>
</glyph>
<glyph name="parenleft" format="2">
  <advance width="421"/>
  <unicode hex="0028"/>
  <outline>
    <contour>
      <point x="470.333" y="717.333" type="curve"/>
      <point x="460" y="666" type="line"/>
      <point x="251.667" y="638.667"/>
      <point x="184.333" y="272.667"/>
      <point x="184.333" y="104.667" type="curve" smooth="yes" name="n04"/>
      <point x="184.333" y="-2.66667"/>
      <point x="220" y="-76.6667"/>
      <point x="312.333" y="-91" type="curve"/>
      <point x="302" y="-142.333" type="line"/>
      <point x="145" y="-137"/>
      <point x="71" y="-19.3333"/>
      <point x="71" y="137" type="curve" smooth="yes" name="n11"/>
      <point x="71" y="375.333"/>
      <point x="192.667" y="704"/>
    </contour>
  </outline>
</glyph>
<glyph name="parenright" format="2">
  <advance width="421"/>
  <unicode hex="0029"/>
  <outline>
    <contour>
      <point x="351" y="440.667" type="curve" smooth="yes" name="n00"/>
      <point x="351" y="172.333"/>
      <point x="214.333" y="-128.333"/>
      <point x="-48" y="-142.667" type="curve"/>
      <point x="-38.3333" y="-90.6667" type="line"/>
      <point x="173.667" y="-63"/>
      <point x="237.667" y="313.333"/>
      <point x="237.667" y="472.667" type="curve" smooth="yes" name="n07"/>
      <point x="237.667" y="550.667"/>
      <point x="217.333" y="650.667"/>
      <point x="110" y="666" type="curve"/>
      <point x="120.333" y="717.333" type="line"/>
      <point x="303" y="706"/>
      <point x="351" y="561"/>
    </contour>
  </outline>
</glyph>
<glyph name="asterisk" format="2">
  <advance width="500"/>
  <unicode hex="002A"/>
  <outline>
    <contour>
      <point x="510" y="570.667" type="line"/>
      <point x="465.667" y="508.333" type="line"/>
      <point x="336.667" y="506.667" type="line"/>
      <point x="331.333" y="521.333" type="line"/>
      <point x="437.667" y="597" type="line"/>
    </contour>
    <contour>
      <point x="360.333" y="657" type="line"/>
      <point x="320.667" y="532" type="line"/>
      <point x="305.667" y="532" type="line"/>
      <point x="266.667" y="657" type="line"/>
      <point x="313" y="717.333" type="line"/>
    </contour>
    <contour>
      <point x="437" y="389.667" type="line"/>
      <point x="412.333" y="346.333" type="line"/>
      <point x="345.667" y="399.667" type="line"/>
      <point x="323.333" y="485.333" type="line"/>
      <point x="365.667" y="466.333" type="line"/>
    </contour>
    <contour>
      <point x="295" y="520.667" type="line"/>
      <point x="290.667" y="506.667" type="line"/>
      <point x="160.667" y="508.333" type="line"/>
      <point x="117" y="570.667" type="line"/>
      <point x="187.667" y="597" type="line"/>
    </contour>
    <contour>
      <point x="308" y="482.333" type="line"/>
      <point x="266" y="359.667" type="line"/>
      <point x="191.333" y="337.667" type="line"/>
      <point x="190" y="414.333" type="line"/>
      <point x="295" y="493.333" type="line"/>
    </contour>
  </outline>
</glyph>
<glyph name="zero" format="2">
  <advance width="584"/>
  <unicode hex="0030"/>
  <outline>
    <contour>
      <point x="579" y="460.667" type="curve" smooth="yes" name="n00"/>
      <point x="579" y="232"/>
      <point x="457.667" y="-16"/>
      <point x="242" y="-16" type="curve" smooth="yes" name="n03"/>
      <point x="100" y="-16"/>
      <point x="34" y="71.3333"/>
      <point x="34" y="209.333" type="curve" smooth="yes" name="n06"/>
      <point x="34" y="415"/>
      <point x="138.333" y="687"/>
      <point x="373" y="687" type="curve" smooth="yes" name="n09"/>
      <point x="523" y="687"/>
      <point x="579" y="583.667"/>
    </contour>
    <contour>
      <point x="443" y="478.333" type="curve" smooth="yes" name="n12"/>
      <point x="443" y="589.333"/>
      <point x="397" y="629.333"/>
      <point x="363" y="629.333" type="curve" smooth="yes" name="n15"/>
      <point x="257.667" y="629.333"/>
      <point x="171" y="382.333"/>
      <point x="171" y="193.333" type="curve" smooth="yes" name="n18"/>
      <point x="171" y="55"/>
      <point x="233" y="42.6667"/>
      <point x="252" y="42.6667" type="curve" smooth="yes" name="n21"/>
      <point x="351.333" y="42.6667"/>
      <point x="443" y="287.667"/>
    </contour>
  </outline>
</glyph>
<glyph name="two" format="2">
  <advance width="584"/>
  <unicode hex="0032"/>
  <outline>
    <contour>
      <point x="563" y="536" type="curve" smooth="yes" name="n00"/>
      <point x="563" y="445"/>
      <point x="495.333" y="356.333"/>
      <point x="409.333" y="280.333" type="curve" smooth="yes"/>
      <point x="333.667" y="213.667"/>
      <point x="240.333" y="152.333"/>
      <point x="150" y="89.6667" type="curve"/>
      <point x="413.333" y="89.6667" type="line" name="n07"/>
      <point x="447.333" y="173.333" type="line" name="n08"/>
      <point x="518.667" y="173.333" type="line"/>
      <point x="486.333" y="0" type="line" name="n10"/>
      <point x="-21" y="0" type="line"/>
      <point x="-8" y="69" type="line"/>
      <point x="281.667" y="273"/>
      <point x="420" y="380"/>
      <point x="420" y="524" type="curve" smooth="yes" name="n15"/>
      <point x="420" y="601.333"/>
      <point x="371.667" y="626"/>
      <point x="332" y="626" type="curve" smooth="yes" name="n18"/>
      <point x="300.667" y="626"/>
      <point x="270" y="612"/>
      <point x="256.333" y="605.667" type="curve"/>
      <point x="236" y="501" type="line"/>
      <point x="225" y="494"/>
      <point x="212.333" y="477"/>
      <point x="172" y="477" type="curve" smooth="yes"/>
      <point x="134" y="477"/>
      <point x="103" y="499"/>
      <point x="103" y="533.667" type="curve" smooth="yes"/>
      <point x="103" y="619.667"/>
      <point x="214" y="687"/>
      <point x="364" y="687" type="curve" smooth="yes" name="n31"/>
      <point x="484.667" y="687"/>
      <point x="563" y="640.333"/>
    </contour>
  </outline>
</glyph>
<glyph name="three" format="2">
  <advance width="584"/>
  <unicode hex="0033"/>
  <outline>
    <contour>
      <point x="561.667" y="543" type="curve" smooth="yes" name="n00"/>
      <point x="561.667" y="474.667"/>
      <point x="507.333" y="399"/>
      <point x="383" y="358.667" type="curve"/>
      <point x="470" y="343"/>
      <point x="520.667" y="304" name="hr01"/>
      <point x="520.667" y="229.667" type="curve" smooth="yes" name="n06"/>
      <point x="520.667" y="106"/>
      <point x="394" y="-16"/>
      <point x="205" y="-16" type="curve" smooth="yes" name="n09"/>
      <point x="63.6667" y="-16"/>
      <point x="10" y="51.3333"/>
      <point x="10" y="96.6667" type="curve" smooth="yes"/>
      <point x="10" y="116.333"/>
      <point x="32.3333" y="164" name="hr02"/>
      <point x="82.6667" y="164" type="curve" smooth="yes" name="n15"/>
      <point x="109" y="164"/>
      <point x="124" y="151.333"/>
      <point x="136.667" y="145.667" type="curve"/>
      <point x="152.333" y="61.3333" type="line"/>
      <point x="160.667" y="56"/>
      <point x="190.333" y="41.6667" name="hr03"/>
      <point x="216.667" y="41.6667" type="curve" smooth="yes" name="n22"/>
      <point x="295.667" y="41.6667"/>
      <point x="381" y="114"/>
      <point x="381" y="215.333" type="curve" smooth="yes" name="n25"/>
      <point x="381" y="309.333"/>
      <point x="303" y="318.667"/>
      <point x="283.667" y="318.667" type="curve" smooth="yes" name="n28"/>
      <point x="262.667" y="318.667"/>
      <point x="244" y="315.667"/>
      <point x="198.333" y="308.333" type="curve"/>
      <point x="208.667" y="381" type="line" name="n32"/>
      <point x="332.667" y="375"/>
      <point x="420" y="436" name="hr04"/>
      <point x="420" y="530" type="curve" smooth="yes" name="n35"/>
      <point x="420" y="609.333"/>
      <point x="355.333" y="629.333"/>
      <point x="333.667" y="629.333" type="curve" smooth="yes" name="n38"/>
      <point x="295.333" y="629.333"/>
      <point x="267" y="611"/>
      <point x="255.333" y="602.333" type="curve"/>
      <point x="239.667" y="507.333" type="line"/>
      <point x="227.333" y="502.333"/>
      <point x="196" y="489"/>
      <point x="174.667" y="489" type="curve" smooth="yes"/>
      <point x="147" y="489"/>
      <point x="112" y="515"/>
      <point x="112" y="550.667" type="curve" smooth="yes"/>
      <point x="112" y="629.333"/>
      <point x="230.667" y="687"/>
      <point x="366.667" y="687" type="curve" smooth="yes" name="n51"/>
      <point x="498.333" y="687"/>
      <point x="561.667" y="632.333"/>
    </contour>
  </outline>
</glyph>
<glyph name="four" format="2">
  <advance width="584"/>
  <unicode hex="0034"/>
  <outline>
    <contour>
      <point x="550.667" y="275" type="line" name="n00"/>
      <point x="536.333" y="200" type="line" name="n01"/>
      <point x="443.333" y="200" type="line"/>
      <point x="399.333" y="-27" type="line" name="n03"/>
      <point x="277.333" y="-27" type="line"/>
      <point x="322.333" y="200" type="line"/>
      <point x="21" y="200" type="line"/>
      <point x="34" y="270.333" type="line"/>
      <point x="439.667" y="687" type="line" name="n08"/>
      <point x="539.667" y="687" type="line"/>
      <point x="459.667" y="275" type="line"/>
    </contour>
    <contour>
      <point x="382" y="498" type="line"/>
      <point x="165" y="275" type="line"/>
      <point x="337.667" y="275" type="line"/>
    </contour>
  </outline>
</glyph>
<glyph name="eight" format="2">
  <advance width="584"/>
  <unicode hex="0038"/>
  <outline>
    <contour>
      <point x="558" y="544" type="curve" smooth="yes" name="n00"/>
      <point x="558" y="440.667"/>
      <point x="490.333" y="393.333"/>
      <point x="410" y="356.333" type="curve"/>
      <point x="462.667" y="332.667"/>
      <point x="533" y="290.333" name="hr01"/>
      <point x="533" y="210.333" type="curve" smooth="yes" name="n06"/>
      <point x="533" y="90"/>
      <point x="415.333" y="-16"/>
      <point x="242" y="-16" type="curve" smooth="yes" name="n09"/>
      <point x="88.3333" y="-16"/>
      <point x="15" y="54.6667"/>
      <point x="15" y="150" type="curve" smooth="yes" name="n12"/>
      <point x="15" y="213.667"/>
      <point x="55.3333" y="297.333"/>
      <point x="182.667" y="354" type="curve"/>
      <point x="116" y="390.667"/>
      <point x="103" y="438" name="hr02"/>
      <point x="103" y="476.667" type="curve" smooth="yes" name="n18"/>
      <point x="103" y="583.333"/>
      <point x="192.667" y="687"/>
      <point x="361" y="687" type="curve" smooth="yes" name="n21"/>
      <point x="499.333" y="687"/>
      <point x="558" y="620.333"/>
    </contour>
    <contour>
      <point x="435" y="535" type="curve" smooth="yes" name="n24"/>
      <point x="435" y="592.667"/>
      <point x="409.333" y="632.333"/>
      <point x="352" y="632.333" type="curve" smooth="yes" name="n27"/>
      <point x="295" y="632.333"/>
      <point x="231" y="576"/>
      <point x="231" y="498.667" type="curve" smooth="yes" name="n30"/>
      <point x="231" y="448.333"/>
      <point x="274.333" y="416.333"/>
      <point x="343" y="385.333" type="curve"/>
      <point x="398.333" y="417.667"/>
      <point x="435" y="468" name="hr03"/>
    </contour>
    <contour>
      <point x="398" y="183.333" type="curve" smooth="yes" name="n36"/>
      <point x="398" y="240.667"/>
      <point x="324" y="282.667" name="hr05"/>
      <point x="244.333" y="319" type="curve"/>
      <point x="186" y="285.333"/>
      <point x="143" y="235.667"/>
      <point x="143" y="167.333" type="curve" smooth="yes" name="n42"/>
      <point x="143" y="100"/>
      <point x="179.667" y="44.6667"/>
      <point x="260" y="44.6667" type="curve" smooth="yes" name="n45"/>
      <point x="327.667" y="44.6667"/>
      <point x="398" y="110"/>
    </contour>
  </outline>
</glyph>
<glyph name="colon" format="2">
  <advance width="304"/>
  <unicode hex="003A"/>
  <outline>
    <contour>
      <point x="247.667" y="418.333" type="curve" smooth="yes" name="n00"/>
      <point x="247.667" y="375.333"/>
      <point x="212.667" y="340.667"/>
      <point x="169.667" y="340.667" type="curve" smooth="yes" name="n03"/>
      <point x="126.667" y="340.667"/>
      <point x="91.3333" y="375.333"/>
      <point x="91.3333" y="418.333" type="curve" smooth="yes" name="n06"/>
      <point x="91.3333" y="461.333"/>
      <point x="126.667" y="496.667"/>
      <point x="169.667" y="496.667" type="curve" smooth="yes" name="n09"/>
      <point x="212.667" y="496.667"/>
      <point x="247.667" y="461.333"/>
    </contour>
    <contour>
      <point x="178" y="65.6667" type="curve" smooth="yes" name="n12"/>
      <point x="178" y="22.6667" name="hr01"/>
      <point x="143" y="-12"/>
      <point x="100" y="-12" type="curve" smooth="yes" name="n15"/>
      <point x="57" y="-12"/>
      <point x="21.6667" y="22.6667"/>
      <point x="21.6667" y="65.6667" type="curve" smooth="yes" name="n18"/>
      <point x="21.6667" y="108.667"/>
      <point x="57" y="144"/>
      <point x="100" y="144" type="curve" smooth="yes" name="n21"/>
      <point x="143" y="144"/>
      <point x="178" y="108.667"/>
    </contour>
  </outline>
</glyph>
<glyph name="question" format="2">
  <advance width="518"/>
  <unicode hex="003F"/>
  <outline>
    <contour>
      <point x="496.333" y="537" type="curve" smooth="yes" name="n00"/>
      <point x="496.333" y="401.667"/>
      <point x="362" y="315.667"/>
      <point x="245" y="284.667" type="curve"/>
      <point x="226" y="188.333" type="line"/>
      <point x="158.333" y="188.333" type="line"/>
      <point x="184.667" y="326.667" type="line"/>
      <point x="277.667" y="349"/>
      <point x="366.667" y="427.667"/>
      <point x="366.667" y="531.667" type="curve" smooth="yes" name="n09"/>
      <point x="366.667" y="599"/>
      <point x="321.333" y="629.667"/>
      <point x="259.333" y="629.667" type="curve" name="n12"/>
      <point x="199.667" y="520" type="line" name="n13"/>
      <point x="196.916" y="518.667"/>
      <point x="177.083" y="515.333"/>
      <point x="175.333" y="515.333" type="curve"/>
      <point x="142" y="515.333"/>
      <point x="106.333" y="525"/>
      <point x="106.333" y="561.667" type="curve" smooth="yes"/>
      <point x="106.333" y="640"/>
      <point x="209.667" y="687"/>
      <point x="306" y="687" type="curve" smooth="yes" name="n22"/>
      <point x="409.333" y="687"/>
      <point x="496.333" y="639.333"/>
    </contour>
    <contour>
      <point x="249" y="58" type="curve" smooth="yes" name="n25"/>
      <point x="249" y="18.3333"/>
      <point x="216" y="-13.3333"/>
      <point x="173" y="-13.3333" type="curve" smooth="yes" name="n28"/>
      <point x="129.667" y="-13.3333"/>
      <point x="100" y="21.3333"/>
      <point x="100" y="60.3333" type="curve" smooth="yes" name="n31"/>
      <point x="100" y="100"/>
      <point x="130.333" y="134"/>
      <point x="173.667" y="134" type="curve" smooth="yes" name="n34"/>
      <point x="218.667" y="134"/>
      <point x="249" y="98.3333"/>
    </contour>
  </outline>
</glyph>
<glyph name="at" format="2">
  <advance width="936"/>
  <unicode hex="0040"/>
  <outline>
    <contour>
      <point x="876.667" y="369.667" type="curve" smooth="yes" name="n00"/>
      <point x="876.667" y="170"/>
      <point x="735" y="52"/>
      <point x="623" y="52" type="curve" smooth="yes" name="n03"/>
      <point x="564" y="52"/>
      <point x="543.667" y="83.3333"/>
      <point x="539.667" y="126.333" type="curve"/>
      <point x="495" y="85.6667"/>
      <point x="450" y="53"/>
      <point x="400.333" y="53" type="curve" smooth="yes"/>
      <point x="315.333" y="53"/>
      <point x="266" y="120.667"/>
      <point x="266" y="218" type="curve" smooth="yes" name="n12"/>
      <point x="266" y="368.333"/>
      <point x="385.333" y="490.667"/>
      <point x="524" y="490.667" type="curve" smooth="yes" name="n15"/>
      <point x="554.333" y="490.667"/>
      <point x="590.333" y="475"/>
      <point x="617.333" y="461.667" type="curve"/>
      <point x="632" y="486" type="line"/>
      <point x="707" y="486" type="line"/>
      <point x="701.333" y="468"/>
      <point x="637.333" y="189"/>
      <point x="637.333" y="189" type="curve"/>
      <point x="627.333" y="144.333"/>
      <point x="628.333" y="113.667"/>
      <point x="665" y="113.667" type="curve" smooth="yes" name="n26"/>
      <point x="711.333" y="113.667"/>
      <point x="809" y="208.333"/>
      <point x="809" y="368.667" type="curve" smooth="yes" name="n29"/>
      <point x="809" y="557.333"/>
      <point x="667" y="639.667"/>
      <point x="538" y="639.667" type="curve" smooth="yes" name="n32"/>
      <point x="322" y="639.667"/>
      <point x="157.333" y="478"/>
      <point x="157.333" y="254.333" type="curve" smooth="yes" name="n35"/>
      <point x="157.333" y="49.6667"/>
      <point x="289" y="-101.667"/>
      <point x="498" y="-101.667" type="curve" smooth="yes" name="n38"/>
      <point x="607" y="-101.667"/>
      <point x="691.333" y="-63.6667"/>
      <point x="768.333" y="-21" type="curve"/>
      <point x="787" y="-66.3333" type="line"/>
      <point x="697" y="-113.667"/>
      <point x="597.333" y="-155.667"/>
      <point x="474" y="-155.667" type="curve" smooth="yes" name="n45"/>
      <point x="247.333" y="-155.667"/>
      <point x="66.3333" y="-3.33333"/>
      <point x="66.3333" y="236.333" type="curve" smooth="yes" name="n48"/>
      <point x="66.3333" y="529.667"/>
      <point x="290.333" y="688.333"/>
      <point x="525.333" y="688.333" type="curve" smooth="yes" name="n51"/>
      <point x="736" y="688.333"/>
      <point x="876.667" y="573"/>
    </contour>
    <contour>
      <point x="578" y="389.667" type="line" smooth="yes"/>
      <point x="581.333" y="406"/>
      <point x="563" y="444"/>
      <point x="528.333" y="444" type="curve" smooth="yes" name="n57"/>
      <point x="442" y="444"/>
      <point x="376.667" y="350.333"/>
      <point x="376.667" y="227" type="curve" smooth="yes" name="n60"/>
      <point x="376.667" y="153"/>
      <point x="408" y="121.667"/>
      <point x="445.333" y="121.667" type="curve" smooth="yes" name="n63"/>
      <point x="489" y="121.667"/>
      <point x="517.667" y="159.333"/>
      <point x="538" y="184" type="curve"/>
    </contour>
  </outline>
</glyph>
<glyph name="H" format="2">
  <advance width="753"/>
  <unicode hex="0048"/>
  <outline>
    <contour>
      <point x="795" y="623.667" type="line"/>
      <point x="733" y="618" type="line" smooth="yes"/>
      <point x="721.001" y="616.989"/>
      <point x="715.333" y="611.667"/>
      <point x="713" y="601.333" type="curve"/>
      <point x="609" y="68.6667" type="line" smooth="yes"/>
      <point x="607" y="58"/>
      <point x="612.333" y="53.3333"/>
      <point x="627" y="52.3333" type="curve" name="n08"/>
      <point x="627" y="52.3333"/>
      <point x="661.071" y="49.7436"/>
      <point x="685" y="47.3333" type="curve"/>
      <point x="685" y="0" type="line" name="n12"/>
      <point x="396" y="0" type="line"/>
      <point x="396" y="47.3333" type="line"/>
      <point x="421.673" y="49.7506"/>
      <point x="457.333" y="52.3333"/>
      <point x="457.333" y="52.3333" type="curve"/>
      <point x="469.333" y="53.3333"/>
      <point x="477.901" y="57.3511"/>
      <point x="480" y="69.3333" type="curve" smooth="yes"/>
      <point x="529.333" y="322.667" type="line" name="n21"/>
      <point x="245.333" y="322.667" type="line"/>
      <point x="196" y="68.6667" type="line" smooth="yes"/>
      <point x="194" y="57.3333"/>
      <point x="197.333" y="53.3333"/>
      <point x="214.333" y="52.3333" type="curve"/>
      <point x="214.333" y="52.3333"/>
      <point x="248.907" y="49.7436"/>
      <point x="273" y="47.3333" type="curve"/>
      <point x="273" y="0" type="line"/>
      <point x="-15" y="0" type="line"/>
      <point x="-15" y="47.3333" type="line"/>
      <point x="9.75688" y="49.7506"/>
      <point x="44" y="52.3333"/>
      <point x="44" y="52.3333" type="curve"/>
      <point x="57.6667" y="53.3333"/>
      <point x="64.6667" y="57.3333"/>
      <point x="67" y="69.3333" type="curve" smooth="yes"/>
      <point x="171" y="602" type="line" smooth="yes"/>
      <point x="173" y="613.667"/>
      <point x="167" y="617.667"/>
      <point x="151.667" y="618.667" type="curve" name="n42"/>
      <point x="151.667" y="618.667"/>
      <point x="118.26" y="621.257"/>
      <point x="95" y="623.667" type="curve"/>
      <point x="95" y="671" type="line" name="n46"/>
      <point x="383" y="671" type="line"/>
      <point x="383" y="623.667" type="line"/>
      <point x="357.41" y="621.249"/>
      <point x="322" y="618.667"/>
      <point x="322" y="618.667" type="curve"/>
      <point x="309.333" y="617.667"/>
      <point x="302" y="613.667"/>
      <point x="300" y="601.333" type="curve"/>
      <point x="256.667" y="379.333" type="line"/>
      <point x="540.667" y="379.333" type="line" name="n56"/>
      <point x="584" y="602" type="line" smooth="yes"/>
      <point x="586.039" y="613.659"/>
      <point x="580" y="618.333"/>
      <point x="563.333" y="619.333" type="curve"/>
      <point x="563.333" y="619.333"/>
      <point x="528.76" y="621.278"/>
      <point x="507" y="623.667" type="curve"/>
      <point x="507" y="671" type="line"/>
      <point x="795" y="671" type="line"/>
    </contour>
  </outline>
</glyph>
<glyph name="J" format="2">
  <advance width="495"/>
  <unicode hex="004A"/>
  <outline>
    <contour>
      <point x="535" y="623.667" type="line"/>
      <point x="470.667" y="618" type="line"/>
      <point x="460.333" y="617.667"/>
      <point x="455.333" y="611.667"/>
      <point x="453" y="601.333" type="curve"/>
      <point x="389" y="256.667" type="line" smooth="yes"/>
      <point x="359.667" y="96.3333"/>
      <point x="314.333" y="-16"/>
      <point x="126" y="-16" type="curve" smooth="yes" name="n08"/>
      <point x="40.3333" y="-16"/>
      <point x="-7.33333" y="10.3333"/>
      <point x="-20" y="16.6667" type="curve"/>
      <point x="13.6667" y="189.667" type="line" name="hr01"/>
      <point x="90.3333" y="189.667" type="line" name="n13"/>
      <point x="90.3333" y="65" type="line" smooth="yes"/>
      <point x="90.3333" y="52"/>
      <point x="116" y="42.6667" name="hr02"/>
      <point x="133" y="42.6667" type="curve" smooth="yes" name="n17"/>
      <point x="200" y="42.6667"/>
      <point x="233.333" y="112.333"/>
      <point x="258" y="248.333" type="curve" smooth="yes"/>
      <point x="324" y="602" type="line" smooth="yes"/>
      <point x="326" y="613.667"/>
      <point x="320" y="617.667"/>
      <point x="305.667" y="618.667" type="curve"/>
      <point x="305.667" y="618.667"/>
      <point x="270.264" y="621.27"/>
      <point x="247" y="623.667" type="curve"/>
      <point x="247" y="671" type="line" name="n28"/>
      <point x="535" y="671" type="line"/>
    </contour>
  </outline>
</glyph>
<glyph name="P" format="2">
  <advance width="593"/>
  <unicode hex="0050"/>
  <outline>
    <contour>
      <point x="599" y="509.873" type="curve" smooth="yes" name="n00"/>
      <point x="599" y="352.288"/>
      <point x="472.433" y="248"/>
      <point x="278.308" y="248" type="curve" smooth="yes" name="n03"/>
      <point x="261.667" y="248"/>
      <point x="249.091" y="247.628"/>
      <point x="230.546" y="250.333" type="curve"/>
      <point x="194" y="68.6667" type="line"/>
      <point x="193.729" y="58.1723"/>
      <point x="199.199" y="53.4881"/>
      <point x="212.667" y="52.3333" type="curve" smooth="yes"/>
      <point x="271" y="47.3333" type="line"/>
      <point x="271" y="0" type="line" name="n12"/>
      <point x="-17" y="0" type="line"/>
      <point x="-17" y="47.3333" type="line"/>
      <point x="41" y="52.3333" type="line" smooth="yes"/>
      <point x="56.1595" y="53.6402"/>
      <point x="62.8355" y="58.3265"/>
      <point x="65" y="69.3333" type="curve" smooth="yes"/>
      <point x="170" y="603.277" type="line"/>
      <point x="170.275" y="613.453"/>
      <point x="163.97" y="618.805"/>
      <point x="150.667" y="619.953" type="curve" smooth="yes"/>
      <point x="94" y="624.836" type="line"/>
      <point x="94" y="671" type="line"/>
      <point x="357" y="671" type="line" smooth="yes" name="n25"/>
      <point x="515.404" y="671"/>
      <point x="599" y="615.324"/>
    </contour>
    <contour>
      <point x="467" y="490.717" type="curve" smooth="yes" name="n28"/>
      <point x="467" y="575.188"/>
      <point x="419.491" y="618.667"/>
      <point x="327.113" y="618.667" type="curve" smooth="yes" name="n31"/>
      <point x="319.902" y="618.667"/>
      <point x="309.639" y="618.667"/>
      <point x="302" y="618" type="curve"/>
      <point x="240.667" y="306.671" type="line"/>
      <point x="248.444" y="306.024"/>
      <point x="256.193" y="305.695"/>
      <point x="263.881" y="305.686" type="curve" smooth="yes" name="n38"/>
      <point x="384.346" y="305.519"/>
      <point x="467" y="380.9"/>
    </contour>
  </outline>
</glyph>
<glyph name="V" format="2">
  <advance width="671"/>
  <unicode hex="0056"/>
  <outline>
    <contour>
      <point x="744" y="623.667" type="line" name="n00"/>
      <point x="689.667" y="617.667" type="line"/>
      <point x="344.667" y="-16" type="line" name="n02"/>
      <point x="242.667" y="-16" type="line"/>
      <point x="145" y="604.333" type="line" smooth="yes"/>
      <point x="143" y="617.333"/>
      <point x="133.333" y="620.667"/>
      <point x="121.667" y="621" type="curve"/>
      <point x="121.667" y="621"/>
      <point x="97.0951" y="622.188"/>
      <point x="83" y="623" type="curve"/>
      <point x="83" y="671" type="line"/>
      <point x="338" y="671" type="line"/>
      <point x="338" y="623" type="line"/>
      <point x="320.653" y="622.178"/>
      <point x="293.667" y="621.667"/>
      <point x="293.667" y="621.667" type="curve"/>
      <point x="281.333" y="621.333"/>
      <point x="273" y="617.667"/>
      <point x="275" y="605" type="curve" smooth="yes"/>
      <point x="343.333" y="165.667" type="line"/>
      <point x="576" y="605" type="line"/>
      <point x="581.667" y="617"/>
      <point x="573.333" y="620.667"/>
      <point x="561.667" y="621.667" type="curve"/>
      <point x="561.667" y="621.667"/>
      <point x="531.092" y="622.18"/>
      <point x="512" y="623" type="curve"/>
      <point x="512" y="671" type="line"/>
      <point x="744" y="671" type="line" name="n29"/>
    </contour>
  </outline>
</glyph>
<glyph name="bracketleft" format="2">
  <advance width="439"/>
  <unicode hex="005B"/>
  <outline>
    <contour>
      <point x="489" y="692.333" type="line" name="n00"/>
      <point x="426.667" y="652.333" type="line"/>
      <point x="275" y="403.667" type="line"/>
      <point x="230" y="-77.6667" type="line" name="n03"/>
      <point x="332.667" y="-93.3333" type="line" name="n04"/>
      <point x="238.667" y="-132" type="line"/>
      <point x="110" y="148" type="line"/>
      <point x="303.667" y="708" type="line" name="n07"/>
    </contour>
  </outline>
</glyph>
<glyph name="grave" format="2">
  <advance width="413"/>
  <unicode hex="0060"/>
  <outline>
    <contour>
      <point x="334.333" y="551" type="line" name="n00"/>
      <point x="267" y="551" type="line"/>
      <point x="110.667" y="641.333" type="line" smooth="yes"/>
      <point x="96.6667" y="649.667"/>
      <point x="86.3333" y="668"/>
      <point x="86.3333" y="683.333" type="curve" smooth="yes"/>
      <point x="86.3333" y="706"/>
      <point x="99" y="733.333" name="n07"/>
      <point x="139.333" y="733.333" type="curve" smooth="yes"/>
      <point x="166.667" y="733.333"/>
      <point x="178.995" y="724.996"/>
      <point x="198.333" y="703.667" type="curve" smooth="yes"/>
    </contour>
  </outline>
</glyph>
<glyph name="a" format="2">
  <advance width="551"/>
  <unicode hex="0061"/>
  <anchor x="336.667" y="570" name="top"/>
  <outline>
    <contour>
      <point x="549.333" y="29" type="line"/>
      <point x="512.75" y="12.0323"/>
      <point x="451.667" y="-12"/>
      <point x="403.379" y="-12" type="curve" smooth="yes"/>
      <point x="360.667" y="-12"/>
      <point x="335.667" y="6.66667"/>
      <point x="325.667" y="40.6667" type="curve"/>
      <point x="292.333" y="16"/>
      <point x="243.667" y="-12"/>
      <point x="185.702" y="-12" type="curve" smooth="yes" name="n09"/>
      <point x="70.3333" y="-12"/>
      <point x="32" y="95.5506"/>
      <point x="32" y="171.075" type="curve" smooth="yes" name="n12"/>
      <point x="32" y="319.763"/>
      <point x="130.333" y="498"/>
      <point x="336" y="498" type="curve" smooth="yes" name="n15"/>
      <point x="367.667" y="498"/>
      <point x="400" y="485.793"/>
      <point x="421.333" y="471.517" type="curve"/>
      <point x="431" y="485.724" type="line"/>
      <point x="525" y="485.724" type="line"/>
      <point x="515.314" y="466.671"/>
      <point x="506.149" y="445.541"/>
      <point x="502" y="425.053" type="curve" smooth="yes"/>
      <point x="435.333" y="95.5471" type="line"/>
      <point x="435.333" y="63.9859"/>
      <point x="444.333" y="53.6667"/>
      <point x="467.018" y="53.6667" type="curve" smooth="yes"/>
      <point x="477.333" y="53.6667"/>
      <point x="533.026" y="67.0354"/>
      <point x="549.333" y="72.9472" type="curve"/>
    </contour>
    <contour>
      <point x="373.667" y="392.169" type="line"/>
      <point x="374.147" y="398.8"/>
      <point x="362" y="442"/>
      <point x="350.667" y="442" type="curve" smooth="yes" name="n34"/>
      <point x="214.333" y="442"/>
      <point x="159" y="287.531"/>
      <point x="159" y="176.181" type="curve" smooth="yes" name="n37"/>
      <point x="159" y="121.452"/>
      <point x="165.01" y="60"/>
      <point x="221.207" y="60" type="curve" smooth="yes" name="n40"/>
      <point x="267.667" y="60"/>
      <point x="305.795" y="101.998"/>
      <point x="320" y="119.129" type="curve"/>
    </contour>
  </outline>
</glyph>
<glyph name="h" format="2">
  <advance width="550"/>
  <unicode hex="0068"/>
  <outline>
    <contour>
      <point x="549.333" y="27" type="line"/>
      <point x="510.333" y="9"/>
      <point x="451.333" y="-12" name="n02"/>
      <point x="402" y="-12" type="curve" smooth="yes"/>
      <point x="362.667" y="-12"/>
      <point x="304.667" y="3.66667"/>
      <point x="315.667" y="56.3333" type="curve" smooth="yes"/>
      <point x="376" y="348.667" type="line" smooth="yes"/>
      <point x="386.333" y="398.333"/>
      <point x="355.667" y="425.333"/>
      <point x="335" y="425.333" type="curve" smooth="yes" name="n10"/>
      <point x="304.333" y="425.333"/>
      <point x="251.667" y="393.333"/>
      <point x="209.667" y="350" type="curve"/>
      <point x="136.667" y="0" type="line" name="n14"/>
      <point x="17.3333" y="0" type="line"/>
      <point x="155.333" y="663.333" type="line"/>
      <point x="67" y="671.667" type="line"/>
      <point x="67" y="705.667" type="line"/>
      <point x="231.667" y="737" type="line" name="n19"/>
      <point x="291" y="737" type="line"/>
      <point x="228.667" y="440.667" type="line"/>
      <point x="269" y="472.333"/>
      <point x="328.333" y="498"/>
      <point x="390" y="498" type="curve" smooth="yes" name="n24"/>
      <point x="481" y="498"/>
      <point x="516" y="445"/>
      <point x="498.333" y="359" type="curve" smooth="yes"/>
      <point x="442.667" y="92.6667" type="line" smooth="yes"/>
      <point x="435.333" y="58"/>
      <point x="460.667" y="47"/>
      <point x="472" y="47" type="curve" smooth="yes"/>
      <point x="497.333" y="47"/>
      <point x="520.667" y="58.3333"/>
      <point x="548.333" y="72" type="curve"/>
    </contour>
  </outline>
</glyph>
<glyph name="l" format="2">
  <advance width="292"/>
  <unicode hex="006C"/>
  <outline>
    <contour>
      <point x="290.333" y="28" type="line"/>
      <point x="253" y="9.33333"/>
      <point x="187.667" y="-12"/>
      <point x="137.333" y="-12" type="curve" smooth="yes" name="n03"/>
      <point x="73" y="-12"/>
      <point x="39" y="18"/>
      <point x="39" y="63" type="curve" smooth="yes"/>
      <point x="39" y="73.6667"/>
      <point x="40" y="85.6667"/>
      <point x="42.6667" y="98.6667" type="curve" smooth="yes"/>
      <point x="152" y="663.333" type="line"/>
      <point x="63.6667" y="671.667" type="line"/>
      <point x="63.6667" y="705.667" type="line"/>
      <point x="228.333" y="737" type="line" name="n13"/>
      <point x="285.333" y="737" type="line"/>
      <point x="162.667" y="101" type="line" smooth="yes"/>
      <point x="158.333" y="76.6667"/>
      <point x="169.333" y="50"/>
      <point x="195.333" y="50" type="curve" smooth="yes" name="n18"/>
      <point x="212.333" y="50"/>
      <point x="255.333" y="61.6667"/>
      <point x="290.333" y="76.6667" type="curve"/>
    </contour>
  </outline>
</glyph>
<glyph name="o" format="2">
  <advance width="537"/>
  <unicode hex="006F"/>
  <anchor x="316.667" y="570" name="top"/>
  <outline>
    <contour>
      <point x="506.333" y="299.664" type="curve" smooth="yes" name="n00"/>
      <point x="506.333" y="143.333"/>
      <point x="397" y="-12"/>
      <point x="221.548" y="-12" type="curve" smooth="yes" name="n03"/>
      <point x="96.3333" y="-12"/>
      <point x="31.6667" y="67"/>
      <point x="31.6667" y="186.408" type="curve" smooth="yes" name="n06"/>
      <point x="31.6667" y="338.333"/>
      <point x="136.333" y="498"/>
      <point x="313.634" y="498" type="curve" smooth="yes" name="n09"/>
      <point x="426" y="498"/>
      <point x="506.333" y="433.667"/>
    </contour>
    <contour>
      <point x="376.667" y="304.547" type="curve" smooth="yes" name="n12"/>
      <point x="376.667" y="403"/>
      <point x="334.667" y="448.333"/>
      <point x="296.276" y="448.333" type="curve" smooth="yes" name="n15"/>
      <point x="231.333" y="448.333"/>
      <point x="160.667" y="317.333"/>
      <point x="160.667" y="185.548" type="curve" smooth="yes" name="n18"/>
      <point x="160.667" y="82.3333"/>
      <point x="204.333" y="39.6667"/>
      <point x="243.283" y="39.6667" type="curve" smooth="yes" name="n21"/>
      <point x="314.667" y="39.6667"/>
      <point x="376.667" y="184.667"/>
    </contour>
  </outline>
</glyph>
<glyph name="s" format="2">
  <advance width="400"/>
  <unicode hex="0073"/>
  <outline>
    <contour>
      <point x="379" y="424.57" type="curve" smooth="yes"/>
      <point x="379" y="384.144"/>
      <point x="354.449" y="365.19"/>
      <point x="299" y="361.333" type="curve"/>
      <point x="250" y="439.667" type="line"/>
      <point x="243.499" y="443.083"/>
      <point x="235.11" y="445"/>
      <point x="226.305" y="445" type="curve" smooth="yes" name="n07"/>
      <point x="195.206" y="445"/>
      <point x="176.667" y="421.716"/>
      <point x="176.667" y="382.808" type="curve" smooth="yes" name="n10"/>
      <point x="176.667" y="351.431"/>
      <point x="202.536" y="319.058"/>
      <point x="259.696" y="274.301" type="curve" smooth="yes"/>
      <point x="327.811" y="220.983"/>
      <point x="353" y="184.067"/>
      <point x="353" y="139.219" type="curve" smooth="yes" name="n16"/>
      <point x="353" y="54.0078"/>
      <point x="262.198" y="-12"/>
      <point x="143.663" y="-12" type="curve" smooth="yes" name="n19"/>
      <point x="53.3926" y="-12"/>
      <point x="-7.33333" y="25.4017"/>
      <point x="-7.33333" y="80.9903" type="curve" smooth="yes"/>
      <point x="-7.33333" y="117.216"/>
      <point x="19.5118" y="145.333" name="hr01"/>
      <point x="53.7362" y="145.333" type="curve" smooth="yes" name="n25"/>
      <point x="73.3219" y="145.333"/>
      <point x="94.6903" y="136.326"/>
      <point x="108.667" y="122.333" type="curve"/>
      <point x="90.3333" y="66.6667" type="line"/>
      <point x="103.727" y="47.5329"/>
      <point x="135.647" y="34" name="hr02"/>
      <point x="164.299" y="34" type="curve" smooth="yes" name="n32"/>
      <point x="206.358" y="34"/>
      <point x="233.667" y="62.7504"/>
      <point x="233.667" y="107.389" type="curve" smooth="yes" name="n35"/>
      <point x="233.667" y="145.039" name="hr03"/>
      <point x="214.638" y="170.631"/>
      <point x="151.667" y="219" type="curve" smooth="yes"/>
      <point x="97.1693" y="260.854"/>
      <point x="69.3333" y="305.919"/>
      <point x="69.3333" y="351.943" type="curve" smooth="yes" name="n41"/>
      <point x="69.3333" y="432.287"/>
      <point x="154.912" y="498"/>
      <point x="252.383" y="498" type="curve" smooth="yes" name="n44"/>
      <point x="322.969" y="498"/>
      <point x="379" y="463.473"/>
    </contour>
  </outline>
</glyph>
<glyph name="y" format="2">
  <advance width="527"/>
  <unicode hex="0079"/>
  <outline>
    <contour>
      <point x="556" y="444" type="line"/>
      <point x="504.667" y="412.333" type="line"/>
      <point x="488.667" y="397.333"/>
      <point x="440.667" y="322"/>
      <point x="422.667" y="280.667" type="curve" smooth="yes"/>
      <point x="394" y="216.667"/>
      <point x="343.667" y="93.3333"/>
      <point x="280.333" y="-14.6667" type="curve" smooth="yes"/>
      <point x="215" y="-127.333"/>
      <point x="133" y="-229"/>
      <point x="20.3333" y="-229" type="curve" smooth="yes" name="n10"/>
      <point x="-58" y="-229"/>
      <point x="-80.6667" y="-183.333"/>
      <point x="-80.6667" y="-156.333" type="curve" smooth="yes"/>
      <point x="-80.6667" y="-124.333"/>
      <point x="-58.3333" y="-83.3333"/>
      <point x="-3.66667" y="-81.3333" type="curve" name="n16"/>
      <point x="44.3333" y="-151.333" type="line"/>
      <point x="88.3333" y="-143.333"/>
      <point x="133.333" y="-89"/>
      <point x="193.333" y="20" type="curve"/>
      <point x="190.333" y="36"/>
      <point x="172.333" y="134.333"/>
      <point x="151.333" y="229.667" type="curve" smooth="yes"/>
      <point x="131" y="322.333"/>
      <point x="112.667" y="425"/>
      <point x="103.667" y="425.333" type="curve"/>
      <point x="2.66667" y="433" type="line"/>
      <point x="2.66667" y="462" type="line"/>
      <point x="24" y="469.333"/>
      <point x="117.333" y="498" name="n30"/>
      <point x="137.333" y="498" type="curve" smooth="yes"/>
      <point x="181.667" y="498"/>
      <point x="206.333" y="481.333"/>
      <point x="231.667" y="396.667" type="curve" smooth="yes"/>
      <point x="246.667" y="346.333"/>
      <point x="264" y="263"/>
      <point x="281.333" y="175.333" type="curve"/>
      <point x="423.333" y="498" type="line"/>
      <point x="465" y="498" type="line"/>
      <point x="556" y="469" type="line"/>
    </contour>
  </outline>
</glyph>
<glyph name="cent" format="2">
  <advance width="584"/>
  <unicode hex="00A2"/>
  <outline>
    <contour>
      <point x="547.667" y="467.667" type="curve"/>
      <point x="522.667" y="329.333" type="line"/>
      <point x="458" y="329.333" type="line"/>
      <point x="458.667" y="338.667"/>
      <point x="472" y="424.667"/>
      <point x="446" y="431.333" type="curve"/>
      <point x="440.667" y="434"/>
      <point x="416.667" y="443"/>
      <point x="391.667" y="446" type="curve"/>
      <point x="313" y="40.3333" type="line"/>
      <point x="336.667" y="42"/>
      <point x="359.667" y="47.6667"/>
      <point x="366" y="50" type="curve"/>
      <point x="404" y="56.6667"/>
      <point x="405.667" y="130.333"/>
      <point x="416.333" y="159.667" type="curve"/>
      <point x="481.667" y="159.667" type="line"/>
      <point x="457.333" y="19.3333" type="line"/>
      <point x="418.667" y="3.66667"/>
      <point x="367.667" y="-8.66667" name="n19"/>
      <point x="303.333" y="-11.3333" type="curve"/>
      <point x="283.667" y="-110" type="line" name="n21"/>
      <point x="211.667" y="-110" type="line"/>
      <point x="231.667" y="-9" type="line"/>
      <point x="97" y="9"/>
      <point x="45.6667" y="101.333"/>
      <point x="45.6667" y="188.667" type="curve" smooth="yes" name="n26"/>
      <point x="45.6667" y="328"/>
      <point x="149" y="473.333"/>
      <point x="329.333" y="495.333" type="curve"/>
      <point x="348" y="592" type="line" name="n30"/>
      <point x="420.333" y="592" type="line"/>
      <point x="402" y="497.333" type="line"/>
      <point x="456.333" y="494.333"/>
      <point x="495.333" y="484"/>
    </contour>
    <contour>
      <point x="318" y="435" type="line"/>
      <point x="235.667" y="403"/>
      <point x="164.667" y="312"/>
      <point x="164.667" y="187" type="curve" smooth="yes" name="n38"/>
      <point x="164.667" y="114"/>
      <point x="198" y="70"/>
      <point x="243.333" y="50.6667" type="curve"/>
    </contour>
  </outline>
</glyph>
<glyph name="sterling" format="2">
  <advance width="584"/>
  <unicode hex="00A3"/>
  <outline>
    <contour>
      <point x="601.667" y="608" type="curve" smooth="yes"/>
      <point x="601.667" y="557"/>
      <point x="554.667" y="535.333"/>
      <point x="503.333" y="528" type="curve"/>
      <point x="460.333" y="625" type="line" name="n04"/>
      <point x="330" y="617.333"/>
      <point x="308" y="423.667"/>
      <point x="296.333" y="356.333" type="curve"/>
      <point x="478.333" y="356.333" type="line" name="n08"/>
      <point x="478.333" y="299.333" type="line" name="n09"/>
      <point x="283.667" y="299.333" type="line"/>
      <point x="267.333" y="210.667"/>
      <point x="225.333" y="135.667"/>
      <point x="143" y="77.3333" type="curve"/>
      <point x="171" y="83.6667"/>
      <point x="201" y="86.3333"/>
      <point x="221.667" y="86.3333" type="curve" smooth="yes"/>
      <point x="507.333" y="86.3333" type="line" name="n17"/>
      <point x="507.333" y="0" type="line" name="n18"/>
      <point x="-3.33333" y="0" type="line"/>
      <point x="-3.33333" y="64" type="line"/>
      <point x="59.6667" y="76.6667"/>
      <point x="95" y="108"/>
      <point x="117.667" y="152" type="curve" smooth="yes"/>
      <point x="142.333" y="200.667"/>
      <point x="149" y="250.667"/>
      <point x="158.333" y="299.333" type="curve"/>
      <point x="88.6667" y="299.333" type="line"/>
      <point x="88.6667" y="356.333" type="line"/>
      <point x="166.667" y="356.333" type="line"/>
      <point x="173.333" y="429"/>
      <point x="224.667" y="687"/>
      <point x="460" y="687" type="curve" smooth="yes" name="n32"/>
      <point x="521.667" y="687"/>
      <point x="601.667" y="665"/>
    </contour>
  </outline>
</glyph>
<glyph name="ordfeminine" format="2">
  <advance width="358"/>
  <unicode hex="00AA"/>
  <outline>
    <contour>
      <point x="412" y="400.333" type="line"/>
      <point x="388.333" y="391.667"/>
      <point x="348" y="376"/>
      <point x="317.667" y="376" type="curve" smooth="yes"/>
      <point x="288.333" y="376"/>
      <point x="272" y="386.667"/>
      <point x="266" y="407.667" type="curve"/>
      <point x="244" y="392.333"/>
      <point x="212" y="376"/>
      <point x="179" y="376" type="curve" smooth="yes" name="n09"/>
      <point x="99.6667" y="376"/>
      <point x="75" y="440.667"/>
      <point x="75" y="484.333" type="curve" smooth="yes" name="n12"/>
      <point x="75" y="575.333"/>
      <point x="139" y="681.667"/>
      <point x="273" y="681.667" type="curve" smooth="yes" name="n15"/>
      <point x="293.667" y="681.667"/>
      <point x="314.333" y="674" name="hr01"/>
      <point x="328.333" y="666" type="curve"/>
      <point x="334.333" y="674" type="line" name="n19"/>
      <point x="395.667" y="674" type="line"/>
      <point x="391" y="663"/>
      <point x="382" y="644"/>
      <point x="380" y="638.667" type="curve"/>
      <point x="375.077" y="617.365"/>
      <point x="339.847" y="457.706"/>
      <point x="338" y="440" type="curve" name="n26"/>
      <point x="338" y="421.333"/>
      <point x="343" y="415"/>
      <point x="359.667" y="415" type="curve" smooth="yes" name="n29"/>
      <point x="364.667" y="415"/>
      <point x="405" y="425"/>
      <point x="412" y="426.667" type="curve"/>
    </contour>
    <contour>
      <point x="359.667" y="345.333" type="line" name="n33"/>
      <point x="350.667" y="300.667" type="line" name="n34"/>
      <point x="41.3333" y="300.667" type="line"/>
      <point x="50.6667" y="345.333" type="line"/>
    </contour>
    <contour>
      <point x="297.333" y="618.667" type="curve"/>
      <point x="298.333" y="622.667"/>
      <point x="290" y="648.667"/>
      <point x="282.667" y="648.667" type="curve" smooth="yes" name="n40"/>
      <point x="193.333" y="648.667"/>
      <point x="158" y="556.333"/>
      <point x="158" y="488.333" type="curve" smooth="yes" name="n43"/>
      <point x="158" y="455.667"/>
      <point x="159.667" y="419"/>
      <point x="200" y="419" type="curve" smooth="yes" name="n46"/>
      <point x="228.333" y="419"/>
      <point x="254" y="446.667"/>
      <point x="263.333" y="455" type="curve"/>
      <point x="271.375" y="493.004"/>
      <point x="273.041" y="499.838"/>
    </contour>
  </outline>
</glyph>
<glyph name="registered" format="2">
  <advance width="836"/>
  <unicode hex="00AE"/>
  <outline>
    <contour>
      <point x="824.333" y="350" type="curve" smooth="yes" name="n00"/>
      <point x="824.333" y="135.667"/>
      <point x="651.667" y="-38"/>
      <point x="437" y="-38" type="curve" smooth="yes" name="n03"/>
      <point x="225.667" y="-38"/>
      <point x="52" y="135.667"/>
      <point x="52" y="350" type="curve" smooth="yes" name="n06"/>
      <point x="52" y="563.667"/>
      <point x="225.333" y="738.333"/>
      <point x="439" y="738.333" type="curve" smooth="yes" name="n09"/>
      <point x="649.667" y="738.333"/>
      <point x="824.333" y="564.667"/>
    </contour>
    <contour>
      <point x="778" y="350" type="curve" smooth="yes" name="n12"/>
      <point x="778" y="539.667"/>
      <point x="626.333" y="693"/>
      <point x="439" y="693" type="curve" smooth="yes" name="n15"/>
      <point x="252.667" y="693"/>
      <point x="98.3333" y="541.667"/>
      <point x="98.3333" y="348" type="curve" smooth="yes" name="n18"/>
      <point x="98.3333" y="161.667"/>
      <point x="249.667" y="7.33333"/>
      <point x="438" y="7.33333" type="curve" smooth="yes" name="n21"/>
      <point x="626.333" y="7.33333"/>
      <point x="778" y="162.667"/>
    </contour>
    <contour>
      <point x="677" y="142" type="line"/>
      <point x="655.667" y="139"/>
      <point x="634.667" y="137.667"/>
      <point x="616.333" y="137.667" type="curve" smooth="yes" name="n27"/>
      <point x="441.667" y="137.667"/>
      <point x="534.333" y="334.333"/>
      <point x="387.667" y="334.333" type="curve" smooth="yes" name="n30"/>
      <point x="379.333" y="334.333"/>
      <point x="374" y="334.667"/>
      <point x="368" y="334.667" type="curve"/>
      <point x="368" y="191" type="line" smooth="yes" name="n34"/>
      <point x="368" y="183"/>
      <point x="374.667" y="176.667"/>
      <point x="383" y="176.333" type="curve"/>
      <point x="420.333" y="173.333" type="line"/>
      <point x="420.333" y="142" type="line"/>
      <point x="229.333" y="142" type="line"/>
      <point x="229.333" y="173.333" type="line"/>
      <point x="265.333" y="176.333" type="line"/>
      <point x="274" y="176.667"/>
      <point x="280.333" y="183"/>
      <point x="280.333" y="191" type="curve" smooth="yes" name="n45"/>
      <point x="280.333" y="531" type="line" smooth="yes"/>
      <point x="280.333" y="538.333"/>
      <point x="274.006" y="544.07"/>
      <point x="265.333" y="545" type="curve" smooth="yes"/>
      <point x="229.333" y="548.667" type="line"/>
      <point x="229.333" y="580" type="line"/>
      <point x="439.333" y="580" type="line" smooth="yes" name="n52"/>
      <point x="507.667" y="580"/>
      <point x="593.667" y="559.333"/>
      <point x="593.667" y="468.667" type="curve" smooth="yes" name="n55"/>
      <point x="593.667" y="387.333"/>
      <point x="521.667" y="364"/>
      <point x="477.333" y="356.333" type="curve"/>
      <point x="628.667" y="324.667"/>
      <point x="525.667" y="161.667"/>
      <point x="677" y="173" type="curve" name="n61"/>
    </contour>
    <contour>
      <point x="501" y="452.333" type="curve" smooth="yes" name="n62"/>
      <point x="501" y="507.333"/>
      <point x="466" y="536.333"/>
      <point x="393.333" y="536.333" type="curve" smooth="yes" name="n65"/>
      <point x="368" y="536.333" type="line"/>
      <point x="368" y="364.333" type="line"/>
      <point x="376.667" y="363.667"/>
      <point x="388.667" y="363.333"/>
      <point x="395" y="363.333" type="curve" smooth="yes" name="n70"/>
      <point x="448.667" y="363.333"/>
      <point x="501" y="379.667"/>
    </contour>
  </outline>
</glyph>
<glyph name="twosuperior" format="2">
  <advance width="379"/>
  <unicode hex="00B2"/>
  <outline>
    <contour>
      <point x="422.667" y="703" type="curve" smooth="yes" name="n00"/>
      <point x="422.667" y="591.333"/>
      <point x="241" y="491.333"/>
      <point x="158.333" y="438" type="curve"/>
      <point x="327" y="438" type="line" name="n04"/>
      <point x="348.667" y="488" type="line"/>
      <point x="394.333" y="488" type="line"/>
      <point x="373.333" y="383" type="line" name="n07"/>
      <point x="46.3333" y="383" type="line"/>
      <point x="55.3333" y="425.667" type="line"/>
      <point x="243" y="547.667"/>
      <point x="331.333" y="610.667"/>
      <point x="331.333" y="696" type="curve" smooth="yes" name="n12"/>
      <point x="331.333" y="741"/>
      <point x="301" y="755.333"/>
      <point x="274" y="755.333" type="curve" smooth="yes" name="n15"/>
      <point x="253" y="755.333"/>
      <point x="232.667" y="747.333"/>
      <point x="225.333" y="743.667" type="curve"/>
      <point x="211.667" y="681.667" type="line"/>
      <point x="206.333" y="678.333"/>
      <point x="197" y="667.333"/>
      <point x="170.667" y="667.333" type="curve" smooth="yes"/>
      <point x="148.667" y="667.333"/>
      <point x="126.667" y="679.667"/>
      <point x="126.667" y="701.333" type="curve" smooth="yes"/>
      <point x="126.667" y="754"/>
      <point x="199.333" y="794"/>
      <point x="294.333" y="794" type="curve" smooth="yes" name="n28"/>
      <point x="370.667" y="794"/>
      <point x="422.667" y="767"/>
    </contour>
  </outline>
</glyph>
<glyph name="acute" format="2">
  <advance width="310"/>
  <unicode hex="00B4"/>
  <outline>
    <contour>
      <point x="397.333" y="683.667" type="curve" smooth="yes"/>
      <point x="397.333" y="668.667"/>
      <point x="387.046" y="650.596"/>
      <point x="372" y="642" type="curve" smooth="yes"/>
      <point x="214.667" y="551" type="line" name="n04"/>
      <point x="144.667" y="551" type="line"/>
      <point x="281.333" y="703.667" type="line" smooth="yes"/>
      <point x="300.333" y="725.333"/>
      <point x="314.333" y="733.333" name="n08"/>
      <point x="342.333" y="733.333" type="curve" smooth="yes"/>
      <point x="382.667" y="733.333"/>
      <point x="397.333" y="706.333"/>
    </contour>
  </outline>
</glyph>
<glyph name="cedilla" format="2">
  <advance width="243"/>
  <unicode hex="00B8"/>
  <outline>
    <contour>
      <point x="168" y="-112.667" type="curve" smooth="yes" name="n00"/>
      <point x="168" y="-187.667"/>
      <point x="96.3333" y="-228.333"/>
      <point x="24.3333" y="-228.333" type="curve" smooth="yes" name="n03"/>
      <point x="-13" y="-228.333"/>
      <point x="-50.3333" y="-218.333"/>
      <point x="-55" y="-217" type="curve"/>
      <point x="-45.3333" y="-170.333" type="line"/>
      <point x="-40.3333" y="-171.667"/>
      <point x="-6.33333" y="-179.333"/>
      <point x="17.6667" y="-179.333" type="curve" smooth="yes" name="n10"/>
      <point x="41" y="-179.333"/>
      <point x="83" y="-172"/>
      <point x="83" y="-136.333" type="curve" smooth="yes" name="n13"/>
      <point x="83" y="-117"/>
      <point x="65.6667" y="-109.333"/>
      <point x="47.3333" y="-109.333" type="curve" smooth="yes"/>
      <point x="40.6667" y="-109.333"/>
      <point x="28.3333" y="-111.667"/>
      <point x="21.3333" y="-115" type="curve"/>
      <point x="48.6667" y="24" type="line" name="n20"/>
      <point x="100" y="24" type="line"/>
      <point x="84" y="-56.3333" type="line" name="hr01"/>
      <point x="85.6667" y="-56"/>
      <point x="90" y="-56.3333"/>
      <point x="98.3333" y="-56.3333" type="curve" smooth="yes" name="n25"/>
      <point x="139.667" y="-56.3333"/>
      <point x="168" y="-74"/>
    </contour>
  </outline>
</glyph>
<glyph name="guillemotright" format="2">
  <advance width="411"/>
  <unicode hex="00BB"/>
  <outline>
    <contour>
      <point x="288" y="482" type="line" name="n00"/>
      <point x="393" y="267" type="line"/>
      <point x="382.333" y="216" type="line"/>
      <point x="190.333" y="0" type="line" name="n03"/>
      <point x="130.667" y="0" type="line"/>
      <point x="293.667" y="241" type="line"/>
      <point x="228.333" y="482" type="line"/>
    </contour>
    <contour>
      <point x="117.333" y="482" type="line"/>
      <point x="222" y="267" type="line"/>
      <point x="212" y="216" type="line"/>
      <point x="19.3333" y="0" type="line"/>
      <point x="-40.3333" y="0" type="line"/>
      <point x="123.333" y="241" type="line"/>
      <point x="57.6667" y="482" type="line"/>
    </contour>
  </outline>
</glyph>
<glyph name="eth" format="2">
  <advance width="532"/>
  <unicode hex="00F0"/>
  <outline>
    <contour>
      <point x="513" y="653.667" type="line"/>
      <point x="401" y="608.667" type="line"/>
      <point x="447.333" y="526.333"/>
      <point x="495.333" y="399.333"/>
      <point x="495.333" y="294.667" type="curve" smooth="yes" name="n04"/>
      <point x="495.333" y="179.667"/>
      <point x="433.333" y="-12"/>
      <point x="224" y="-12" type="curve" smooth="yes" name="n07"/>
      <point x="101.667" y="-12"/>
      <point x="32" y="65.3333"/>
      <point x="32" y="181" type="curve" smooth="yes" name="n10"/>
      <point x="32" y="341.333"/>
      <point x="134.667" y="496"/>
      <point x="303" y="496" type="curve" smooth="yes" name="n13"/>
      <point x="312.667" y="496"/>
      <point x="322.667" y="493.333"/>
      <point x="332.333" y="489.667" type="curve"/>
      <point x="321" y="517.667"/>
      <point x="305.667" y="550.667"/>
      <point x="297.333" y="569" type="curve"/>
      <point x="157" y="512.667" type="line"/>
      <point x="134.333" y="567.667" type="line"/>
      <point x="265.333" y="617.667" type="line"/>
      <point x="232.333" y="664" type="line"/>
      <point x="154" y="684" type="line"/>
      <point x="158" y="716.667" type="line"/>
      <point x="312" y="739" type="line"/>
      <point x="368.667" y="658.667" type="line"/>
      <point x="488.667" y="705.667" type="line"/>
    </contour>
    <contour>
      <point x="370" y="291.667" type="curve" smooth="yes" name="n29"/>
      <point x="370" y="354"/>
      <point x="362.667" y="393.333"/>
      <point x="350" y="433.667" type="curve"/>
      <point x="341.667" y="440.667"/>
      <point x="331.667" y="447"/>
      <point x="314" y="447" type="curve" smooth="yes" name="n35"/>
      <point x="212.333" y="447"/>
      <point x="160.333" y="301"/>
      <point x="160.333" y="185" type="curve" smooth="yes" name="n38"/>
      <point x="160.333" y="78.3333"/>
      <point x="209.333" y="40"/>
      <point x="236" y="40" type="curve" smooth="yes" name="n41"/>
      <point x="315" y="40"/>
      <point x="370" y="171"/>
    </contour>
  </outline>
</glyph>
<glyph name="thorn" format="2">
  <advance width="525"/>
  <unicode hex="00FE"/>
  <outline>
    <contour>
      <point x="493.333" y="310.333" type="curve" smooth="yes" name="n00"/>
      <point x="493.333" y="149"/>
      <point x="373" y="-12"/>
      <point x="192" y="-12" type="curve" smooth="yes" name="n03"/>
      <point x="166" y="-12"/>
      <point x="145" y="-5.66667"/>
      <point x="131" y="-0.666667" type="curve"/>
      <point x="100.333" y="-153" type="line" smooth="yes"/>
      <point x="98.3333" y="-162.667"/>
      <point x="103.667" y="-169.667"/>
      <point x="117" y="-170.333" type="curve"/>
      <point x="184" y="-176" type="line"/>
      <point x="184" y="-218.667" type="line"/>
      <point x="-96" y="-218.667" type="line"/>
      <point x="-96" y="-176" type="line"/>
      <point x="-78.9635" y="-174.375"/>
      <point x="-38.6667" y="-171"/>
      <point x="-38.6667" y="-171" type="curve"/>
      <point x="-27.6667" y="-170"/>
      <point x="-21.3333" y="-163.333"/>
      <point x="-19.3333" y="-153" type="curve" smooth="yes"/>
      <point x="139.667" y="663.333" type="line"/>
      <point x="56.3333" y="672.333" type="line"/>
      <point x="56.3333" y="705.667" type="line"/>
      <point x="216.667" y="737" type="line" name="n24"/>
      <point x="274.333" y="737" type="line"/>
      <point x="219.667" y="452.667" type="line"/>
      <point x="245" y="468"/>
      <point x="293.667" y="498"/>
      <point x="347.667" y="498" type="curve" smooth="yes" name="n29"/>
      <point x="451.333" y="498"/>
      <point x="493.333" y="400.667"/>
    </contour>
    <contour>
      <point x="367" y="306.333" type="curve" smooth="yes" name="n32"/>
      <point x="367" y="363.333"/>
      <point x="354.333" y="431"/>
      <point x="301" y="431" type="curve" smooth="yes" name="n35"/>
      <point x="266.333" y="431"/>
      <point x="221.333" y="390.333"/>
      <point x="204.667" y="375.667" type="curve"/>
      <point x="144" y="67" type="line"/>
      <point x="158.667" y="58"/>
      <point x="187.667" y="39"/>
      <point x="211.333" y="39" type="curve" smooth="yes" name="n42"/>
      <point x="303.667" y="39"/>
      <point x="367" y="191.333"/>
    </contour>
  </outline>
</glyph>
<glyph name="dcaron" format="2">
  <advance width="723"/>
  <unicode hex="010F"/>
  <outline>
    <contour>
      <point x="556.333" y="737" type="line"/>
      <point x="441.667" y="88.6667" type="line" smooth="yes"/>
      <point x="435.333" y="54.3333"/>
      <point x="456" y="46"/>
      <point x="464.333" y="46" type="curve" smooth="yes"/>
      <point x="486.333" y="46"/>
      <point x="532.667" y="64.3333"/>
      <point x="550.333" y="72.3333" type="curve"/>
      <point x="550.333" y="27.3333" type="line"/>
      <point x="522.333" y="12"/>
      <point x="453.667" y="-12"/>
      <point x="405.333" y="-12" type="curve" smooth="yes"/>
      <point x="351.667" y="-12"/>
      <point x="327.667" y="10.3333"/>
      <point x="320.333" y="45" type="curve"/>
      <point x="284.667" y="14.6667"/>
      <point x="236.333" y="-12"/>
      <point x="189" y="-12" type="curve" smooth="yes" name="n17"/>
      <point x="74.3333" y="-12"/>
      <point x="32" y="83"/>
      <point x="32" y="168.333" type="curve" smooth="yes" name="n20"/>
      <point x="32" y="323.333"/>
      <point x="134.667" y="498"/>
      <point x="328.333" y="498" type="curve" smooth="yes" name="n23"/>
      <point x="355" y="498"/>
      <point x="377.667" y="488.333"/>
      <point x="392" y="483.667" type="curve"/>
      <point x="423.333" y="663.333" type="line"/>
      <point x="333" y="671.667" type="line"/>
      <point x="333" y="705.667" type="line"/>
      <point x="497.333" y="737" type="line"/>
    </contour>
    <contour>
      <point x="376" y="394" type="line" smooth="yes"/>
      <point x="377" y="399.333"/>
      <point x="351" y="445"/>
      <point x="326.333" y="445" type="curve" smooth="yes" name="n34"/>
      <point x="247.333" y="445"/>
      <point x="156.333" y="332.333"/>
      <point x="156.333" y="174.333" type="curve" smooth="yes" name="n37"/>
      <point x="156.333" y="91.6667"/>
      <point x="182.667" y="55.6667"/>
      <point x="220.333" y="55.6667" type="curve" smooth="yes" name="n40"/>
      <point x="255" y="55.6667"/>
      <point x="295.333" y="93.6667"/>
      <point x="330" y="133.667" type="curve"/>
    </contour>
    <contour>
      <point x="742" y="698.667" type="curve" smooth="yes" name="n44"/>
      <point x="742" y="614.667"/>
      <point x="652.333" y="564.333"/>
      <point x="580" y="551" type="curve"/>
      <point x="587.333" y="588.667" type="line"/>
      <point x="627.333" y="600.333"/>
      <point x="664" y="623.667"/>
      <point x="673" y="667.333" type="curve" name="n51"/>
      <point x="613.333" y="667.333" type="line"/>
      <point x="605.333" y="675.667"/>
      <point x="602" y="687.333"/>
      <point x="602" y="698.333" type="curve" smooth="yes" name="n55"/>
      <point x="602" y="738.667"/>
      <point x="639" y="763.333"/>
      <point x="675.667" y="763.333" type="curve" smooth="yes" name="n58"/>
      <point x="715.333" y="763.333"/>
      <point x="742" y="738.667"/>
    </contour>
  </outline>
</glyph>
<glyph name="ij" format="2">
  <advance width="598"/>
  <unicode hex="0133"/>
  <outline>
    <contour>
      <point x="283" y="655.667" type="curve" smooth="yes" name="n00"/>
      <point x="283" y="617.333"/>
      <point x="252.333" y="585"/>
      <point x="210.667" y="585" type="curve" smooth="yes"/>
      <point x="168.333" y="585"/>
      <point x="138.667" y="616.667"/>
      <point x="138.667" y="655.667" type="curve" smooth="yes" name="n06"/>
      <point x="138.667" y="693"/>
      <point x="169" y="725.667"/>
      <point x="211" y="725.667" type="curve" smooth="yes"/>
      <point x="252.333" y="725.667"/>
      <point x="283" y="693.667"/>
    </contour>
    <contour>
      <point x="293" y="31" type="line"/>
      <point x="248" y="7.33333"/>
      <point x="188.667" y="-12"/>
      <point x="131.667" y="-12" type="curve" smooth="yes" name="n15"/>
      <point x="60.3333" y="-12"/>
      <point x="39.6667" y="41.3333"/>
      <point x="49.3333" y="89.3333" type="curve" smooth="yes"/>
      <point x="112.667" y="423.667" type="line"/>
      <point x="26.6667" y="432.667" type="line"/>
      <point x="26.6667" y="465.667" type="line"/>
      <point x="187" y="498" type="line" name="n22"/>
      <point x="247.333" y="498" type="line"/>
      <point x="170.667" y="97.3333" type="line" smooth="yes"/>
      <point x="165.667" y="72.3333"/>
      <point x="171.333" y="49.6667"/>
      <point x="196.333" y="49.6667" type="curve" smooth="yes" name="n27"/>
      <point x="211.333" y="49.6667"/>
      <point x="264" y="65.6667"/>
      <point x="293" y="80.3333" type="curve"/>
    </contour>
    <contour>
      <point x="591.333" y="655.667" type="curve" smooth="yes" name="n31"/>
      <point x="591.333" y="619"/>
      <point x="559" y="585"/>
      <point x="518" y="585" type="curve" smooth="yes" name="n34"/>
      <point x="477.333" y="585"/>
      <point x="446" y="616.333"/>
      <point x="446" y="655.667" type="curve" smooth="yes" name="n37"/>
      <point x="446" y="694.333"/>
      <point x="475.333" y="726"/>
      <point x="518" y="726" type="curve" smooth="yes" name="n40"/>
      <point x="560" y="726"/>
      <point x="591.333" y="694.333"/>
    </contour>
    <contour>
      <point x="555.667" y="498" type="line"/>
      <point x="484.667" y="82.6667" type="line" smooth="yes"/>
      <point x="467" y="-18"/>
      <point x="383.333" y="-229" name="n46"/>
      <point x="246.667" y="-229" type="curve" smooth="yes"/>
      <point x="201.333" y="-229"/>
      <point x="166.333" y="-204.667"/>
      <point x="166.333" y="-172.667" type="curve" smooth="yes"/>
      <point x="166.333" y="-147.667"/>
      <point x="184.333" y="-133.667"/>
      <point x="203" y="-121.667" type="curve"/>
      <point x="299.667" y="-147.333" type="line"/>
      <point x="318" y="-121.667"/>
      <point x="340" y="-59"/>
      <point x="349.333" y="-8" type="curve" smooth="yes"/>
      <point x="423.667" y="423" type="line"/>
      <point x="338.333" y="432" type="line"/>
      <point x="338.333" y="465.667" type="line"/>
      <point x="499.333" y="498" type="line"/>
    </contour>
  </outline>
</glyph>
<glyph name="jcircumflex" format="2">
  <advance width="302"/>
  <unicode hex="0135"/>
  <outline>
    <contour>
      <point x="260.333" y="498" type="line" name="n00"/>
      <point x="189.333" y="82.6667" type="line" smooth="yes"/>
      <point x="171.618" y="-17.9917"/>
      <point x="88" y="-229" name="n03"/>
      <point x="-48.6667" y="-229" type="curve" smooth="yes"/>
      <point x="-94" y="-229"/>
      <point x="-129" y="-204.667"/>
      <point x="-129" y="-172.667" type="curve" smooth="yes"/>
      <point x="-129" y="-147.667"/>
      <point x="-111" y="-133.667"/>
      <point x="-92.3333" y="-121.667" type="curve"/>
      <point x="4.33333" y="-147.333" type="line"/>
      <point x="22.6667" y="-121.667"/>
      <point x="44.6667" y="-59"/>
      <point x="54" y="-8" type="curve" smooth="yes"/>
      <point x="128.333" y="423" type="line"/>
      <point x="43" y="432" type="line"/>
      <point x="43" y="465.667" type="line"/>
      <point x="204" y="498" type="line"/>
    </contour>
    <contour>
      <point x="406.333" y="551" type="line"/>
      <point x="327" y="551" type="line"/>
      <point x="255" y="645" type="line"/>
      <point x="144.333" y="551" type="line"/>
      <point x="65.6667" y="551" type="line"/>
      <point x="217.333" y="721.333" type="line" name="n24"/>
      <point x="322.333" y="721.333" type="line"/>
    </contour>
  </outline>
</glyph>
<glyph name="kcedilla" format="2">
  <advance width="535"/>
  <unicode hex="0137"/>
  <outline>
    <contour>
      <point x="524.333" y="25" type="line"/>
      <point x="491.333" y="8"/>
      <point x="428.333" y="-12"/>
      <point x="387" y="-12" type="curve" smooth="yes" name="n03"/>
      <point x="352.333" y="-12"/>
      <point x="313" y="14.3333"/>
      <point x="295.667" y="40.3333" type="curve" smooth="yes"/>
      <point x="272" y="76.6667"/>
      <point x="226.333" y="180"/>
      <point x="202.667" y="230.667" type="curve"/>
      <point x="173.333" y="204.333" type="line"/>
      <point x="131.667" y="0" type="line" name="n11"/>
      <point x="12.3333" y="0" type="line"/>
      <point x="146" y="663.333" type="line"/>
      <point x="58" y="671.667" type="line"/>
      <point x="58" y="705.667" type="line"/>
      <point x="222.333" y="737" type="line" name="n16"/>
      <point x="281" y="737" type="line"/>
      <point x="194" y="308" type="line"/>
      <point x="322.667" y="440.333" type="line" smooth="yes"/>
      <point x="362.667" y="482"/>
      <point x="393.333" y="498" name="n21"/>
      <point x="431" y="498" type="curve" smooth="yes"/>
      <point x="478.667" y="498"/>
      <point x="509.667" y="467.667"/>
      <point x="509.333" y="441.333" type="curve"/>
      <point x="509.333" y="417.667"/>
      <point x="498.667" y="377.333"/>
      <point x="431.667" y="354.667" type="curve"/>
      <point x="393.667" y="410" type="line"/>
      <point x="360" y="382.667"/>
      <point x="314.333" y="337.667"/>
      <point x="287.333" y="313.667" type="curve"/>
      <point x="305.333" y="279.667"/>
      <point x="329.333" y="205"/>
      <point x="358.667" y="151" type="curve" smooth="yes"/>
      <point x="388" y="97.6667"/>
      <point x="414.667" y="48" name="hr02"/>
      <point x="449" y="48" type="curve" smooth="yes" name="n38"/>
      <point x="454.333" y="48"/>
      <point x="481.333" y="53.6667"/>
      <point x="524.333" y="71.6667" type="curve"/>
    </contour>
    <contour>
      <point x="261" y="-125.667" type="curve" smooth="yes" name="n42"/>
      <point x="261" y="-209.333"/>
      <point x="171" y="-260"/>
      <point x="98.6667" y="-273.333" type="curve"/>
      <point x="106" y="-235.333" type="line"/>
      <point x="146.667" y="-224"/>
      <point x="182.667" y="-200.667"/>
      <point x="191.667" y="-157" type="curve" name="n49"/>
      <point x="132" y="-157" type="line"/>
      <point x="124" y="-148.667"/>
      <point x="120.667" y="-137.667"/>
      <point x="120.667" y="-126.667" type="curve" smooth="yes" name="n53"/>
      <point x="120.667" y="-86"/>
      <point x="157" y="-61"/>
      <point x="194.333" y="-61" type="curve" smooth="yes" name="n56"/>
      <point x="234" y="-61"/>
      <point x="261" y="-85.6667"/>
    </contour>
  </outline>
</glyph>
<glyph name="Lcaron" format="2">
  <advance width="546"/>
  <unicode hex="013D"/>
  <outline>
    <contour>
      <point x="513" y="196.333" type="line"/>
      <point x="474.333" y="0" type="line" name="n01"/>
      <point x="-15" y="0" type="line"/>
      <point x="-15" y="47.3333" type="line"/>
      <point x="7.59411" y="49.7294"/>
      <point x="42.3333" y="51.6667"/>
      <point x="42.3333" y="51.6667" type="curve"/>
      <point x="59.3333" y="53.3333"/>
      <point x="65" y="56.6667"/>
      <point x="67" y="69.3333" type="curve"/>
      <point x="171" y="602" type="line"/>
      <point x="173.667" y="613"/>
      <point x="167" y="617.667"/>
      <point x="154" y="618.667" type="curve"/>
      <point x="154" y="618.667"/>
      <point x="119.929" y="621.256"/>
      <point x="96" y="623.667" type="curve"/>
      <point x="96" y="671" type="line" name="n17"/>
      <point x="384" y="671" type="line"/>
      <point x="384" y="623.667" type="line" name="hr02"/>
      <point x="357.002" y="621.243"/>
      <point x="321" y="618.667"/>
      <point x="321" y="618.667" type="curve"/>
      <point x="310" y="617.667"/>
      <point x="302.667" y="612.667"/>
      <point x="300" y="601.333" type="curve"/>
      <point x="194" y="56.6667" type="line"/>
      <point x="377" y="56.6667" type="line" smooth="yes" name="n27"/>
      <point x="388" y="56.6667"/>
      <point x="400.74" y="63.3095"/>
      <point x="404" y="72.6667" type="curve"/>
      <point x="443.333" y="196.333" type="line" name="n31"/>
    </contour>
    <contour>
      <point x="579.667" y="654.667" type="curve" smooth="yes" name="n32"/>
      <point x="579.667" y="570.667"/>
      <point x="490" y="520.333"/>
      <point x="417.667" y="507" type="curve"/>
      <point x="425" y="544.667" type="line"/>
      <point x="465" y="556.333"/>
      <point x="501.667" y="579.667"/>
      <point x="510.667" y="623.333" type="curve" name="n39"/>
      <point x="451" y="623.333" type="line"/>
      <point x="443" y="631.667"/>
      <point x="439.667" y="643.333"/>
      <point x="439.667" y="654.333" type="curve" smooth="yes" name="n43"/>
      <point x="439.667" y="694.667"/>
      <point x="476.667" y="719.333"/>
      <point x="513.333" y="719.333" type="curve" smooth="yes" name="n46"/>
      <point x="553" y="719.333"/>
      <point x="579.667" y="694.667"/>
    </contour>
  </outline>
</glyph>
<glyph name="Ldot" format="2">
  <advance width="679"/>
  <unicode hex="013F"/>
  <outline>
    <contour>
      <point x="513" y="196.333" type="line"/>
      <point x="474.333" y="0" type="line" name="n01"/>
      <point x="-15" y="0" type="line"/>
      <point x="-15" y="47.3333" type="line"/>
      <point x="7.59411" y="49.7294"/>
      <point x="42.3333" y="51.6667"/>
      <point x="42.3333" y="51.6667" type="curve"/>
      <point x="59.3333" y="53.3333"/>
      <point x="65" y="56.6667"/>
      <point x="67" y="69.3333" type="curve"/>
      <point x="171" y="602" type="line"/>
      <point x="173.667" y="613"/>
      <point x="167" y="617.667"/>
      <point x="154" y="618.667" type="curve"/>
      <point x="154" y="618.667"/>
      <point x="119.929" y="621.256"/>
      <point x="96" y="623.667" type="curve"/>
      <point x="96" y="671" type="line" name="n17"/>
      <point x="384" y="671" type="line"/>
      <point x="384" y="623.667" type="line"/>
      <point x="357.002" y="621.243"/>
      <point x="321" y="618.667"/>
      <point x="321" y="618.667" type="curve"/>
      <point x="310" y="617.667"/>
      <point x="302.667" y="612.667"/>
      <point x="300" y="601.333" type="curve"/>
      <point x="194" y="56.6667" type="line"/>
      <point x="377" y="56.6667" type="line" smooth="yes" name="n27"/>
      <point x="388" y="56.6667"/>
      <point x="400.74" y="63.3095"/>
      <point x="404" y="72.6667" type="curve"/>
      <point x="443.333" y="196.333" type="line" name="n31"/>
    </contour>
    <contour>
      <point x="674" y="340" type="curve" smooth="yes" name="n32"/>
      <point x="674" y="307"/>
      <point x="649" y="281"/>
      <point x="616" y="281" type="curve" smooth="yes" name="n35"/>
      <point x="583" y="281"/>
      <point x="557" y="307"/>
      <point x="557" y="340" type="curve" smooth="yes" name="n38"/>
      <point x="557" y="373"/>
      <point x="583" y="399"/>
      <point x="616" y="399" type="curve" smooth="yes" name="n41"/>
      <point x="649" y="399"/>
      <point x="674" y="373"/>
    </contour>
  </outline>
</glyph>
<glyph name="Eng" format="2">
  <advance width="753"/>
  <unicode hex="014A"/>
  <outline>
    <contour>
      <point x="717" y="510.667" type="curve" smooth="yes"/>
      <point x="717" y="499.667"/>
      <point x="716" y="488"/>
      <point x="714" y="476.667" type="curve" smooth="yes"/>
      <point x="618.667" y="-28.6667" type="line" smooth="yes"/>
      <point x="594.667" y="-158.333"/>
      <point x="532.333" y="-229" name="n06"/>
      <point x="370.667" y="-229" type="curve" smooth="yes"/>
      <point x="316.667" y="-229"/>
      <point x="274.667" y="-198.333"/>
      <point x="274.667" y="-161.667" type="curve" smooth="yes"/>
      <point x="274.667" y="-126.333"/>
      <point x="307" y="-82.6667"/>
      <point x="347.667" y="-82.6667" type="curve"/>
      <point x="411" y="-163" type="line"/>
      <point x="461.333" y="-156.667"/>
      <point x="472" y="-123.667"/>
      <point x="487" y="-42.6667" type="curve" smooth="yes"/>
      <point x="584" y="476.667" type="line" smooth="yes"/>
      <point x="599.667" y="558"/>
      <point x="531" y="607.333"/>
      <point x="473" y="607.333" type="curve" smooth="yes" name="n21"/>
      <point x="398" y="607.333"/>
      <point x="307.333" y="517"/>
      <point x="272.333" y="458.333" type="curve"/>
      <point x="196.667" y="72.6667" type="line"/>
      <point x="194.667" y="60.6667"/>
      <point x="200.333" y="53.3333"/>
      <point x="215.333" y="52.3333" type="curve"/>
      <point x="215.333" y="52.3333"/>
      <point x="243.159" y="49.1415"/>
      <point x="267.333" y="47.3333" type="curve"/>
      <point x="267.333" y="0" type="line" name="n32"/>
      <point x="-15" y="0" type="line"/>
      <point x="-15" y="47.3333" type="line"/>
      <point x="8.33413" y="49.069"/>
      <point x="43" y="51.6667"/>
      <point x="43" y="51.6667" type="curve"/>
      <point x="60" y="53.3333"/>
      <point x="65.6667" y="60"/>
      <point x="67.6667" y="72.6667" type="curve"/>
      <point x="169.667" y="595.333" type="line" smooth="yes"/>
      <point x="172.333" y="610.333"/>
      <point x="169.667" y="617.667"/>
      <point x="151.667" y="619.333" type="curve"/>
      <point x="151.667" y="619.333"/>
      <point x="117.422" y="621.938"/>
      <point x="95" y="623.667" type="curve"/>
      <point x="95" y="671" type="line" name="n48"/>
      <point x="313.667" y="671" type="line"/>
      <point x="296.667" y="585.667" type="line"/>
      <point x="355.333" y="648.333"/>
      <point x="429" y="687" name="hr02"/>
      <point x="517" y="687" type="curve" smooth="yes" name="n53"/>
      <point x="624.333" y="687"/>
      <point x="717" y="612.333"/>
    </contour>
  </outline>
</glyph>
<glyph name="Rcedilla" format="2">
  <advance width="669"/>
  <unicode hex="0156"/>
  <outline>
    <contour>
      <point x="643" y="2" type="line" name="n00"/>
      <point x="614" y="-10.6667"/>
      <point x="587.667" y="-16" name="hr01"/>
      <point x="556" y="-16" type="curve" smooth="yes" name="n03"/>
      <point x="433.667" y="-16"/>
      <point x="408.667" y="51.6667"/>
      <point x="389" y="146.333" type="curve" smooth="yes"/>
      <point x="375" y="209.667"/>
      <point x="361" y="293.333"/>
      <point x="279" y="293.333" type="curve" smooth="yes" name="n09"/>
      <point x="268" y="293.333"/>
      <point x="247.667" y="292.333"/>
      <point x="240.333" y="292.333" type="curve"/>
      <point x="198" y="68.6667" type="line" smooth="yes"/>
      <point x="196" y="58"/>
      <point x="200.667" y="53.3333"/>
      <point x="215" y="52.3333" type="curve"/>
      <point x="215" y="52.3333"/>
      <point x="250.252" y="49.076"/>
      <point x="275" y="47.3333" type="curve"/>
      <point x="275" y="0" type="line"/>
      <point x="-13" y="0" type="line"/>
      <point x="-13" y="47.3333" type="line"/>
      <point x="11.0032" y="49.0763"/>
      <point x="45.3333" y="51.6667"/>
      <point x="45.3333" y="51.6667" type="curve"/>
      <point x="57.6667" y="52.6667"/>
      <point x="66" y="56.6667"/>
      <point x="69" y="69.3333" type="curve"/>
      <point x="171" y="602" type="line"/>
      <point x="173.667" y="613"/>
      <point x="167.667" y="617.667"/>
      <point x="153.333" y="618.667" type="curve"/>
      <point x="153.333" y="618.667"/>
      <point x="119.181" y="621.264"/>
      <point x="96" y="623.667" type="curve"/>
      <point x="96" y="671" type="line"/>
      <point x="378" y="671" type="line" smooth="yes" name="n37"/>
      <point x="504.333" y="671"/>
      <point x="609" y="634"/>
      <point x="609" y="521.667" type="curve" smooth="yes" name="n40"/>
      <point x="609" y="415.667"/>
      <point x="520.333" y="349.333"/>
      <point x="407.667" y="317" type="curve"/>
      <point x="486.333" y="282"/>
      <point x="496" y="231.333"/>
      <point x="515" y="156" type="curve" smooth="yes"/>
      <point x="533.333" y="84.3333"/>
      <point x="547.333" y="47"/>
      <point x="643" y="47" type="curve" name="n49"/>
    </contour>
    <contour>
      <point x="468" y="507" type="curve" smooth="yes" name="n50"/>
      <point x="468" y="604"/>
      <point x="372.667" y="618"/>
      <point x="326.333" y="615.667" type="curve" smooth="yes" name="n53"/>
      <point x="322.776" y="615.515"/>
      <point x="306.603" y="614.182"/>
      <point x="302.333" y="614" type="curve"/>
      <point x="252.667" y="350.333" type="line"/>
      <point x="259.172" y="350.333"/>
      <point x="276.667" y="351"/>
      <point x="276.667" y="351" type="curve" name="n60"/>
      <point x="363.333" y="353"/>
      <point x="468" y="388.667"/>
    </contour>
    <contour>
      <point x="298.667" y="-125.667" type="curve" smooth="yes" name="n63"/>
      <point x="298.667" y="-209.333"/>
      <point x="208" y="-260"/>
      <point x="135.667" y="-273.333" type="curve"/>
      <point x="143" y="-235.333" type="line"/>
      <point x="183.667" y="-224"/>
      <point x="219.667" y="-200.667"/>
      <point x="228.667" y="-157" type="curve" name="n70"/>
      <point x="169" y="-157" type="line"/>
      <point x="161" y="-148.667"/>
      <point x="157.667" y="-137.667"/>
      <point x="157.667" y="-126.667" type="curve" smooth="yes" name="n74"/>
      <point x="157.667" y="-86"/>
      <point x="194" y="-61"/>
      <point x="231.333" y="-61" type="curve" smooth="yes" name="n77"/>
      <point x="271" y="-61"/>
      <point x="298.667" y="-85.6667"/>
    </contour>
  </outline>
</glyph>
<glyph name="rcedilla" format="2">
  <advance width="403"/>
  <unicode hex="0157"/>
  <outline>
    <contour>
      <point x="440.333" y="428.333" type="curve" smooth="yes"/>
      <point x="440.333" y="382"/>
      <point x="410.667" y="364.667"/>
      <point x="347.333" y="364.667" type="curve" name="n03"/>
      <point x="321.333" y="416.667" type="line"/>
      <point x="263" y="389"/>
      <point x="204.657" y="319.335"/>
      <point x="192.667" y="260" type="curve" smooth="yes"/>
      <point x="138" y="0" type="line" name="n08"/>
      <point x="18.3333" y="0" type="line"/>
      <point x="105.667" y="423.667" type="line"/>
      <point x="21.6667" y="432.667" type="line"/>
      <point x="21.6667" y="465.667" type="line"/>
      <point x="182.667" y="498" type="line"/>
      <point x="242" y="498" type="line"/>
      <point x="226.333" y="419.667" type="line"/>
      <point x="264" y="465.333"/>
      <point x="315" y="498"/>
      <point x="368.333" y="498" type="curve" smooth="yes" name="n18"/>
      <point x="419" y="498"/>
      <point x="440.333" y="456.667"/>
    </contour>
    <contour>
      <point x="112.667" y="-125.667" type="curve" smooth="yes" name="n21"/>
      <point x="112.667" y="-209.333"/>
      <point x="22.6667" y="-260"/>
      <point x="-49.6667" y="-273.333" type="curve"/>
      <point x="-42.3333" y="-235.333" type="line"/>
      <point x="-1.66667" y="-224"/>
      <point x="34.3333" y="-200.667"/>
      <point x="43.3333" y="-157" type="curve" name="n28"/>
      <point x="-16.3333" y="-157" type="line"/>
      <point x="-24.3333" y="-148.667"/>
      <point x="-27.6667" y="-137.667"/>
      <point x="-27.6667" y="-126.667" type="curve" smooth="yes" name="n32"/>
      <point x="-27.6667" y="-86"/>
      <point x="8.66667" y="-61"/>
      <point x="46" y="-61" type="curve" smooth="yes" name="n35"/>
      <point x="85.6667" y="-61"/>
      <point x="112.667" y="-85.6667"/>
    </contour>
  </outline>
</glyph>
<glyph name="tcaron" format="2">
  <advance width="329"/>
  <unicode hex="0165"/>
  <outline>
    <contour>
      <point x="378.333" y="418.333" type="line" name="n00"/>
      <point x="230" y="418.333" type="line" name="n01"/>
      <point x="167" y="107.667" type="line" smooth="yes"/>
      <point x="160" y="75.3333"/>
      <point x="180.333" y="54.3333"/>
      <point x="212.333" y="54.3333" type="curve" smooth="yes" name="n05"/>
      <point x="245.667" y="54.3333"/>
      <point x="302" y="76"/>
      <point x="330.333" y="85.6667" type="curve"/>
      <point x="330.333" y="35.6667" type="line"/>
      <point x="310" y="26.6667"/>
      <point x="214" y="-12"/>
      <point x="152.667" y="-12" type="curve" smooth="yes" name="n12"/>
      <point x="77.3333" y="-12"/>
      <point x="45.3333" y="25.6667"/>
      <point x="45.3333" y="76.6667" type="curve" smooth="yes"/>
      <point x="45.3333" y="89.6667"/>
      <point x="46.3333" y="103"/>
      <point x="49.3333" y="117" type="curve" smooth="yes"/>
      <point x="110.333" y="417" type="line"/>
      <point x="41.3333" y="409.667" type="line"/>
      <point x="41.3333" y="448" type="line"/>
      <point x="123" y="481.667" type="line"/>
      <point x="173.333" y="583.667" type="line"/>
      <point x="260.333" y="583.667" type="line" name="n24"/>
      <point x="239.667" y="470.333" type="line" name="hr01"/>
      <point x="378.333" y="470.333" type="line" name="n26"/>
    </contour>
    <contour>
      <point x="470" y="697" type="curve" smooth="yes" name="n27"/>
      <point x="470" y="613"/>
      <point x="380.333" y="562.667"/>
      <point x="308" y="549.333" type="curve"/>
      <point x="316" y="587" type="line"/>
      <point x="356" y="598.667"/>
      <point x="392.667" y="622"/>
      <point x="401.667" y="665.667" type="curve" name="n34"/>
      <point x="342" y="665.667" type="line"/>
      <point x="334" y="674"/>
      <point x="329.667" y="685.667"/>
      <point x="329.667" y="696.667" type="curve" smooth="yes" name="n38"/>
      <point x="329.667" y="737"/>
      <point x="367" y="761.667"/>
      <point x="403.667" y="761.667" type="curve" smooth="yes" name="n41"/>
      <point x="443.333" y="761.667"/>
      <point x="470" y="737"/>
    </contour>
  </outline>
</glyph>
<glyph name="Tbar" format="2">
  <advance width="613"/>
  <unicode hex="0166"/>
  <outline>
    <contour>
      <point x="677.667" y="671" type="line"/>
      <point x="643.333" y="503.333" type="line"/>
      <point x="570.333" y="503.333" type="line"/>
      <point x="575" y="604" type="line"/>
      <point x="576" y="614.667"/>
      <point x="565.333" y="619.333" name="hr01"/>
      <point x="554" y="619.333" type="curve" smooth="yes"/>
      <point x="438.333" y="619.333" type="line"/>
      <point x="393.667" y="378.667" type="line"/>
      <point x="527" y="378.667" type="line" name="n09"/>
      <point x="527" y="321.667" type="line" name="n10"/>
      <point x="382.333" y="321.667" type="line"/>
      <point x="335" y="68.6667" type="line" smooth="yes"/>
      <point x="333" y="57.3333"/>
      <point x="340.333" y="53.3333"/>
      <point x="354.333" y="52.3333" type="curve" smooth="yes"/>
      <point x="412" y="47.3333" type="line"/>
      <point x="412" y="0" type="line" name="n17"/>
      <point x="124" y="0" type="line"/>
      <point x="124" y="47.3333" type="line"/>
      <point x="145.904" y="49.0607"/>
      <point x="180" y="51.6667"/>
      <point x="180" y="51.6667" type="curve"/>
      <point x="193.333" y="52.6667"/>
      <point x="204" y="56.6667"/>
      <point x="206" y="69.3333" type="curve"/>
      <point x="253.333" y="321.667" type="line"/>
      <point x="120" y="321.667" type="line"/>
      <point x="120" y="378.667" type="line"/>
      <point x="264.667" y="378.667" type="line"/>
      <point x="309.333" y="619.333" type="line"/>
      <point x="199" y="619.333" type="line" smooth="yes" name="n31"/>
      <point x="189" y="619.333"/>
      <point x="175.333" y="613.667"/>
      <point x="172" y="603.333" type="curve"/>
      <point x="136.333" y="503.333" type="line" name="hr02"/>
      <point x="63.3333" y="503.333" type="line" name="n36"/>
      <point x="95.6667" y="671" type="line" name="n37"/>
    </contour>
  </outline>
</glyph>
<glyph name="tbar" format="2">
  <advance width="329"/>
  <unicode hex="0167"/>
  <outline>
    <contour>
      <point x="342" y="222" type="line" name="n00"/>
      <point x="190.333" y="222" type="line"/>
      <point x="167" y="107.667" type="line" smooth="yes"/>
      <point x="160" y="75.3333"/>
      <point x="180.333" y="54.3333"/>
      <point x="212.333" y="54.3333" type="curve" smooth="yes" name="n05"/>
      <point x="245.667" y="54.3333"/>
      <point x="302" y="76"/>
      <point x="330.333" y="85.6667" type="curve"/>
      <point x="330.333" y="35.6667" type="line"/>
      <point x="310" y="26.6667"/>
      <point x="214" y="-12"/>
      <point x="152.667" y="-12" type="curve" smooth="yes" name="n12"/>
      <point x="77.3333" y="-12"/>
      <point x="45.3333" y="25.6667"/>
      <point x="45.3333" y="76.6667" type="curve" smooth="yes"/>
      <point x="45.3333" y="89.6667"/>
      <point x="46.3333" y="103"/>
      <point x="49.3333" y="117" type="curve" smooth="yes"/>
      <point x="70.3333" y="222" type="line"/>
      <point x="15.6667" y="222" type="line"/>
      <point x="15.6667" y="279.667" type="line"/>
      <point x="82" y="279.667" type="line"/>
      <point x="110.333" y="417" type="line"/>
      <point x="41.3333" y="409.667" type="line"/>
      <point x="41.3333" y="448" type="line"/>
      <point x="123" y="481.667" type="line"/>
      <point x="173.333" y="583.667" type="line"/>
      <point x="260.333" y="583.667" type="line" name="n28"/>
      <point x="239.667" y="470.333" type="line" name="hr01"/>
      <point x="378.333" y="470.333" type="line" name="n30"/>
      <point x="378.333" y="418.333" type="line" name="n31"/>
      <point x="230" y="418.333" type="line" name="n32"/>
      <point x="201.667" y="279.667" type="line"/>
      <point x="342" y="279.667" type="line" name="n34"/>
    </contour>
  </outline>
</glyph>
<glyph name="uni0185" format="2">
  <advance width="519"/>
  <unicode hex="0185"/>
  <outline>
    <contour>
      <point x="487.333" y="310.667" type="curve" smooth="yes" name="n00"/>
      <point x="487.333" y="190"/>
      <point x="412.333" y="-12"/>
      <point x="192" y="-12" type="curve" smooth="yes" name="n03"/>
      <point x="125.333" y="-12"/>
      <point x="65.6667" y="6"/>
      <point x="18" y="36.6667" type="curve"/>
      <point x="96" y="455.333" type="line"/>
      <point x="6.66667" y="534.333" type="line"/>
      <point x="275" y="761" type="line"/>
      <point x="216.333" y="456.667" type="line"/>
      <point x="252.333" y="480.333"/>
      <point x="296.667" y="498"/>
      <point x="336" y="498" type="curve" smooth="yes" name="n13"/>
      <point x="441.667" y="498"/>
      <point x="487.333" y="394.333"/>
    </contour>
    <contour>
      <point x="361.667" y="306.667" type="curve" smooth="yes" name="n16"/>
      <point x="361.667" y="392.667"/>
      <point x="326.333" y="425.333"/>
      <point x="303" y="425.333" type="curve" smooth="yes" name="n19"/>
      <point x="273.667" y="425.333"/>
      <point x="232.667" y="404.667"/>
      <point x="201.333" y="377.667" type="curve"/>
      <point x="145.333" y="77.3333" type="line"/>
      <point x="157" y="59.6667"/>
      <point x="180.667" y="41"/>
      <point x="213.333" y="41" type="curve" smooth="yes" name="n26"/>
      <point x="288" y="41"/>
      <point x="361.667" y="184"/>
    </contour>
  </outline>
</glyph>
<glyph name="uni0187" format="2">
  <advance width="657"/>
  <unicode hex="0187"/>
  <outline>
    <contour>
      <point x="884.333" y="777.333" type="curve" smooth="yes"/>
      <point x="884.333" y="742.667"/>
      <point x="852" y="713"/>
      <point x="823.333" y="704" type="curve"/>
      <point x="740.333" y="791.333" type="line"/>
      <point x="702" y="785.667"/>
      <point x="686.667" y="727.667"/>
      <point x="672.667" y="645.667" type="curve" smooth="yes"/>
      <point x="643" y="476.333" type="line"/>
      <point x="574" y="476.333" type="line"/>
      <point x="574.667" y="582" type="line"/>
      <point x="575.333" y="590.667"/>
      <point x="568.333" y="603.333"/>
      <point x="558.667" y="606.333" type="curve"/>
      <point x="549.667" y="611.333"/>
      <point x="505" y="629.333"/>
      <point x="469" y="629.333" type="curve" smooth="yes"/>
      <point x="333.333" y="629.333"/>
      <point x="182" y="488.333"/>
      <point x="182" y="256.667" type="curve" smooth="yes" name="n19"/>
      <point x="182" y="105"/>
      <point x="278.333" y="41.6667"/>
      <point x="373" y="41.6667" type="curve" smooth="yes" name="n22"/>
      <point x="406" y="41.6667"/>
      <point x="443.667" y="52.6667"/>
      <point x="453.333" y="57.3333" type="curve"/>
      <point x="462.667" y="58.3333"/>
      <point x="469.667" y="67"/>
      <point x="473" y="74.6667" type="curve"/>
      <point x="519.333" y="200.667" type="line"/>
      <point x="589" y="200.667" type="line"/>
      <point x="559.333" y="26" type="line"/>
      <point x="520.333" y="12.3333"/>
      <point x="435" y="-16"/>
      <point x="340" y="-16" type="curve" smooth="yes" name="n34"/>
      <point x="123.667" y="-16"/>
      <point x="48" y="129.667"/>
      <point x="48" y="267.667" type="curve" smooth="yes" name="n37"/>
      <point x="48" y="476"/>
      <point x="208" y="687" name="n39"/>
      <point x="464" y="687" type="curve" smooth="yes"/>
      <point x="503.667" y="687"/>
      <point x="524.333" y="685"/>
      <point x="585" y="671" type="curve"/>
      <point x="606.333" y="790.333"/>
      <point x="693" y="848.667" name="n45"/>
      <point x="800" y="848.667" type="curve" smooth="yes"/>
      <point x="844.667" y="848.667"/>
      <point x="884.333" y="811"/>
    </contour>
  </outline>
</glyph>
<glyph name="uni018C" format="2">
  <advance width="552"/>
  <unicode hex="018C"/>
  <outline>
    <contour>
      <point x="392" y="483.667" type="curve"/>
      <point x="423.333" y="660.333" type="line" smooth="yes"/>
      <point x="425.667" y="673.333"/>
      <point x="422.667" y="682"/>
      <point x="408.333" y="682" type="curve" smooth="yes"/>
      <point x="278" y="682" type="line" smooth="yes" name="n05"/>
      <point x="267" y="682"/>
      <point x="257.333" y="674"/>
      <point x="253.667" y="663.333" type="curve" smooth="yes"/>
      <point x="222.333" y="574.667" type="line" name="n09"/>
      <point x="154.333" y="574.667" type="line"/>
      <point x="186" y="737" type="line" name="n11"/>
      <point x="556.333" y="737" type="line"/>
      <point x="441.667" y="88.6667" type="line" smooth="yes"/>
      <point x="435.511" y="54.3595"/>
      <point x="456" y="46"/>
      <point x="464.333" y="46" type="curve" smooth="yes"/>
      <point x="486.333" y="46"/>
      <point x="532.667" y="64.3333"/>
      <point x="550.333" y="72.3333" type="curve"/>
      <point x="550.333" y="27.3333" type="line"/>
      <point x="522.333" y="12"/>
      <point x="453.667" y="-12"/>
      <point x="405.333" y="-12" type="curve" smooth="yes"/>
      <point x="351.667" y="-12"/>
      <point x="327.667" y="10.3333"/>
      <point x="320.333" y="45" type="curve"/>
      <point x="284.667" y="14.6667"/>
      <point x="236.333" y="-12"/>
      <point x="189" y="-12" type="curve" smooth="yes" name="n29"/>
      <point x="74.3333" y="-12"/>
      <point x="32" y="83"/>
      <point x="32" y="168.333" type="curve" smooth="yes" name="n32"/>
      <point x="32" y="323.333"/>
      <point x="134.667" y="498"/>
      <point x="328.333" y="498" type="curve" smooth="yes" name="n35"/>
      <point x="355" y="498"/>
      <point x="377.667" y="488.333"/>
    </contour>
    <contour>
      <point x="376" y="394" type="line" smooth="yes"/>
      <point x="377" y="399.333"/>
      <point x="351" y="445"/>
      <point x="326.333" y="445" type="curve" smooth="yes" name="n41"/>
      <point x="247.333" y="445"/>
      <point x="156.333" y="332.333"/>
      <point x="156.333" y="174.333" type="curve" smooth="yes" name="n44"/>
      <point x="156.333" y="91.6667"/>
      <point x="182.667" y="55.6667"/>
      <point x="220.333" y="55.6667" type="curve" smooth="yes" name="n47"/>
      <point x="255" y="55.6667"/>
      <point x="295.333" y="93.6667"/>
      <point x="330" y="133.667" type="curve"/>
    </contour>
  </outline>
</glyph>
<glyph name="uni018D" format="2">
  <advance width="549"/>
  <unicode hex="018D"/>
  <outline>
    <contour>
      <point x="67.6667" y="23.3333" type="curve" name="n00"/>
      <point x="73.6667" y="83.6667"/>
      <point x="137.667" y="116"/>
      <point x="178" y="112" type="curve" name="n03"/>
      <point x="211.071" y="102.962"/>
      <point x="245.225" y="56.2942"/>
      <point x="247.333" y="7.33333" type="curve" name="n06"/>
      <point x="261.333" y="-60.3333"/>
      <point x="228.333" y="-91.6667"/>
      <point x="202.333" y="-106.667" type="curve"/>
      <point x="244.667" y="-127"/>
      <point x="298.333" y="-135" name="hr01"/>
      <point x="298.333" y="-120" type="curve" smooth="yes" name="n12"/>
      <point x="298.333" y="-97"/>
      <point x="94.6667" y="-76"/>
      <point x="69.6667" y="62.6667" type="curve" name="n15"/>
      <point x="33.6667" y="184.667"/>
      <point x="135.333" y="269"/>
      <point x="214" y="284" type="curve"/>
      <point x="283.333" y="295.333"/>
      <point x="367" y="278.667"/>
      <point x="380.667" y="200" type="curve" name="n21"/>
      <point x="384" y="92.6667"/>
      <point x="296.667" y="36"/>
      <point x="209.333" y="5.33333" type="curve"/>
      <point x="248.262" y="-35.9102" name="hr02"/>
      <point x="291.155" y="-82.427"/>
      <point x="291.333" y="-122" type="curve"/>
      <point x="298.667" y="-192.333" name="hr03"/>
      <point x="223.333" y="-232.667"/>
      <point x="178" y="-232.667" type="curve" smooth="yes" name="n30"/>
      <point x="105.667" y="-232.667"/>
      <point x="82.6667" y="-195.333"/>
      <point x="82.6667" y="-148.333" type="curve" smooth="yes" name="n33"/>
      <point x="82.6667" y="-87.6667"/>
      <point x="37.6667" y="-39.6667"/>
    </contour>
    <contour>
      <point x="158.667" y="227.667" type="curve" smooth="yes" name="n36"/>
      <point x="158.667" y="168.333"/>
      <point x="185" y="122.667"/>
      <point x="218.667" y="82.3333" type="curve"/>
      <point x="302.667" y="122.333"/>
      <point x="389.667" y="211"/>
      <point x="389.667" y="330.333" type="curve" smooth="yes" name="n42"/>
      <point x="389.667" y="408.667"/>
      <point x="361.333" y="446.333"/>
      <point x="314" y="446.333" type="curve" smooth="yes" name="n45"/>
      <point x="223.667" y="446.333"/>
      <point x="158.667" y="343.333"/>
    </contour>
  </outline>
</glyph>
<glyph name="uni018F" format="2">
  <advance width="629"/>
  <unicode hex="018F"/>
  <outline>
    <contour>
      <point x="611" y="429.333" type="curve" smooth="yes" name="n00"/>
      <point x="611" y="208"/>
      <point x="496" y="-16"/>
      <point x="226" y="-16" type="curve" smooth="yes" name="n03"/>
      <point x="68.3333" y="-16"/>
      <point x="21" y="95.3333"/>
      <point x="21" y="134" type="curve" smooth="yes" name="n06"/>
      <point x="21" y="288.333"/>
      <point x="152.333" y="377.667"/>
      <point x="470.667" y="381.333" type="curve" name="n09"/>
      <point x="472" y="395.333"/>
      <point x="473" y="408.667"/>
      <point x="473" y="423.667" type="curve" smooth="yes" name="n12"/>
      <point x="473" y="529.333"/>
      <point x="408" y="624"/>
      <point x="331" y="624" type="curve" smooth="yes" name="n15"/>
      <point x="244" y="624"/>
      <point x="150.667" y="552.333"/>
      <point x="83" y="485.333" type="curve"/>
      <point x="83" y="584.333" type="line"/>
      <point x="165.333" y="657.667"/>
      <point x="229.667" y="687"/>
      <point x="355.667" y="687" type="curve" smooth="yes" name="n22"/>
      <point x="452.667" y="687"/>
      <point x="611" y="616.333"/>
    </contour>
    <contour>
      <point x="461.333" y="318" type="curve" name="n25"/>
      <point x="246.667" y="313.333"/>
      <point x="170" y="233"/>
      <point x="170" y="133" type="curve" smooth="yes" name="n28"/>
      <point x="170" y="94"/>
      <point x="206" y="43"/>
      <point x="246" y="43" type="curve" smooth="yes" name="n31"/>
      <point x="336" y="43"/>
      <point x="424.333" y="167.667"/>
    </contour>
  </outline>
</glyph>
<glyph name="uni0193" format="2">
  <advance width="715"/>
  <unicode hex="0193"/>
  <outline>
    <contour>
      <point x="666.667" y="597.333" type="curve" smooth="yes" name="n00"/>
      <point x="666.667" y="519"/>
      <point x="684.667" y="481"/>
      <point x="689.333" y="474.333" type="curve" name="n03"/>
      <point x="691.391" y="486.905"/>
      <point x="664.316" y="538.15"/>
      <point x="665" y="544.667" type="curve"/>
      <point x="644.26" y="551.259"/>
      <point x="641.858" y="549.308"/>
      <point x="634.667" y="516" type="curve" smooth="yes"/>
      <point x="631.196" y="499.44"/>
      <point x="616.671" y="437.281"/>
      <point x="604" y="405" type="curve"/>
      <point x="528.333" y="406.667" type="line"/>
      <point x="535" y="493.333" type="line"/>
      <point x="547.411" y="498.667"/>
      <point x="602.391" y="506.667"/>
      <point x="611.667" y="508.667" type="curve"/>
      <point x="604.333" y="511.746"/>
      <point x="571" y="511.61"/>
      <point x="550.333" y="509.333" type="curve"/>
      <point x="466.08" y="509.136"/>
      <point x="343.565" y="416.038"/>
      <point x="339.333" y="261.667" type="curve"/>
      <point x="335" y="152.667"/>
      <point x="416.667" y="121.667"/>
      <point x="446.333" y="117.333" type="curve"/>
      <point x="461.274" y="104.839"/>
      <point x="474.386" y="53.9775"/>
      <point x="484.667" y="48.3333" type="curve"/>
      <point x="479.215" y="52.8357"/>
      <point x="461.441" y="142.496"/>
      <point x="438.667" y="167.333" type="curve" name="n32"/>
      <point x="364" y="175.333"/>
      <point x="342" y="234.667"/>
      <point x="331.333" y="272.667" type="curve" name="n35"/>
      <point x="331.333" y="358"/>
      <point x="384" y="413.667" name="n37"/>
      <point x="437.667" y="415" type="curve"/>
      <point x="451" y="421.234"/>
      <point x="460.333" y="441.575"/>
      <point x="473.667" y="444.667" type="curve"/>
      <point x="519.561" y="478"/>
      <point x="664.958" y="501.667" name="n43"/>
      <point x="739.667" y="501.667" type="curve"/>
      <point x="758.333" y="493.01"/>
      <point x="767.333" y="464.637"/>
      <point x="767.333" y="450" type="curve"/>
      <point x="760.147" y="439.805"/>
      <point x="720.727" y="427.877"/>
      <point x="703.667" y="425" type="curve"/>
      <point x="692.458" y="428.933"/>
      <point x="675.303" y="438.984"/>
      <point x="668.667" y="437.667" type="curve"/>
      <point x="647.765" y="408.862"/>
      <point x="629.051" y="312.848"/>
      <point x="613.667" y="233.333" type="curve"/>
      <point x="575.164" y="216.376"/>
      <point x="505.04" y="162.514"/>
      <point x="446.667" y="153.333" type="curve"/>
      <point x="270.673" y="153.333"/>
      <point x="223.158" y="272.667"/>
      <point x="220.667" y="343.333" type="curve"/>
      <point x="220.911" y="514.768"/>
      <point x="365.777" y="646.713"/>
      <point x="517.333" y="651.667" type="curve"/>
      <point x="543.333" y="655"/>
      <point x="559" y="660.667"/>
      <point x="592.667" y="653.667" type="curve"/>
      <point x="603.667" y="740.667"/>
      <point x="659" y="778.333"/>
      <point x="713" y="778.333" type="curve"/>
      <point x="689" y="778.333"/>
      <point x="666.667" y="698.333"/>
    </contour>
  </outline>
</glyph>
<glyph name="uni019A" format="2">
  <advance width="292"/>
  <unicode hex="019A"/>
  <outline>
    <contour>
      <point x="329" y="340.667" type="line"/>
      <point x="244.667" y="322.333" type="line"/>
      <point x="177" y="175.667" type="line" name="n02"/>
      <point x="171.765" y="146.955"/>
      <point x="166.084" y="82.6601"/>
      <point x="180" y="68.3333" type="curve" smooth="yes"/>
      <point x="189" y="59.3333"/>
      <point x="222.667" y="56"/>
      <point x="263.333" y="70" type="curve" name="n08"/>
      <point x="269.667" y="65.9187"/>
      <point x="286.667" y="42.1158"/>
      <point x="290.333" y="40.6667" type="curve"/>
      <point x="258.333" y="21.9438"/>
      <point x="218.333" y="2.64235"/>
      <point x="183.667" y="0.666667" type="curve" smooth="yes"/>
      <point x="134.333" y="-1.33333"/>
      <point x="83" y="8"/>
      <point x="67.3333" y="38.6667" type="curve" name="n17"/>
      <point x="47" y="46"/>
      <point x="39.9992" y="64.058"/>
      <point x="41.6667" y="87" type="curve"/>
      <point x="45.7431" y="111.379"/>
      <point x="65.305" y="214.652"/>
      <point x="71.3333" y="246.667" type="curve"/>
      <point x="20.6667" y="322.333" type="line"/>
      <point x="-3.66667" y="366.333" type="line"/>
      <point x="65.3333" y="384.667" type="line"/>
      <point x="133.667" y="566.667" type="line"/>
      <point x="93.3333" y="668.667" type="line"/>
      <point x="63.6667" y="695.667" type="line"/>
      <point x="176.333" y="727" type="line"/>
      <point x="272.333" y="737" type="line" name="n31"/>
      <point x="240" y="504.333" type="line"/>
      <point x="298.333" y="384.667" type="line" name="n33"/>
    </contour>
  </outline>
</glyph>
<glyph name="uni019B" format="2">
  <advance width="605"/>
  <unicode hex="019B"/>
  <outline>
    <contour>
      <point x="541.667" y="272.333" type="curve"/>
      <point x="536.589" y="215.84"/>
      <point x="437.58" y="191.169"/>
      <point x="397.333" y="188" type="curve"/>
      <point x="350.672" y="159.265"/>
      <point x="344.875" y="105.785"/>
      <point x="339.667" y="126.333" type="curve" smooth="yes"/>
      <point x="337.754" y="133.277"/>
      <point x="326.952" y="187.215"/>
      <point x="338.667" y="206.333" type="curve" name="n09"/>
      <point x="243" y="46.6667" type="line"/>
      <point x="236.816" y="46.6667"/>
      <point x="181.948" y="35.6667"/>
      <point x="168.667" y="26.6667" type="curve"/>
      <point x="198.439" y="53.7601"/>
      <point x="292.99" y="242.774"/>
      <point x="303" y="306" type="curve" name="n16"/>
      <point x="278.547" y="313.909"/>
      <point x="266.394" y="353.209"/>
      <point x="259.333" y="388" type="curve"/>
      <point x="155.667" y="385.667" type="line"/>
      <point x="89" y="326" type="line" name="n21"/>
      <point x="134.667" y="394.667" type="line"/>
      <point x="142.892" y="446.299"/>
      <point x="192.969" y="574.997"/>
      <point x="178" y="604.667" type="curve"/>
      <point x="134.333" y="565" type="line"/>
      <point x="97.1449" y="558.65"/>
      <point x="45.4941" y="551.248"/>
      <point x="37.6667" y="577" type="curve"/>
      <point x="37.6667" y="633.126"/>
      <point x="116.333" y="656.371"/>
      <point x="153.667" y="659.333" type="curve"/>
      <point x="199.306" y="665.524"/>
      <point x="246.03" y="663.033"/>
      <point x="266" y="638.333" type="curve"/>
      <point x="278.53" y="680.229"/>
      <point x="305.304" y="710.572"/>
      <point x="300.667" y="719.333" type="curve" name="n38"/>
      <point x="278.333" y="635" type="line"/>
      <point x="255.526" y="626.625"/>
      <point x="217.728" y="610.987"/>
      <point x="211.333" y="614.333" type="curve"/>
      <point x="222.208" y="587.979"/>
      <point x="291.328" y="401.941"/>
      <point x="333.667" y="339.667" type="curve" name="n45"/>
      <point x="359.333" y="311.667"/>
      <point x="373.667" y="265.333"/>
      <point x="414.333" y="246.667" type="curve"/>
      <point x="485" y="343.333" type="line"/>
      <point x="515" y="339.754"/>
      <point x="541.667" y="309.622"/>
    </contour>
  </outline>
</glyph>
<glyph name="uni01A4" format="2">
  <advance width="642"/>
  <unicode hex="01A4"/>
  <outline>
    <contour>
      <point x="634" y="508.784" type="curve" smooth="yes" name="n00"/>
      <point x="634" y="351.285"/>
      <point x="506.475" y="248.667"/>
      <point x="313.784" y="248.667" type="curve" smooth="yes"/>
      <point x="264.192" y="248.667" type="line" name="n04"/>
      <point x="227.333" y="68.6667" type="line" smooth="yes"/>
      <point x="226.411" y="64.1415"/>
      <point x="231.341" y="53.4491"/>
      <point x="245.667" y="52.3333" type="curve" smooth="yes"/>
      <point x="306" y="47.3333" type="line"/>
      <point x="306" y="0" type="line"/>
      <point x="18" y="0" type="line"/>
      <point x="18" y="47.3333" type="line"/>
      <point x="72.3333" y="52.3333" type="line" smooth="yes"/>
      <point x="85.3217" y="53.4598"/>
      <point x="94.1067" y="56.6986"/>
      <point x="96.6667" y="69.3333" type="curve" smooth="yes"/>
      <point x="203.333" y="594.689" type="line" smooth="yes"/>
      <point x="203.93" y="597.638"/>
      <point x="198.091" y="612.333"/>
      <point x="186" y="612.333" type="curve" smooth="yes" name="n20"/>
      <point x="160.333" y="612.333" type="line" smooth="yes"/>
      <point x="134" y="612.333"/>
      <point x="122.333" y="605.675"/>
      <point x="109" y="589.692" type="curve"/>
      <point x="134.333" y="518.766" type="line"/>
      <point x="107" y="495.121"/>
      <point x="90.3333" y="488.797"/>
      <point x="65.3367" y="488.797" type="curve" smooth="yes"/>
      <point x="27.6667" y="488.797"/>
      <point x="5.66667" y="524.772"/>
      <point x="5.66667" y="563.282" type="curve" smooth="yes"/>
      <point x="5.66667" y="636.149"/>
      <point x="83.3333" y="671"/>
      <point x="168.667" y="671" type="curve" smooth="yes" name="n34"/>
      <point x="392" y="671" type="line" smooth="yes"/>
      <point x="572.333" y="671"/>
      <point x="634" y="599.021"/>
    </contour>
    <contour>
      <point x="502" y="492.246" type="curve" smooth="yes" name="n38"/>
      <point x="502" y="570.722"/>
      <point x="467.856" y="617"/>
      <point x="375.282" y="617" type="curve" smooth="yes"/>
      <point x="359.282" y="617"/>
      <point x="348.484" y="615.562"/>
      <point x="336.799" y="612.005" type="curve"/>
      <point x="275.667" y="306.667" type="line" name="n45"/>
      <point x="303.767" y="306.525" type="line" smooth="yes"/>
      <point x="425.551" y="305.902"/>
      <point x="502" y="373.989"/>
    </contour>
  </outline>
</glyph>
<glyph name="uni01AB" format="2">
  <advance width="329"/>
  <unicode hex="01AB"/>
  <outline>
    <contour>
      <point x="377" y="418.333" type="line" name="n00"/>
      <point x="228.667" y="418.333" type="line" name="n01"/>
      <point x="165.667" y="107.667" type="line" smooth="yes"/>
      <point x="158.66" y="75.3348"/>
      <point x="179" y="54.3333"/>
      <point x="211" y="54.3333" type="curve" smooth="yes" name="n05"/>
      <point x="244.333" y="54.3333"/>
      <point x="300.667" y="76"/>
      <point x="329" y="85.6667" type="curve"/>
      <point x="292.667" y="-91.3333" type="line" smooth="yes"/>
      <point x="281.667" y="-146.667"/>
      <point x="233.667" y="-229"/>
      <point x="121.667" y="-229" type="curve" smooth="yes" name="n12"/>
      <point x="56.6667" y="-229"/>
      <point x="28" y="-199"/>
      <point x="28" y="-163.667" type="curve" smooth="yes"/>
      <point x="28" y="-122.667"/>
      <point x="70.3333" y="-100.333"/>
      <point x="96" y="-94" type="curve"/>
      <point x="164.667" y="-159.333" type="line" name="n19"/>
      <point x="193.333" y="-156.667"/>
      <point x="217.333" y="-132.667"/>
      <point x="226.667" y="-91.6667" type="curve"/>
      <point x="226.667" y="-91.6667"/>
      <point x="244.68" y="-19.3714"/>
      <point x="248.667" y="6.33333" type="curve"/>
      <point x="215.333" y="-7"/>
      <point x="179.667" y="-12"/>
      <point x="151.333" y="-12" type="curve" smooth="yes" name="n28"/>
      <point x="76" y="-12"/>
      <point x="44" y="25.6667"/>
      <point x="44" y="76.6667" type="curve" smooth="yes"/>
      <point x="44" y="89.6667"/>
      <point x="45" y="103"/>
      <point x="48" y="117" type="curve" smooth="yes"/>
      <point x="109" y="417" type="line"/>
      <point x="40" y="409.667" type="line"/>
      <point x="40" y="448" type="line"/>
      <point x="121.667" y="481.667" type="line"/>
      <point x="172" y="583.667" type="line"/>
      <point x="259" y="583.667" type="line" name="n40"/>
      <point x="238.333" y="470.333" type="line" name="hr01"/>
      <point x="377" y="470.333" type="line" name="n42"/>
    </contour>
  </outline>
</glyph>
<glyph name="uni01AD" format="2">
  <advance width="335"/>
  <unicode hex="01AD"/>
  <outline>
    <contour>
      <point x="439.333" y="671.333" type="curve" smooth="yes"/>
      <point x="439.333" y="630.667"/>
      <point x="411" y="617.667"/>
      <point x="385.333" y="606.333" type="curve"/>
      <point x="313" y="673.333" type="line"/>
      <point x="285.333" y="644.333"/>
      <point x="268.333" y="602.667"/>
      <point x="256.667" y="549" type="curve" smooth="yes"/>
      <point x="239.667" y="470.333" type="line"/>
      <point x="378.333" y="470.333" type="line" name="n09"/>
      <point x="378.333" y="418.333" type="line" name="n10"/>
      <point x="230" y="418.333" type="line"/>
      <point x="167" y="107.667" type="line" smooth="yes"/>
      <point x="160" y="75.3333"/>
      <point x="180.333" y="54.3333"/>
      <point x="212.333" y="54.3333" type="curve" smooth="yes" name="n15"/>
      <point x="245.667" y="54.3333"/>
      <point x="302" y="76"/>
      <point x="330.333" y="85.6667" type="curve"/>
      <point x="330.333" y="35.6667" type="line"/>
      <point x="310" y="26.6667"/>
      <point x="214" y="-12"/>
      <point x="152.667" y="-12" type="curve" smooth="yes" name="n22"/>
      <point x="77.3333" y="-12"/>
      <point x="45.3333" y="25.6667"/>
      <point x="45.3333" y="76.6667" type="curve" smooth="yes"/>
      <point x="45.3333" y="89.6667"/>
      <point x="46.3333" y="103"/>
      <point x="49.3333" y="117" type="curve" smooth="yes"/>
      <point x="110.333" y="417" type="line"/>
      <point x="41.3333" y="409.667" type="line"/>
      <point x="41.3333" y="448" type="line"/>
      <point x="123" y="481.667" type="line"/>
      <point x="148.333" y="597.667"/>
      <point x="217.333" y="737" name="n34"/>
      <point x="348.333" y="737" type="curve" smooth="yes"/>
      <point x="416.667" y="737"/>
      <point x="439.333" y="695.667"/>
    </contour>
  </outline>
</glyph>
<glyph name="Uhorn" format="2">
  <advance width="854"/>
  <unicode hex="01AF"/>
  <outline>
    <contour>
      <point x="918" y="769.333" type="curve" smooth="yes" name="n00"/>
      <point x="918" y="617.045"/>
      <point x="822" y="502.434"/>
      <point x="670.667" y="478.446" type="curve"/>
      <point x="618" y="214.919" type="line" smooth="yes"/>
      <point x="590.667" y="73.9902"/>
      <point x="500.667" y="-16"/>
      <point x="321.676" y="-16" type="curve" smooth="yes" name="n07"/>
      <point x="185.333" y="-16"/>
      <point x="92" y="36.2462"/>
      <point x="92" y="155.86" type="curve" smooth="yes" name="n10"/>
      <point x="92" y="180.603"/>
      <point x="96" y="219.584"/>
      <point x="105" y="264.895" type="curve" smooth="yes"/>
      <point x="175" y="602.061" type="line"/>
      <point x="175.437" y="605.868" type="line"/>
      <point x="174.945" y="614.61"/>
      <point x="168.448" y="617.518"/>
      <point x="155" y="618.718" type="curve" smooth="yes"/>
      <point x="99" y="623.716" type="line"/>
      <point x="99" y="671.028" type="line" name="n20"/>
      <point x="387" y="671.028" type="line"/>
      <point x="387" y="623.716" type="line"/>
      <point x="326" y="618.718" type="line" smooth="yes"/>
      <point x="314" y="617.719"/>
      <point x="306.508" y="613.629"/>
      <point x="304" y="601.395" type="curve" smooth="yes"/>
      <point x="235" y="264.895" type="line" smooth="yes"/>
      <point x="227" y="226.58"/>
      <point x="224" y="194.596"/>
      <point x="224" y="176.168" type="curve" smooth="yes" name="n30"/>
      <point x="224" y="91.9794"/>
      <point x="282.333" y="56"/>
      <point x="353.597" y="56" type="curve" smooth="yes" name="n33"/>
      <point x="463.667" y="56"/>
      <point x="507.333" y="140.954"/>
      <point x="529" y="249.902" type="curve" smooth="yes"/>
      <point x="599" y="602.061" type="line"/>
      <point x="598.843" y="606.549" type="line"/>
      <point x="598.947" y="614.68"/>
      <point x="593.929" y="617.46"/>
      <point x="579.667" y="618.718" type="curve" smooth="yes"/>
      <point x="523" y="623.716" type="line"/>
      <point x="523" y="671.028" type="line"/>
      <point x="763.667" y="671.028" type="line"/>
      <point x="763.667" y="623.716" type="line"/>
      <point x="713.667" y="618.718" type="line" smooth="yes"/>
      <point x="703.646" y="617.523"/>
      <point x="697.028" y="611.722"/>
      <point x="695" y="601.395" type="curve" smooth="yes"/>
      <point x="683.667" y="543.419" type="line"/>
      <point x="782.333" y="573.408"/>
      <point x="823.333" y="643.041"/>
      <point x="823.333" y="723" type="curve" name="n53"/>
      <point x="731.333" y="723" type="line"/>
      <point x="726.632" y="730.484"/>
      <point x="712.333" y="755.947" name="hr01"/>
      <point x="712.333" y="784.36" type="curve" smooth="yes" name="n57"/>
      <point x="712.333" y="835.333"/>
      <point x="757.667" y="872"/>
      <point x="810.785" y="872" type="curve" smooth="yes" name="n60"/>
      <point x="865.333" y="872"/>
      <point x="918" y="833.333"/>
    </contour>
  </outline>
</glyph>
<glyph name="uhorn" format="2">
  <advance width="683"/>
  <unicode hex="01B0"/>
  <outline>
    <contour>
      <point x="447" y="99" type="line" smooth="yes"/>
      <point x="445.583" y="92.2641"/>
      <point x="444.915" y="86.3345"/>
      <point x="444.923" y="81.1217" type="curve" smooth="yes"/>
      <point x="444.951" y="57.6893"/>
      <point x="459.271" y="45.6667"/>
      <point x="480.169" y="45.6667" type="curve" smooth="yes"/>
      <point x="492.565" y="45.6667"/>
      <point x="508.886" y="50.6494"/>
      <point x="556" y="75.6667" type="curve"/>
      <point x="556" y="26.6667" type="line"/>
      <point x="527.201" y="10.6194"/>
      <point x="454.776" y="-12"/>
      <point x="402.03" y="-12" type="curve" smooth="yes"/>
      <point x="342.926" y="-12"/>
      <point x="329" y="16.4294"/>
      <point x="327" y="44.3333" type="curve"/>
      <point x="280.449" y="7.7776"/>
      <point x="228.134" y="-12"/>
      <point x="165.309" y="-12" type="curve" smooth="yes" name="n19"/>
      <point x="83.6969" y="-12"/>
      <point x="43.9433" y="38.9787"/>
      <point x="43.9433" y="93.174" type="curve" smooth="yes"/>
      <point x="43.9433" y="100.827"/>
      <point x="44.7595" y="108.407"/>
      <point x="46.3333" y="115.667" type="curve" smooth="yes"/>
      <point x="111.333" y="424.333" type="line"/>
      <point x="27.3333" y="433.333" type="line"/>
      <point x="27.3333" y="465.667" type="line"/>
      <point x="187.667" y="498" type="line" name="n29"/>
      <point x="247.333" y="498" type="line"/>
      <point x="166" y="115.667" type="line" smooth="yes"/>
      <point x="165.163" y="111.428"/>
      <point x="164.761" y="107.228"/>
      <point x="164.761" y="103.14" type="curve" smooth="yes"/>
      <point x="164.761" y="77.5913"/>
      <point x="182.424" y="55.3333"/>
      <point x="214.655" y="55.3333" type="curve" smooth="yes" name="n37"/>
      <point x="249.578" y="55.3333"/>
      <point x="292.887" y="81.3604"/>
      <point x="331.333" y="116.667" type="curve"/>
      <point x="408.667" y="486" type="line"/>
      <point x="528.333" y="486" type="line"/>
    </contour>
    <contour>
      <point x="481.642" y="402.175" type="line"/>
      <point x="542.089" y="428.998"/>
      <point x="605.289" y="491.606"/>
      <point x="613" y="524" type="curve" name="n46"/>
      <point x="544.667" y="524" type="line"/>
      <point x="541.264" y="529.849"/>
      <point x="530.327" y="551.097"/>
      <point x="530.329" y="574.164" type="curve" smooth="yes" name="n50"/>
      <point x="530.333" y="615.134"/>
      <point x="562.636" y="644.333"/>
      <point x="605.295" y="644.333" type="curve" smooth="yes" name="n53"/>
      <point x="649.466" y="644.333"/>
      <point x="685.324" y="612.884"/>
      <point x="685.327" y="562.767" type="curve" smooth="yes" name="n56"/>
      <point x="685.332" y="482.504"/>
      <point x="594.399" y="403.633"/>
      <point x="469.975" y="344.508" type="curve"/>
    </contour>
  </outline>
</glyph>
<glyph name="uni01B6" format="2">
  <advance width="475"/>
  <unicode hex="01B6"/>
  <outline>
    <contour>
      <point x="306" y="66" type="curve" name="n00"/>
      <point x="251.606" y="66"/>
      <point x="185.732" y="94.6667"/>
      <point x="175.333" y="94.6667" type="curve"/>
      <point x="160.93" y="84.8298"/>
      <point x="127.733" y="52.2149"/>
      <point x="118.333" y="40.3333" type="curve"/>
      <point x="121.667" y="5" type="line"/>
      <point x="121.655" y="6.57392"/>
      <point x="87.4505" y="25.7316"/>
      <point x="88" y="30.3333" type="curve" name="n10"/>
      <point x="122.677" y="59.5002"/>
      <point x="205.218" y="155.454"/>
      <point x="225" y="178.667" type="curve"/>
      <point x="153.333" y="199" type="line"/>
      <point x="157.667" y="214.581" name="hr02"/>
      <point x="166" y="246.001"/>
      <point x="172" y="251" type="curve"/>
      <point x="200.694" y="251"/>
      <point x="264.886" y="240"/>
      <point x="278.333" y="230.333" type="curve"/>
      <point x="290.38" y="217.187"/>
      <point x="308.666" y="248.883"/>
      <point x="296.667" y="260" type="curve" name="n23"/>
      <point x="268.758" y="259.038"/>
      <point x="224.419" y="269.773"/>
      <point x="202" y="269" type="curve" name="n26"/>
      <point x="177" y="281.667"/>
      <point x="159.667" y="293.333"/>
      <point x="141.333" y="290.333" type="curve" smooth="yes"/>
      <point x="131.174" y="288.78"/>
      <point x="97.3156" y="269.847"/>
      <point x="90.3333" y="258.667" type="curve"/>
      <point x="106.667" y="235" type="line"/>
      <point x="106.642" y="232.993"/>
      <point x="126.752" y="266.815"/>
      <point x="116" y="280" type="curve"/>
      <point x="82.255" y="280"/>
      <point x="53.1887" y="308"/>
      <point x="50" y="326" type="curve"/>
      <point x="50" y="370.248"/>
      <point x="103.333" y="420.682"/>
      <point x="165.333" y="424" type="curve" name="n42"/>
      <point x="219.651" y="424"/>
      <point x="285.282" y="395.333"/>
      <point x="295.667" y="395.333" type="curve"/>
      <point x="309.403" y="404.404"/>
      <point x="338.922" y="434.207"/>
      <point x="348.333" y="444.667" type="curve"/>
      <point x="337" y="480.333" type="line"/>
      <point x="340.465" y="478.988"/>
      <point x="380.104" y="458.214"/>
      <point x="382" y="452.667" type="curve" name="n52"/>
      <point x="361.681" y="435.883"/>
      <point x="275.849" y="343.827"/>
      <point x="254" y="317" type="curve"/>
      <point x="311" y="295.667" type="line"/>
      <point x="309.333" y="290.249"/>
      <point x="302" y="253.499"/>
      <point x="292.667" y="245.333" type="curve" name="n59"/>
      <point x="264.661" y="245.333"/>
      <point x="211.091" y="256.667"/>
      <point x="201" y="265" type="curve" smooth="yes"/>
      <point x="190.639" y="273.519"/>
      <point x="157.613" y="243.044"/>
      <point x="172" y="226" type="curve" name="n65"/>
      <point x="199.664" y="226.973"/>
      <point x="245.558" y="214.018"/>
      <point x="264" y="214.667" type="curve" name="n68"/>
      <point x="289.333" y="202"/>
      <point x="305" y="190.333"/>
      <point x="324.333" y="192.333" type="curve"/>
      <point x="334.391" y="194.176"/>
      <point x="367.429" y="214.698"/>
      <point x="374.333" y="227" type="curve"/>
      <point x="359.333" y="250" type="line"/>
      <point x="360.171" y="252.173"/>
      <point x="343.351" y="222.148"/>
      <point x="355" y="210" type="curve"/>
      <point x="388.814" y="210"/>
      <point x="418.102" y="182"/>
      <point x="421.333" y="164" type="curve" name="n81"/>
      <point x="421.333" y="119.052"/>
      <point x="368" y="69.3155"/>
    </contour>
  </outline>
</glyph>
<glyph name="uni01B7" format="2">
  <advance width="601"/>
  <unicode hex="01B7"/>
  <outline>
    <contour>
      <point x="601" y="598.667" type="line"/>
      <point x="298.333" y="295" type="line" name="n01"/>
      <point x="421.667" y="288.333"/>
      <point x="536" y="204"/>
      <point x="536" y="95.3333" type="curve" smooth="yes"/>
      <point x="536" y="-59.3333"/>
      <point x="375.333" y="-229"/>
      <point x="160" y="-229" type="curve" smooth="yes" name="n07"/>
      <point x="-1.33333" y="-229"/>
      <point x="-65" y="-147"/>
      <point x="-65" y="-101.333" type="curve" smooth="yes"/>
      <point x="-65" y="-55.3333"/>
      <point x="-31" y="0" name="hr01"/>
      <point x="22" y="0" type="curve" smooth="yes" name="n13"/>
      <point x="31.6667" y="0"/>
      <point x="71.3333" y="-0.666667"/>
      <point x="83" y="-12.3333" type="curve"/>
      <point x="96" y="-133" type="line"/>
      <point x="123" y="-153"/>
      <point x="157.333" y="-158.667" name="hr02"/>
      <point x="181" y="-158.667" type="curve" smooth="yes" name="n20"/>
      <point x="281.667" y="-158.667"/>
      <point x="385" y="-31.6667"/>
      <point x="385" y="93.3333" type="curve" smooth="yes"/>
      <point x="385" y="196"/>
      <point x="272" y="234"/>
      <point x="234" y="234" type="curve" smooth="yes" name="n26"/>
      <point x="216.667" y="234"/>
      <point x="209.667" y="228.333"/>
      <point x="183" y="208" type="curve"/>
      <point x="144" y="264" type="line"/>
      <point x="454" y="570" type="line"/>
      <point x="201" y="570" type="line" smooth="yes" name="n32"/>
      <point x="193.333" y="570"/>
      <point x="179.333" y="563.333"/>
      <point x="175.667" y="551" type="curve"/>
      <point x="139" y="446" type="line" name="n36"/>
      <point x="66.6667" y="446" type="line"/>
      <point x="109.667" y="671" type="line" name="n38"/>
      <point x="601" y="671" type="line"/>
    </contour>
  </outline>
</glyph>
<glyph name="uni01B8" format="2">
  <advance width="666"/>
  <unicode hex="01B8"/>
  <outline>
    <contour>
      <point x="671" y="671" type="line" name="n00"/>
      <point x="627" y="446" type="line" name="n01"/>
      <point x="556" y="446" type="line"/>
      <point x="561" y="549" type="line"/>
      <point x="561" y="561.333"/>
      <point x="551.667" y="570" name="hr01"/>
      <point x="543.333" y="570" type="curve" smooth="yes"/>
      <point x="277.667" y="570" type="line" name="n07"/>
      <point x="465" y="270.333" type="line"/>
      <point x="417.333" y="216.667" type="line"/>
      <point x="399.667" y="235.667"/>
      <point x="394" y="242"/>
      <point x="375.667" y="242" type="curve" smooth="yes" name="n12"/>
      <point x="297.333" y="242"/>
      <point x="160" y="162.333"/>
      <point x="160" y="21.6667" type="curve" smooth="yes" name="n15"/>
      <point x="160" y="-69"/>
      <point x="213.333" y="-158.667"/>
      <point x="293.667" y="-158.667" type="curve" smooth="yes" name="n18"/>
      <point x="317.667" y="-158.667"/>
      <point x="362" y="-152.667"/>
      <point x="394" y="-132.333" type="curve"/>
      <point x="430.333" y="-16" type="line"/>
      <point x="448.333" y="-3.33333"/>
      <point x="485.333" y="0.666667"/>
      <point x="499" y="0.666667" type="curve" smooth="yes"/>
      <point x="539.667" y="0.666667"/>
      <point x="565.333" y="-26.3333"/>
      <point x="565.333" y="-65.3333" type="curve" smooth="yes"/>
      <point x="565.333" y="-142"/>
      <point x="456.333" y="-229"/>
      <point x="283" y="-229" type="curve" smooth="yes" name="n31"/>
      <point x="113.333" y="-229"/>
      <point x="13.3333" y="-113"/>
      <point x="13.3333" y="13.3333" type="curve" smooth="yes" name="n34"/>
      <point x="13.3333" y="177.333"/>
      <point x="171.667" y="289.333"/>
      <point x="335.667" y="301.333" type="curve" name="n37"/>
      <point x="154.667" y="597.667" type="line"/>
      <point x="178" y="671" type="line" name="n39"/>
    </contour>
  </outline>
</glyph>
<glyph name="uni01BC" format="2">
  <advance width="615"/>
  <unicode hex="01BC"/>
  <outline>
    <contour>
      <point x="266" y="590" type="curve"/>
      <point x="240.333" y="459" type="line" name="n01"/>
      <point x="361.667" y="451.667"/>
      <point x="533" y="392.667"/>
      <point x="533" y="232.667" type="curve" smooth="yes" name="n04"/>
      <point x="533" y="74.6667"/>
      <point x="393.333" y="-16"/>
      <point x="203" y="-16" type="curve" smooth="yes" name="n07"/>
      <point x="93" y="-16"/>
      <point x="11.3333" y="34.6667"/>
      <point x="11.3333" y="96" type="curve" smooth="yes"/>
      <point x="11.3333" y="141.667"/>
      <point x="50.6667" y="168.333" name="hr01"/>
      <point x="88.6667" y="168.333" type="curve" smooth="yes" name="n13"/>
      <point x="99.6667" y="168.333"/>
      <point x="117" y="164.333"/>
      <point x="120.667" y="163.333" type="curve"/>
      <point x="138" y="75.3333" type="line"/>
      <point x="151.667" y="60.3333"/>
      <point x="192.667" y="44" name="hr02"/>
      <point x="231.667" y="44" type="curve" smooth="yes" name="n20"/>
      <point x="325.333" y="44"/>
      <point x="404.333" y="118.333"/>
      <point x="404.333" y="209.333" type="curve" smooth="yes" name="n23"/>
      <point x="404.333" y="319.333"/>
      <point x="281" y="378"/>
      <point x="121.333" y="378" type="curve" name="n26"/>
      <point x="162.333" y="590" type="line" smooth="yes"/>
      <point x="164" y="598"/>
      <point x="159.333" y="609"/>
      <point x="144.667" y="611" type="curve" name="n30"/>
      <point x="91" y="615" type="line"/>
      <point x="101.333" y="671" type="line" name="n32"/>
      <point x="619.667" y="671" type="line" name="n33"/>
      <point x="589.667" y="502.333" type="line" name="n34"/>
      <point x="523" y="502.333" type="line"/>
      <point x="525.667" y="592" type="line"/>
      <point x="525.667" y="602"/>
      <point x="519.667" y="611" name="hr04"/>
      <point x="510.667" y="611" type="curve" smooth="yes"/>
      <point x="292.333" y="611" type="line" smooth="yes"/>
      <point x="277.667" y="611"/>
      <point x="267" y="598"/>
    </contour>
  </outline>
</glyph>
<glyph name="uni01BD" format="2">
  <advance width="431"/>
  <unicode hex="01BD"/>
  <outline>
    <contour>
      <point x="326.333" y="378.667" type="curve"/>
      <point x="280.333" y="351.667" type="line"/>
      <point x="309.881" y="354.475"/>
      <point x="343.09" y="357.804"/>
      <point x="343.333" y="330.667" type="curve" name="n04"/>
      <point x="343.333" y="296.333"/>
      <point x="301" y="279.333"/>
      <point x="260.333" y="279.333" type="curve" smooth="yes" name="n07"/>
      <point x="220.776" y="279.333"/>
      <point x="149.981" y="291"/>
      <point x="137" y="310.333" type="curve"/>
      <point x="131" y="321" name="hr01"/>
      <point x="137.667" y="324.333"/>
      <point x="145" y="320.333" type="curve" name="n13"/>
      <point x="145.841" y="313.313"/>
      <point x="142.143" y="267.909"/>
      <point x="142.333" y="265.333" type="curve"/>
      <point x="213.06" y="254.916"/>
      <point x="282.345" y="195.92"/>
      <point x="283" y="128" type="curve"/>
      <point x="286" y="39.6667"/>
      <point x="207.333" y="3" name="hr02"/>
      <point x="139" y="3" type="curve" smooth="yes" name="n22"/>
      <point x="108.333" y="3"/>
      <point x="83" y="38"/>
      <point x="83" y="105" type="curve" smooth="yes" name="n25"/>
      <point x="83" y="157.667"/>
      <point x="78.6667" y="193.667" name="hr03"/>
      <point x="71.3333" y="193.667" type="curve" name="n28"/>
      <point x="77.3604" y="200.03"/>
      <point x="94.5335" y="236.033"/>
      <point x="99" y="239.333" type="curve"/>
      <point x="100.676" y="232.606"/>
      <point x="105.668" y="196.326"/>
      <point x="104.667" y="183.667" type="curve" name="n34"/>
      <point x="108.619" y="176.476"/>
      <point x="111.161" y="169.849"/>
      <point x="119" y="170" type="curve"/>
      <point x="152.759" y="172.552"/>
      <point x="178.404" y="209.093"/>
      <point x="179" y="259.333" type="curve" name="n40"/>
      <point x="194.709" y="302"/>
      <point x="225.999" y="341.333"/>
      <point x="179.667" y="341.333" type="curve"/>
      <point x="190.667" y="395" type="line"/>
      <point x="189.326" y="399"/>
      <point x="179.322" y="404.333"/>
      <point x="170.333" y="405" type="curve"/>
      <point x="142" y="424.333" type="line"/>
      <point x="143.252" y="433.43"/>
      <point x="146.593" y="459.203"/>
      <point x="145.667" y="465" type="curve"/>
      <point x="348" y="465" type="line"/>
      <point x="342.071" y="450.109"/>
      <point x="328.647" y="390.731"/>
    </contour>
  </outline>
</glyph>
<glyph name="uni01BF" format="2">
  <advance width="540"/>
  <unicode hex="01BF"/>
  <outline>
    <contour>
      <point x="184" y="-176" type="line"/>
      <point x="184" y="-218.667" type="line"/>
      <point x="-96" y="-218.667" type="line"/>
      <point x="-96" y="-176" type="line"/>
      <point x="-38.6667" y="-171" type="line" smooth="yes"/>
      <point x="-27.6667" y="-170"/>
      <point x="-21.3333" y="-163.333"/>
      <point x="-19.3333" y="-153" type="curve" smooth="yes"/>
      <point x="93.6667" y="424.333" type="line"/>
      <point x="10.3333" y="433.333" type="line"/>
      <point x="10.3333" y="465.667" type="line"/>
      <point x="170.667" y="498" type="line"/>
      <point x="228.333" y="498" type="line"/>
      <point x="216.333" y="436.667" type="line"/>
      <point x="254" y="467.667"/>
      <point x="313" y="498"/>
      <point x="373" y="498" type="curve" smooth="yes" name="n16"/>
      <point x="470.667" y="498"/>
      <point x="512" y="440.333"/>
      <point x="512" y="366.667" type="curve" smooth="yes" name="n19"/>
      <point x="512" y="158.333"/>
      <point x="289" y="-3"/>
      <point x="112.333" y="-91.6667" type="curve"/>
      <point x="100.333" y="-153" type="line"/>
      <point x="99" y="-162"/>
      <point x="101.667" y="-169.333"/>
      <point x="117" y="-170.333" type="curve" smooth="yes"/>
    </contour>
    <contour>
      <point x="202" y="361" type="curve"/>
      <point x="126" y="-22.6667" type="line"/>
      <point x="268.333" y="65.3333"/>
      <point x="382.667" y="199.333"/>
      <point x="382.667" y="347" type="curve" smooth="yes" name="n31"/>
      <point x="382.667" y="396"/>
      <point x="352.333" y="424.333"/>
      <point x="321" y="424.333" type="curve" smooth="yes" name="n34"/>
      <point x="290" y="424.333"/>
      <point x="242" y="398.667"/>
    </contour>
  </outline>
</glyph>
<glyph name="uni01C0" format="2">
  <advance width="224"/>
  <unicode hex="01C0"/>
  <outline>
    <contour>
      <point x="64.3333" y="-215" type="line" name="n00"/>
      <point x="-5" y="-215" type="line"/>
      <point x="176" y="736" type="line" name="n02"/>
      <point x="245.333" y="736" type="line"/>
    </contour>
  </outline>
</glyph>
<glyph name="uni01C2" format="2">
  <advance width="426"/>
  <unicode hex="01C2"/>
  <outline>
    <contour>
      <point x="49" y="298.667" type="line" name="n00"/>
      <point x="49" y="359.667" type="line" name="n01"/>
      <point x="417" y="359.667" type="line"/>
      <point x="417" y="298.667" type="line"/>
    </contour>
    <contour>
      <point x="20" y="161" type="line" name="n04"/>
      <point x="20" y="221.333" type="line" name="n05"/>
      <point x="387" y="221.333" type="line"/>
      <point x="387" y="161" type="line"/>
    </contour>
    <contour>
      <point x="161.667" y="-215" type="line" name="n08"/>
      <point x="93" y="-215" type="line"/>
      <point x="274" y="736" type="line" name="n10"/>
      <point x="343.333" y="736" type="line"/>
    </contour>
  </outline>
</glyph>
<glyph name="uni01C4" format="2">
  <advance width="1288"/>
  <unicode hex="01C4"/>
  <outline>
    <contour>
      <point x="681" y="414.333" type="curve" smooth="yes" name="n00"/>
      <point x="681" y="173.667"/>
      <point x="507.333" y="0"/>
      <point x="234" y="0" type="curve" smooth="yes"/>
      <point x="-15" y="0" type="line"/>
      <point x="-15" y="47.3333" type="line"/>
      <point x="9.34174" y="49.7372"/>
      <point x="45.6667" y="51.6667"/>
      <point x="45.6667" y="51.6667" type="curve"/>
      <point x="60.6667" y="52.6667"/>
      <point x="64" y="56"/>
      <point x="67" y="69.3333" type="curve"/>
      <point x="171" y="602" type="line" smooth="yes"/>
      <point x="173" y="613.667"/>
      <point x="166.333" y="617.667"/>
      <point x="152.333" y="618.667" type="curve"/>
      <point x="152.333" y="618.667"/>
      <point x="118.181" y="621.264"/>
      <point x="95" y="623.667" type="curve"/>
      <point x="95" y="671" type="line"/>
      <point x="348" y="671" type="line" smooth="yes" name="n20"/>
      <point x="546.667" y="671"/>
      <point x="681" y="600.333"/>
    </contour>
    <contour>
      <point x="545" y="423.333" type="curve" smooth="yes" name="n23"/>
      <point x="545" y="589"/>
      <point x="433.667" y="611"/>
      <point x="323.667" y="614.333" type="curve" name="n26"/>
      <point x="302.333" y="614.333" type="line"/>
      <point x="193.667" y="58.6667" type="line"/>
      <point x="252" y="58.6667" type="line"/>
      <point x="436.667" y="60.6667"/>
      <point x="545" y="232.667"/>
    </contour>
    <contour>
      <point x="1322.67" y="671" type="line"/>
      <point x="1313" y="622.667" type="line"/>
      <point x="845.333" y="59" type="line"/>
      <point x="1100" y="59" type="line" smooth="yes" name="n35"/>
      <point x="1111.33" y="59"/>
      <point x="1123.74" y="64.9785"/>
      <point x="1127" y="75.6667" type="curve"/>
      <point x="1161" y="199.667" type="line" name="n39"/>
      <point x="1239.67" y="199.667" type="line"/>
      <point x="1201.33" y="0" type="line" name="n41"/>
      <point x="678.333" y="0" type="line"/>
      <point x="688" y="47.3333" type="line"/>
      <point x="1153.67" y="612.333" type="line"/>
      <point x="937" y="612.333" type="line" smooth="yes" name="n45"/>
      <point x="925.667" y="612.333"/>
      <point x="913.667" y="607.667"/>
      <point x="910.333" y="596.667" type="curve" smooth="yes"/>
      <point x="880" y="496.667" type="line"/>
      <point x="801" y="496.667" type="line" name="n50"/>
      <point x="835.667" y="671" type="line" name="n51"/>
    </contour>
    <contour>
      <point x="1289.33" y="916.667" type="line" name="n52"/>
      <point x="1137.33" y="746" type="line"/>
      <point x="1032.33" y="746" type="line"/>
      <point x="948.333" y="916.667" type="line"/>
      <point x="1027" y="916.667" type="line"/>
      <point x="1100.67" y="823" type="line"/>
      <point x="1210.33" y="916.667" type="line"/>
    </contour>
  </outline>
</glyph>
<glyph name="uni01CC" format="2">
  <advance width="864"/>
  <unicode hex="01CC"/>
  <outline>
    <contour>
      <point x="558.333" y="22" type="line"/>
      <point x="529.333" y="8.66667"/>
      <point x="454.333" y="-12" name="n02"/>
      <point x="409.667" y="-12" type="curve" smooth="yes"/>
      <point x="372.333" y="-12"/>
      <point x="304.333" y="-3.66667"/>
      <point x="315.333" y="49.6667" type="curve" smooth="yes"/>
      <point x="376.333" y="355.333" type="line" smooth="yes"/>
      <point x="386.333" y="405.667"/>
      <point x="367" y="421.667"/>
      <point x="345.667" y="421.667" type="curve" smooth="yes" name="n10"/>
      <point x="314.333" y="421.667"/>
      <point x="256.333" y="382.333"/>
      <point x="213.667" y="338" type="curve"/>
      <point x="143.333" y="0" type="line" name="n14"/>
      <point x="23.6667" y="0" type="line"/>
      <point x="111.333" y="425" type="line"/>
      <point x="27.3333" y="433.333" type="line"/>
      <point x="27.3333" y="465.667" type="line"/>
      <point x="187" y="498" type="line"/>
      <point x="246.333" y="498" type="line"/>
      <point x="232" y="428.333" type="line"/>
      <point x="279.333" y="465.333"/>
      <point x="344.333" y="498"/>
      <point x="401.333" y="498" type="curve" smooth="yes" name="n24"/>
      <point x="492.333" y="498"/>
      <point x="519.667" y="454.667"/>
      <point x="503.667" y="368" type="curve" smooth="yes"/>
      <point x="450" y="86.6667" type="line" smooth="yes"/>
      <point x="443.667" y="52"/>
      <point x="469.667" y="46.6667"/>
      <point x="480.333" y="46.6667" type="curve" smooth="yes"/>
      <point x="500.333" y="46.6667"/>
      <point x="529" y="54.6667"/>
      <point x="556.667" y="65.6667" type="curve"/>
    </contour>
    <contour>
      <point x="858" y="655.667" type="curve" smooth="yes" name="n35"/>
      <point x="858" y="619"/>
      <point x="825.667" y="585"/>
      <point x="784.667" y="585" type="curve" smooth="yes" name="n38"/>
      <point x="744" y="585"/>
      <point x="712.667" y="616.333"/>
      <point x="712.667" y="655.667" type="curve" smooth="yes" name="n41"/>
      <point x="712.667" y="694.333"/>
      <point x="742" y="726"/>
      <point x="784.667" y="726" type="curve" smooth="yes" name="n44"/>
      <point x="826.667" y="726"/>
      <point x="858" y="694.333"/>
    </contour>
    <contour>
      <point x="822.333" y="498" type="line"/>
      <point x="751.333" y="82.6667" type="line" smooth="yes"/>
      <point x="733.667" y="-18"/>
      <point x="650" y="-229" name="n50"/>
      <point x="513.333" y="-229" type="curve" smooth="yes"/>
      <point x="468" y="-229"/>
      <point x="433" y="-204.667"/>
      <point x="433" y="-172.667" type="curve" smooth="yes"/>
      <point x="433" y="-147.667"/>
      <point x="451" y="-133.667"/>
      <point x="469.667" y="-121.667" type="curve"/>
      <point x="566.333" y="-147.333" type="line"/>
      <point x="584.667" y="-121.667"/>
      <point x="606.667" y="-59"/>
      <point x="616" y="-8" type="curve" smooth="yes"/>
      <point x="690.333" y="423" type="line"/>
      <point x="605" y="432" type="line"/>
      <point x="605" y="465.667" type="line"/>
      <point x="766" y="498" type="line"/>
    </contour>
  </outline>
</glyph>
<glyph name="uni01DC" format="2">
  <advance width="558"/>
  <unicode hex="01DC"/>
  <outline>
    <contour>
      <point x="556" y="26.6667" type="line"/>
      <point x="529.667" y="12"/>
      <point x="457.667" y="-12"/>
      <point x="405.333" y="-12" type="curve" smooth="yes"/>
      <point x="334.333" y="-12"/>
      <point x="329" y="29.6667"/>
      <point x="327" y="44.3333" type="curve"/>
      <point x="280.333" y="7.66667"/>
      <point x="228" y="-12"/>
      <point x="162.333" y="-12" type="curve" smooth="yes" name="n09"/>
      <point x="65.3333" y="-12"/>
      <point x="34.6667" y="62.3333"/>
      <point x="46.3333" y="115.667" type="curve" smooth="yes"/>
      <point x="111.333" y="424.333" type="line"/>
      <point x="27.3333" y="433.333" type="line"/>
      <point x="27.3333" y="465.667" type="line"/>
      <point x="187.667" y="498" type="line" name="n16"/>
      <point x="247.333" y="498" type="line"/>
      <point x="166" y="115.667" type="line" smooth="yes"/>
      <point x="159.667" y="83.6667"/>
      <point x="180" y="55.3333"/>
      <point x="205.333" y="55.3333" type="curve" smooth="yes" name="n21"/>
      <point x="251.333" y="55.3333"/>
      <point x="294.667" y="83"/>
      <point x="331.333" y="116.667" type="curve"/>
      <point x="408.667" y="486" type="line"/>
      <point x="528.333" y="486" type="line"/>
      <point x="447" y="99" type="line" smooth="yes"/>
      <point x="438.667" y="60.6667"/>
      <point x="457.667" y="45.6667"/>
      <point x="479" y="45.6667" type="curve" smooth="yes"/>
      <point x="490" y="45.6667"/>
      <point x="506" y="49"/>
      <point x="556" y="75.6667" type="curve"/>
    </contour>
    <contour>
      <point x="537" y="649.667" type="curve" smooth="yes" name="n34"/>
      <point x="537" y="614.333"/>
      <point x="508.333" y="585"/>
      <point x="473" y="585" type="curve" smooth="yes" name="n37"/>
      <point x="437.667" y="585"/>
      <point x="409.333" y="614.333"/>
      <point x="409.333" y="649.667" type="curve" smooth="yes" name="n40"/>
      <point x="409.333" y="684.333"/>
      <point x="438.333" y="714"/>
      <point x="473" y="714" type="curve" smooth="yes" name="n43"/>
      <point x="508.333" y="714"/>
      <point x="537" y="685"/>
    </contour>
    <contour>
      <point x="328" y="649.667" type="curve" smooth="yes" name="n46"/>
      <point x="328" y="614.333"/>
      <point x="299" y="585"/>
      <point x="263.667" y="585" type="curve" smooth="yes"/>
      <point x="228.667" y="585"/>
      <point x="199.667" y="614.333"/>
      <point x="199.667" y="649.333" type="curve" smooth="yes" name="n52"/>
      <point x="199.667" y="684.333"/>
      <point x="228.667" y="714"/>
      <point x="263.667" y="714" type="curve" smooth="yes"/>
      <point x="299" y="714"/>
      <point x="328" y="685"/>
    </contour>
    <contour>
      <point x="475.667" y="746" type="line"/>
      <point x="408.333" y="746" type="line"/>
      <point x="252" y="836.333" type="line" smooth="yes"/>
      <point x="238" y="844.667"/>
      <point x="227.667" y="863"/>
      <point x="227.667" y="878.333" type="curve" smooth="yes"/>
      <point x="227.667" y="901"/>
      <point x="240.333" y="928.333" name="n65"/>
      <point x="280.667" y="928.333" type="curve" smooth="yes"/>
      <point x="308" y="928.333"/>
      <point x="320.667" y="920"/>
      <point x="340" y="898.667" type="curve" smooth="yes"/>
    </contour>
  </outline>
</glyph>
<glyph name="uni01E0" format="2">
  <advance width="700"/>
  <unicode hex="01E0"/>
  <outline>
    <contour>
      <point x="654" y="0" type="line" name="n00"/>
      <point x="391" y="0" type="line"/>
      <point x="391" y="47.3333" type="line"/>
      <point x="408.495" y="49.0466"/>
      <point x="437" y="52.3333"/>
      <point x="437" y="52.3333" type="curve"/>
      <point x="450.667" y="53.6667"/>
      <point x="457.912" y="56.985"/>
      <point x="456" y="68.6667" type="curve" smooth="yes"/>
      <point x="426.667" y="254.333" type="line" name="n09"/>
      <point x="225" y="254.333" type="line"/>
      <point x="125" y="68.6667" type="line"/>
      <point x="118.667" y="57.6667"/>
      <point x="125" y="53.6667"/>
      <point x="140" y="52.3333" type="curve"/>
      <point x="140" y="52.3333"/>
      <point x="169.653" y="49.0667"/>
      <point x="190" y="47.3333" type="curve"/>
      <point x="190" y="0" type="line"/>
      <point x="-53" y="0" type="line"/>
      <point x="-53" y="47.3333" type="line"/>
      <point x="4.33333" y="53.3333" type="line"/>
      <point x="374" y="687" type="line" name="n22"/>
      <point x="479.333" y="687" type="line"/>
      <point x="588" y="69.3333" type="line" smooth="yes"/>
      <point x="590" y="56.3333"/>
      <point x="593.333" y="53.3333"/>
      <point x="608" y="51.6667" type="curve"/>
      <point x="608" y="51.6667"/>
      <point x="635.665" y="49.0654"/>
      <point x="654" y="47.3333" type="curve"/>
    </contour>
    <contour>
      <point x="416.333" y="308" type="line" name="n31"/>
      <point x="380" y="524" type="line"/>
      <point x="256" y="308" type="line"/>
    </contour>
    <contour>
      <point x="632.333" y="1052" type="line" name="n34"/>
      <point x="618" y="977" type="line" name="n35"/>
      <point x="290" y="977" type="line"/>
      <point x="305.333" y="1052" type="line"/>
    </contour>
    <contour>
      <point x="503.667" y="844" type="curve" smooth="yes" name="n38"/>
      <point x="503.667" y="809"/>
      <point x="476" y="780"/>
      <point x="440.333" y="780" type="curve" smooth="yes" name="n41"/>
      <point x="404" y="780"/>
      <point x="376.333" y="807.667"/>
      <point x="376.333" y="844" type="curve" smooth="yes" name="n44"/>
      <point x="376.333" y="881"/>
      <point x="402.333" y="912"/>
      <point x="439.667" y="912" type="curve" smooth="yes" name="n47"/>
      <point x="476" y="912"/>
      <point x="503.667" y="882"/>
    </contour>
  </outline>
</glyph>
<glyph name="uni01E4" format="2">
  <advance width="715"/>
  <unicode hex="01E4"/>
  <outline>
    <contour>
      <point x="692" y="153.333" type="line" name="n00"/>
      <point x="600.333" y="153.333" type="line"/>
      <point x="575.333" y="25" type="line"/>
      <point x="531.333" y="12.6667"/>
      <point x="430.333" y="-16"/>
      <point x="346" y="-16" type="curve" smooth="yes" name="n05"/>
      <point x="100" y="-16"/>
      <point x="48" y="160.667"/>
      <point x="48" y="268.667" type="curve" smooth="yes" name="n08"/>
      <point x="48" y="520"/>
      <point x="260.667" y="687"/>
      <point x="493" y="687" type="curve" smooth="yes" name="n11"/>
      <point x="565.333" y="687"/>
      <point x="613.333" y="675.667"/>
      <point x="693" y="651" type="curve"/>
      <point x="658" y="476" type="line"/>
      <point x="578.667" y="476" type="line"/>
      <point x="585.667" y="582" type="line" smooth="yes"/>
      <point x="586.667" y="595"/>
      <point x="575.333" y="604.333"/>
      <point x="562" y="606.667" type="curve"/>
      <point x="552.333" y="612"/>
      <point x="517.667" y="626.333"/>
      <point x="481" y="626.333" type="curve" smooth="yes" name="n23"/>
      <point x="349" y="626.333"/>
      <point x="186" y="484.333"/>
      <point x="186" y="253.333" type="curve" smooth="yes" name="n26"/>
      <point x="186" y="91.6667"/>
      <point x="311.333" y="43.6667"/>
      <point x="366" y="43.6667" type="curve" smooth="yes" name="n29"/>
      <point x="396.667" y="43.6667"/>
      <point x="435.667" y="54"/>
      <point x="453" y="58.6667" type="curve"/>
      <point x="471.333" y="153.333" type="line"/>
      <point x="343.333" y="153.333" type="line"/>
      <point x="343.333" y="207.333" type="line"/>
      <point x="481.667" y="207.333" type="line"/>
      <point x="492" y="258.667" type="line"/>
      <point x="494" y="270.333"/>
      <point x="489.333" y="274.667"/>
      <point x="472.667" y="275.667" type="curve"/>
      <point x="472.667" y="275.667"/>
      <point x="439.42" y="278.265"/>
      <point x="417" y="280" type="curve"/>
      <point x="417" y="328" type="line" name="hr01"/>
      <point x="703" y="328" type="line" name="n45"/>
      <point x="703" y="280" type="line"/>
      <point x="638.667" y="275" type="line" smooth="yes"/>
      <point x="628.333" y="274"/>
      <point x="623.333" y="269"/>
      <point x="621" y="258.667" type="curve"/>
      <point x="611" y="207.333" type="line" name="hr02"/>
      <point x="692" y="207.333" type="line" name="n52"/>
    </contour>
  </outline>
</glyph>
<glyph name="uni01E5" format="2">
  <advance width="531"/>
  <unicode hex="01E5"/>
  <outline>
    <contour>
      <point x="527.667" y="-102.667" type="line" name="n00"/>
      <point x="481" y="-102.667" type="line"/>
      <point x="450.667" y="-172"/>
      <point x="342.333" y="-229"/>
      <point x="221.333" y="-229" type="curve" smooth="yes" name="n04"/>
      <point x="87" y="-229"/>
      <point x="26.3333" y="-167.667"/>
      <point x="15.6667" y="-102.667" type="curve"/>
      <point x="-22" y="-102.667" type="line"/>
      <point x="-22" y="-49.3333" type="line"/>
      <point x="18.6667" y="-49.3333" type="line"/>
      <point x="33.3333" y="2"/>
      <point x="85" y="37.3333"/>
      <point x="147.667" y="59" type="curve"/>
      <point x="142.333" y="90"/>
      <point x="159.667" y="145"/>
      <point x="186" y="172" type="curve"/>
      <point x="133" y="196.333"/>
      <point x="93.3333" y="233.333"/>
      <point x="93.3333" y="296.667" type="curve" smooth="yes" name="n19"/>
      <point x="93.3333" y="391"/>
      <point x="165.333" y="498"/>
      <point x="311" y="498" type="curve" smooth="yes" name="n22"/>
      <point x="360.333" y="498"/>
      <point x="402.667" y="480.333"/>
      <point x="419.333" y="472.667" type="curve" name="hr01"/>
      <point x="562" y="472.667" type="line" name="n26"/>
      <point x="562" y="418.333" type="line" name="n27"/>
      <point x="470" y="418.333" type="line"/>
      <point x="476" y="403.333"/>
      <point x="481.333" y="379.667"/>
      <point x="481.333" y="354.667" type="curve" smooth="yes" name="n31"/>
      <point x="481.333" y="246.333"/>
      <point x="396.667" y="161"/>
      <point x="261.333" y="160.333" type="curve" name="n34"/>
      <point x="253.667" y="141"/>
      <point x="249.333" y="117.333"/>
      <point x="251.667" y="106.333" type="curve"/>
      <point x="385" y="46" type="line" smooth="yes"/>
      <point x="442.333" y="21"/>
      <point x="482" y="-2"/>
      <point x="488.667" y="-49.3333" type="curve"/>
      <point x="527.667" y="-49.3333" type="line" name="n42"/>
    </contour>
    <contour>
      <point x="357.667" y="359.667" type="curve" smooth="yes" name="n43"/>
      <point x="357.667" y="407.333"/>
      <point x="351.667" y="449.333" name="hr02"/>
      <point x="313" y="449.333" type="curve" smooth="yes" name="n46"/>
      <point x="282.333" y="449.333"/>
      <point x="217.667" y="381"/>
      <point x="217.667" y="284.333" type="curve" smooth="yes" name="n49"/>
      <point x="217.667" y="237.667"/>
      <point x="227.667" y="204"/>
      <point x="261.333" y="204" type="curve" smooth="yes" name="n52"/>
      <point x="327.667" y="204"/>
      <point x="357.667" y="298"/>
    </contour>
    <contour>
      <point x="247.333" y="-176.333" type="curve" smooth="yes" name="n55"/>
      <point x="324.667" y="-176.333"/>
      <point x="357.667" y="-134.667"/>
      <point x="366.333" y="-102.667" type="curve"/>
      <point x="142.333" y="-102.667" type="line"/>
      <point x="154.667" y="-139.667"/>
      <point x="187" y="-176.333"/>
    </contour>
    <contour>
      <point x="202.667" y="27.6667" type="line"/>
      <point x="158" y="13"/>
      <point x="140.333" y="-16.6667"/>
      <point x="136.667" y="-49.3333" type="curve"/>
      <point x="356" y="-49.3333" type="line"/>
      <point x="348" y="-40"/>
      <point x="336" y="-31.6667"/>
      <point x="319" y="-24" type="curve" smooth="yes"/>
    </contour>
  </outline>
</glyph>
<glyph name="uni01F3" format="2">
  <advance width="1028"/>
  <unicode hex="01F3"/>
  <outline>
    <contour>
      <point x="556.333" y="737" type="line" name="n00"/>
      <point x="441.667" y="88.6667" type="line" smooth="yes"/>
      <point x="435.502" y="54.3027"/>
      <point x="456" y="46"/>
      <point x="464.333" y="46" type="curve" smooth="yes"/>
      <point x="486.333" y="46"/>
      <point x="532.667" y="64.3333"/>
      <point x="550.333" y="72.3333" type="curve"/>
      <point x="550.333" y="27.3333" type="line"/>
      <point x="522.333" y="12"/>
      <point x="453.667" y="-12"/>
      <point x="405.333" y="-12" type="curve" smooth="yes"/>
      <point x="351.667" y="-12"/>
      <point x="327.667" y="10.3333"/>
      <point x="320.333" y="45" type="curve"/>
      <point x="284.667" y="14.6667"/>
      <point x="236.333" y="-12"/>
      <point x="189" y="-12" type="curve" smooth="yes" name="n17"/>
      <point x="74.3333" y="-12"/>
      <point x="32" y="83"/>
      <point x="32" y="168.333" type="curve" smooth="yes" name="n20"/>
      <point x="32" y="323.333"/>
      <point x="134.667" y="498"/>
      <point x="328.333" y="498" type="curve" smooth="yes" name="n23"/>
      <point x="355" y="498"/>
      <point x="377.667" y="488.333"/>
      <point x="392" y="483.667" type="curve"/>
      <point x="423.333" y="663.333" type="line"/>
      <point x="333" y="671.667" type="line"/>
      <point x="333" y="705.667" type="line"/>
      <point x="497.333" y="737" type="line"/>
    </contour>
    <contour>
      <point x="376" y="394" type="line" smooth="yes"/>
      <point x="377" y="399.333"/>
      <point x="351" y="445" name="hr01"/>
      <point x="326.333" y="445" type="curve" smooth="yes" name="n34"/>
      <point x="247.333" y="445"/>
      <point x="156.333" y="332.333"/>
      <point x="156.333" y="174.333" type="curve" smooth="yes" name="n37"/>
      <point x="156.333" y="91.6667"/>
      <point x="182.667" y="55.6667"/>
      <point x="220.333" y="55.6667" type="curve" smooth="yes" name="n40"/>
      <point x="255" y="55.6667"/>
      <point x="295.333" y="93.6667"/>
      <point x="330" y="133.667" type="curve"/>
    </contour>
    <contour>
      <point x="1034.67" y="469.333" type="line"/>
      <point x="701.667" y="85" type="line"/>
      <point x="771.667" y="101" type="line"/>
      <point x="804.667" y="85"/>
      <point x="833.667" y="68.3333"/>
      <point x="858" y="68.3333" type="curve" smooth="yes"/>
      <point x="876.667" y="68.3333"/>
      <point x="908.667" y="84"/>
      <point x="918.333" y="98.6667" type="curve"/>
      <point x="860" y="161.667" type="line"/>
      <point x="869" y="176.333"/>
      <point x="902" y="199.667"/>
      <point x="930" y="199.667" type="curve" smooth="yes"/>
      <point x="970.667" y="199.667"/>
      <point x="990.333" y="157.333"/>
      <point x="990.333" y="129.667" type="curve" smooth="yes"/>
      <point x="990.333" y="60"/>
      <point x="910.333" y="-11.3333"/>
      <point x="826.667" y="-11.3333" type="curve" smooth="yes"/>
      <point x="761" y="-11.3333"/>
      <point x="707.667" y="31"/>
      <point x="682.667" y="31" type="curve" smooth="yes"/>
      <point x="675" y="31"/>
      <point x="665.667" y="30.6667"/>
      <point x="660" y="23.6667" type="curve"/>
      <point x="627" y="-34.6667" type="line"/>
      <point x="536.667" y="14.3333" type="line"/>
      <point x="869.667" y="400" type="line"/>
      <point x="798.333" y="385" type="line"/>
      <point x="766" y="402.667"/>
      <point x="742.333" y="416" name="hr02"/>
      <point x="718" y="416" type="curve" smooth="yes" name="n75"/>
      <point x="703" y="416"/>
      <point x="667" y="403"/>
      <point x="657.333" y="387" type="curve"/>
      <point x="714.333" y="323.667" type="line"/>
      <point x="708.667" y="313.667"/>
      <point x="676.667" y="286.667" name="hr03"/>
      <point x="645.333" y="286.667" type="curve" smooth="yes" name="n82"/>
      <point x="604" y="286.667"/>
      <point x="585.667" y="329.333"/>
      <point x="585.667" y="355.667" type="curve" smooth="yes"/>
      <point x="585.667" y="418.667"/>
      <point x="656.667" y="498"/>
      <point x="748" y="498" type="curve" smooth="yes" name="n88"/>
      <point x="813.333" y="498"/>
      <point x="867.333" y="452.667"/>
      <point x="889.333" y="452.667" type="curve" smooth="yes"/>
      <point x="896.667" y="452.667"/>
      <point x="903.667" y="453.667"/>
      <point x="911" y="459" type="curve"/>
      <point x="936.333" y="519.667" type="line"/>
    </contour>
  </outline>
</glyph>
<glyph name="uni021C" format="2">
  <advance width="544"/>
  <unicode hex="021C"/>
  <outline>
    <contour>
      <point x="531" y="527.333" type="curve" smooth="yes" name="n00"/>
      <point x="531" y="447.667"/>
      <point x="468.667" y="380.333"/>
      <point x="364.333" y="323.333" type="curve"/>
      <point x="432.333" y="304"/>
      <point x="485.333" y="256" name="hr01"/>
      <point x="485.333" y="176" type="curve" smooth="yes" name="n06"/>
      <point x="485.333" y="15.3333"/>
      <point x="207.333" y="-114"/>
      <point x="-21" y="-161" type="curve"/>
      <point x="-8.33333" y="-94.6667" type="line"/>
      <point x="167.667" y="-47.6667"/>
      <point x="340.333" y="43"/>
      <point x="340.333" y="168" type="curve" smooth="yes" name="n13"/>
      <point x="340.333" y="233.333"/>
      <point x="309.667" y="272.333"/>
      <point x="274" y="280" type="curve"/>
      <point x="227.667" y="260.333"/>
      <point x="175.667" y="243.333"/>
      <point x="119.667" y="227" type="curve"/>
      <point x="132.667" y="292" type="line"/>
      <point x="265.333" y="332"/>
      <point x="393.667" y="407" name="hr02"/>
      <point x="393.667" y="522" type="curve" smooth="yes" name="n23"/>
      <point x="393.667" y="601.333"/>
      <point x="346" y="626.667"/>
      <point x="304.333" y="626.667" type="curve" smooth="yes" name="n26"/>
      <point x="253" y="626.667"/>
      <point x="217.333" y="613.667"/>
      <point x="177" y="587.333" type="curve"/>
      <point x="140" y="493.333" type="line"/>
      <point x="69.6667" y="493.333" type="line"/>
      <point x="97.6667" y="637" type="line"/>
      <point x="193.667" y="679"/>
      <point x="270.667" y="687"/>
      <point x="338" y="687" type="curve" smooth="yes" name="n35"/>
      <point x="438.333" y="687"/>
      <point x="531" y="639.333"/>
    </contour>
  </outline>
</glyph>
<glyph name="hcaron" format="2">
  <advance width="550"/>
  <unicode hex="021F"/>
  <outline>
    <contour>
      <point x="549.333" y="27" type="line"/>
      <point x="510.333" y="9"/>
      <point x="451.333" y="-12" name="n02"/>
      <point x="402" y="-12" type="curve" smooth="yes"/>
      <point x="362.667" y="-12"/>
      <point x="304.667" y="3.66667"/>
      <point x="315.667" y="56.3333" type="curve" smooth="yes"/>
      <point x="376" y="348.667" type="line" smooth="yes"/>
      <point x="386.333" y="398.333"/>
      <point x="355.667" y="425.333"/>
      <point x="335" y="425.333" type="curve" smooth="yes" name="n10"/>
      <point x="304.333" y="425.333"/>
      <point x="251.667" y="393.333"/>
      <point x="209.667" y="350" type="curve"/>
      <point x="136.667" y="0" type="line" name="n14"/>
      <point x="17.3333" y="0" type="line"/>
      <point x="155.333" y="663.333" type="line"/>
      <point x="67" y="671.667" type="line"/>
      <point x="67" y="705.667" type="line"/>
      <point x="231.667" y="737" type="line"/>
      <point x="291" y="737" type="line"/>
      <point x="228.667" y="440.667" type="line"/>
      <point x="269" y="472.333"/>
      <point x="328.333" y="498"/>
      <point x="390" y="498" type="curve" smooth="yes" name="n24"/>
      <point x="481" y="498"/>
      <point x="516" y="445"/>
      <point x="498.333" y="359" type="curve" smooth="yes"/>
      <point x="442.667" y="92.6667" type="line" smooth="yes"/>
      <point x="435.333" y="58"/>
      <point x="460.667" y="47"/>
      <point x="472" y="47" type="curve" smooth="yes"/>
      <point x="497.333" y="47"/>
      <point x="520.667" y="58.3333"/>
      <point x="548.333" y="72" type="curve"/>
    </contour>
    <contour>
      <point x="586.667" y="936.333" type="line" name="n35"/>
      <point x="434.667" y="766" type="line"/>
      <point x="329.667" y="766" type="line"/>
      <point x="244.667" y="936.333" type="line"/>
      <point x="323.667" y="936.333" type="line"/>
      <point x="398" y="843" type="line"/>
      <point x="507.333" y="936.333" type="line"/>
    </contour>
  </outline>
</glyph>
<glyph name="uni0222" format="2">
  <advance width="630"/>
  <unicode hex="0222"/>
  <outline>
    <contour>
      <point x="484" y="419" type="curve" name="n00"/>
      <point x="539.333" y="375.667"/>
      <point x="554.667" y="316.333"/>
      <point x="528" y="251" type="curve"/>
      <point x="554" y="157"/>
      <point x="468" y="87.6667"/>
      <point x="369.333" y="59.3333" type="curve" name="n06"/>
      <point x="280.667" y="15.6667"/>
      <point x="164.333" y="29.3333"/>
      <point x="118" y="100.667" type="curve" name="n09"/>
      <point x="76.6667" y="180.667"/>
      <point x="120.667" y="244"/>
      <point x="196" y="286.667" type="curve" name="n12"/>
      <point x="154.667" y="331.667"/>
      <point x="142.667" y="385.667"/>
      <point x="177.667" y="449.667" type="curve"/>
      <point x="158.333" y="542"/>
      <point x="237.333" y="591.667"/>
      <point x="323.333" y="619" type="curve" name="n18"/>
      <point x="398" y="662.333"/>
      <point x="508" y="645.667"/>
      <point x="548" y="582.333" type="curve" name="n21"/>
      <point x="582.667" y="509"/>
      <point x="540.667" y="457.667"/>
    </contour>
    <contour>
      <point x="446.667" y="565.333" type="curve" name="n24"/>
      <point x="420" y="604"/>
      <point x="378" y="616.333"/>
      <point x="347.333" y="585" type="curve" name="n27"/>
      <point x="309.333" y="567.333"/>
      <point x="279.333" y="517"/>
      <point x="299.667" y="458.333" type="curve" name="n30"/>
      <point x="327.667" y="419.667"/>
      <point x="362.667" y="411"/>
      <point x="394" y="437.667" type="curve" name="n33"/>
      <point x="440" y="457"/>
      <point x="464.333" y="515.333"/>
    </contour>
    <contour>
      <point x="287.333" y="39.3333" type="curve" smooth="yes" name="n36"/>
      <point x="369.667" y="39.3333"/>
      <point x="434.333" y="115"/>
      <point x="434.333" y="208.667" type="curve" smooth="yes" name="n39"/>
      <point x="434.333" y="277.333"/>
      <point x="392.667" y="331.333"/>
      <point x="333.333" y="331.333" type="curve" smooth="yes" name="n42"/>
      <point x="247.333" y="331.333"/>
      <point x="188.667" y="249"/>
      <point x="188.667" y="156.333" type="curve" smooth="yes" name="n45"/>
      <point x="188.667" y="89.3333"/>
      <point x="225.667" y="39.3333"/>
    </contour>
  </outline>
</glyph>
<glyph name="uni0223" format="2">
  <advance width="573"/>
  <unicode hex="0223"/>
  <outline>
    <contour>
      <point x="369" y="737" type="curve" smooth="yes" name="n00"/>
      <point x="467.333" y="737"/>
      <point x="542.333" y="676.333"/>
      <point x="542.333" y="582.333" type="curve" smooth="yes" name="n03"/>
      <point x="542.333" y="469.667"/>
      <point x="444.333" y="395"/>
      <point x="363.667" y="383" type="curve"/>
      <point x="436.333" y="365"/>
      <point x="498.667" y="312" name="hr01"/>
      <point x="498.667" y="225" type="curve" smooth="yes" name="n09"/>
      <point x="498.667" y="85"/>
      <point x="364" y="-12"/>
      <point x="226.333" y="-12" type="curve" smooth="yes" name="n12"/>
      <point x="109.333" y="-12"/>
      <point x="31.6667" y="53.6667"/>
      <point x="31.6667" y="155.333" type="curve" smooth="yes" name="n15"/>
      <point x="31.6667" y="279"/>
      <point x="133.333" y="365"/>
      <point x="240" y="383" type="curve"/>
      <point x="185.333" y="392"/>
      <point x="123.333" y="435.667" name="hr02"/>
      <point x="123.333" y="518.333" type="curve" smooth="yes" name="n21"/>
      <point x="123.333" y="656"/>
      <point x="247.667" y="737"/>
    </contour>
    <contour>
      <point x="392.667" y="613.667" type="curve" name="n24"/>
      <point x="365" y="655.667"/>
      <point x="339.333" y="654.667"/>
      <point x="310" y="628.667" type="curve" name="n27"/>
      <point x="276.667" y="610.667"/>
      <point x="256" y="547"/>
      <point x="272" y="486.333" type="curve" name="n30"/>
      <point x="296.667" y="447.667"/>
      <point x="325.333" y="439.333"/>
      <point x="350.667" y="469.333" type="curve" name="n33"/>
      <point x="384.667" y="489"/>
      <point x="408" y="551.667"/>
    </contour>
    <contour>
      <point x="239.667" y="41" type="curve" smooth="yes" name="n36"/>
      <point x="312" y="41"/>
      <point x="367.667" y="121"/>
      <point x="367.667" y="230" type="curve" smooth="yes" name="n39"/>
      <point x="367.667" y="303.667" name="hr03"/>
      <point x="336.667" y="356"/>
      <point x="292" y="356" type="curve" smooth="yes" name="n42"/>
      <point x="220" y="356"/>
      <point x="162.667" y="268.667"/>
      <point x="162.667" y="163" type="curve" smooth="yes" name="n45"/>
      <point x="162.667" y="96.6667"/>
      <point x="194.333" y="41"/>
    </contour>
  </outline>
</glyph>
<glyph name="uni0224" format="2">
  <advance width="590"/>
  <unicode hex="0224"/>
  <outline>
    <contour>
      <point x="463.667" y="465" type="line"/>
      <point x="589" y="431.667" type="line" name="n01"/>
      <point x="544.505" y="374.092"/>
      <point x="337.214" y="121.366"/>
      <point x="279.667" y="48.3333" type="curve" name="n04"/>
      <point x="316.776" y="27"/>
      <point x="465.981" y="8.33333"/>
      <point x="496" y="-11.6667" type="curve" name="n07"/>
      <point x="498.937" y="-15.6667"/>
      <point x="496.006" y="-26.3333"/>
      <point x="493" y="-42.3333" type="curve"/>
      <point x="504.667" y="-74.6667"/>
      <point x="466.667" y="-106.667" name="hr02"/>
      <point x="437.333" y="-114.667" type="curve" name="n13"/>
      <point x="430.605" y="-111"/>
      <point x="408.103" y="-108"/>
      <point x="403" y="-106" type="curve" name="n16"/>
      <point x="400.116" y="-86.6667"/>
      <point x="319.307" y="-48"/>
      <point x="296.667" y="-17.3333" type="curve"/>
      <point x="297.279" y="-7.00843"/>
      <point x="298.644" y="9.59194"/>
      <point x="296.333" y="14.6667" type="curve"/>
      <point x="138.667" y="206.333" type="line"/>
      <point x="67.3333" y="239" type="line" name="n24"/>
      <point x="127.597" y="317.364"/>
      <point x="306.918" y="534.2"/>
      <point x="368.667" y="606" type="curve"/>
      <point x="221" y="576.667" type="line"/>
      <point x="210.882" y="576.667"/>
      <point x="185.718" y="574"/>
      <point x="179.333" y="567.333" type="curve" name="n31"/>
      <point x="168.667" y="549.667" type="line" name="n32"/>
      <point x="265.667" y="549.667" type="line"/>
      <point x="286.667" y="656" type="line"/>
    </contour>
  </outline>
</glyph>
<glyph name="uni0225" format="2">
  <advance width="475"/>
  <unicode hex="0225"/>
  <outline>
    <contour>
      <point x="482" y="469.333" type="line"/>
      <point x="149" y="85" type="line"/>
      <point x="219" y="101" type="line"/>
      <point x="252" y="85"/>
      <point x="272" y="69.6667"/>
      <point x="296.333" y="69.6667" type="curve" smooth="yes" name="n05"/>
      <point x="316.333" y="69.6667"/>
      <point x="341.333" y="84.3333"/>
      <point x="352" y="101.333" type="curve"/>
      <point x="419.667" y="117.333" type="line"/>
      <point x="432" y="99.6667"/>
      <point x="438.333" y="71"/>
      <point x="438.333" y="42" type="curve" smooth="yes" name="n12"/>
      <point x="438.333" y="-13.3333"/>
      <point x="398" y="-90.6667"/>
      <point x="329.333" y="-143.333" type="curve" name="n15"/>
      <point x="281.667" y="-143.333" type="line"/>
      <point x="323.667" y="-104"/>
      <point x="349" y="-54.6667"/>
      <point x="349" y="-17" type="curve" smooth="yes" name="n19"/>
      <point x="349" y="-6.66667"/>
      <point x="345.667" y="2.33333"/>
      <point x="343.667" y="10" type="curve"/>
      <point x="321" y="-2.66667"/>
      <point x="294.667" y="-11.3333"/>
      <point x="269.333" y="-11.3333" type="curve" smooth="yes" name="n25"/>
      <point x="206.333" y="-11.3333"/>
      <point x="156.333" y="31"/>
      <point x="130" y="31" type="curve" smooth="yes"/>
      <point x="122.333" y="31"/>
      <point x="113" y="30.6667"/>
      <point x="107.333" y="23.6667" type="curve"/>
      <point x="74.3333" y="-34.6667" type="line"/>
      <point x="-16" y="14.3333" type="line"/>
      <point x="317" y="400" type="line"/>
      <point x="245.667" y="385" type="line"/>
      <point x="213.333" y="402.667"/>
      <point x="189.667" y="416"/>
      <point x="165.333" y="416" type="curve" smooth="yes" name="n38"/>
      <point x="150.333" y="416"/>
      <point x="114.333" y="403"/>
      <point x="104.667" y="387" type="curve"/>
      <point x="161.667" y="323.667" type="line"/>
      <point x="156" y="313.667"/>
      <point x="124" y="286.667" name="hr01"/>
      <point x="92.6667" y="286.667" type="curve" smooth="yes" name="n45"/>
      <point x="51.3333" y="286.667"/>
      <point x="33" y="329.333"/>
      <point x="33" y="355.667" type="curve" smooth="yes"/>
      <point x="33" y="418.667"/>
      <point x="104" y="498"/>
      <point x="195.333" y="498" type="curve" smooth="yes" name="n51"/>
      <point x="260.333" y="498"/>
      <point x="315.667" y="452.667"/>
      <point x="336.667" y="452.667" type="curve" smooth="yes"/>
      <point x="344" y="452.667"/>
      <point x="351" y="453.667"/>
      <point x="358.333" y="459" type="curve"/>
      <point x="383.667" y="519.667" type="line"/>
    </contour>
  </outline>
</glyph>
<glyph name="uni0235" format="2">
  <advance width="601"/>
  <unicode hex="0235"/>
  <outline>
    <contour>
      <point x="615.667" y="125.667" type="curve" smooth="yes" name="n00"/>
      <point x="615.667" y="48.3333"/>
      <point x="546.333" y="-12"/>
      <point x="452.333" y="-12" type="curve" smooth="yes" name="n03"/>
      <point x="388.333" y="-12"/>
      <point x="351" y="12"/>
      <point x="334.667" y="42.6667" type="curve"/>
      <point x="287.667" y="-1"/>
      <point x="253" y="-48.6667"/>
      <point x="229.333" y="-90.6667" type="curve"/>
      <point x="184.333" y="-62.3333" type="line"/>
      <point x="215" y="-10.6667"/>
      <point x="248" y="35"/>
      <point x="326.333" y="105.333" type="curve"/>
      <point x="326.333" y="105.333"/>
      <point x="377.542" y="352.717"/>
      <point x="376.333" y="355.333" type="curve"/>
      <point x="386.333" y="405.667"/>
      <point x="367" y="421.667"/>
      <point x="345.667" y="421.667" type="curve" smooth="yes" name="n19"/>
      <point x="314.333" y="421.667"/>
      <point x="256.333" y="382.333"/>
      <point x="213.667" y="338" type="curve"/>
      <point x="143.333" y="0" type="line" name="n23"/>
      <point x="23.6667" y="0" type="line"/>
      <point x="111.333" y="425" type="line"/>
      <point x="27.3333" y="433.333" type="line"/>
      <point x="27.3333" y="465.667" type="line"/>
      <point x="187" y="498" type="line"/>
      <point x="246.333" y="498" type="line"/>
      <point x="232" y="428.333" type="line"/>
      <point x="279.333" y="465.333"/>
      <point x="344.333" y="498"/>
      <point x="401.333" y="498" type="curve" smooth="yes" name="n33"/>
      <point x="492.333" y="498"/>
      <point x="519.667" y="454.667"/>
      <point x="503.667" y="368" type="curve" smooth="yes"/>
      <point x="467.667" y="179" type="line"/>
      <point x="491.333" y="188"/>
      <point x="509.667" y="195.333"/>
      <point x="534.333" y="195.333" type="curve" smooth="yes" name="n40"/>
      <point x="581" y="195.333"/>
      <point x="615.667" y="174.667"/>
    </contour>
    <contour>
      <point x="553" y="107.667" type="curve" smooth="yes" name="n43"/>
      <point x="555" y="131"/>
      <point x="540.667" y="146.333"/>
      <point x="521.333" y="146.333" type="curve" smooth="yes" name="n46"/>
      <point x="499.667" y="146.333"/>
      <point x="477.333" y="134"/>
      <point x="457" y="122" type="curve"/>
      <point x="455.333" y="112"/>
      <point x="449.333" y="80.6667"/>
      <point x="449.333" y="80.6667" type="curve"/>
      <point x="446" y="59.6667"/>
      <point x="456.667" y="41"/>
      <point x="481" y="41" type="curve" smooth="yes" name="n55"/>
      <point x="520.667" y="41"/>
      <point x="550.333" y="75.6667"/>
    </contour>
  </outline>
</glyph>
<glyph name="uni0238" format="2">
  <advance width="806"/>
  <unicode hex="0238"/>
  <outline>
    <contour>
      <point x="486.559" y="510" type="curve"/>
      <point x="467.945" y="472.589"/>
      <point x="428.084" y="341.421"/>
      <point x="400.147" y="308" type="curve" name="n03"/>
      <point x="389.535" y="320.667"/>
      <point x="405.925" y="361"/>
      <point x="430.616" y="389.43" type="curve" name="n06"/>
      <point x="500.667" y="442"/>
      <point x="570" y="428"/>
      <point x="629" y="366.384" type="curve" name="n09"/>
      <point x="639" y="292.667"/>
      <point x="599.808" y="153"/>
      <point x="449.384" y="150.333" type="curve"/>
      <point x="406.624" y="163.306"/>
      <point x="385.677" y="215.013"/>
      <point x="355.546" y="246.667" type="curve"/>
      <point x="326.783" y="229.133"/>
      <point x="275.092" y="217.14"/>
      <point x="235.793" y="217.667" type="curve" smooth="yes"/>
      <point x="164.101" y="219.665"/>
      <point x="132.333" y="289.402"/>
      <point x="132.333" y="348.333" type="curve"/>
      <point x="140.178" y="451.852"/>
      <point x="240.484" y="576.995"/>
      <point x="385.564" y="579" type="curve" name="n24"/>
      <point x="405.129" y="579"/>
      <point x="427.863" y="574.333"/>
      <point x="437.978" y="571" type="curve"/>
      <point x="440.687" y="585.333" type="line" smooth="yes"/>
      <point x="443.237" y="597.172"/>
      <point x="419.853" y="609.783" name="hr01"/>
      <point x="427.049" y="610.667" type="curve" smooth="yes" name="n31"/>
      <point x="460.228" y="615.284"/>
      <point x="471.894" y="597.15"/>
      <point x="471.894" y="573.333" type="curve" name="n34"/>
      <point x="486.37" y="534.735"/>
      <point x="535.1" y="482.856"/>
      <point x="491.131" y="487.333" type="curve" name="n37"/>
      <point x="480.002" y="487.333"/>
      <point x="492.701" y="497.333"/>
    </contour>
    <contour>
      <point x="375.621" y="394" type="line" smooth="yes"/>
      <point x="376.623" y="399.333"/>
      <point x="350.595" y="445"/>
      <point x="325.894" y="445" type="curve" smooth="yes" name="n43"/>
      <point x="246.797" y="445"/>
      <point x="155.667" y="332.333"/>
      <point x="155.667" y="171.024" type="curve" smooth="yes" name="n46"/>
      <point x="155.667" y="91.6667"/>
      <point x="182.028" y="55.6667"/>
      <point x="217.754" y="55.6667" type="curve" smooth="yes" name="n49"/>
      <point x="254.461" y="55.6667"/>
      <point x="294.843" y="93.6667"/>
      <point x="329.557" y="133.667" type="curve"/>
    </contour>
    <contour>
      <point x="648.667" y="307.94" type="curve" smooth="yes" name="n53"/>
      <point x="648.667" y="392.667"/>
      <point x="613.626" y="425.333"/>
      <point x="584.264" y="425.333" type="curve" smooth="yes" name="n56"/>
      <point x="560.888" y="425.333"/>
      <point x="519.503" y="404.667"/>
      <point x="488.128" y="377.667" type="curve"/>
      <point x="434.05" y="81.3333" type="line"/>
      <point x="445.732" y="63.6667"/>
      <point x="467.758" y="41"/>
      <point x="498.357" y="41" type="curve" smooth="yes" name="n63"/>
      <point x="575.227" y="41"/>
      <point x="648.667" y="184"/>
    </contour>
  </outline>
</glyph>
<glyph name="uni0239" format="2">
  <advance width="817"/>
  <unicode hex="0239"/>
  <outline>
    <contour>
      <point x="295.229" y="18.6667" type="line"/>
      <point x="291.222" y="28" type="line"/>
      <point x="307.909" y="36.5105"/>
      <point x="353.813" y="51.9325"/>
      <point x="381.42" y="52.6667" type="curve" smooth="yes" name="n04"/>
      <point x="420.101" y="53.3333"/>
      <point x="433.333" y="25.3333"/>
      <point x="434.667" y="3.47517" type="curve" name="n07"/>
      <point x="438.763" y="-32.6372"/>
      <point x="413.37" y="-8.9611"/>
      <point x="362.881" y="10.6667" type="curve" name="n10"/>
      <point x="326.196" y="-4.66667"/>
      <point x="290.513" y="-9.66667"/>
      <point x="256.459" y="-7.33333" type="curve" name="hr01"/>
      <point x="187.822" y="-17.4498"/>
      <point x="146.671" y="-3.34413"/>
      <point x="144.483" y="58.0368" type="curve"/>
      <point x="144.333" y="157.269"/>
      <point x="218.031" y="275.406"/>
      <point x="349.187" y="275" type="curve" smooth="yes"/>
      <point x="380.192" y="274.654"/>
      <point x="414.798" y="268.217"/>
      <point x="432.869" y="261.333" type="curve"/>
      <point x="443.535" y="260.667" type="line"/>
      <point x="422.374" y="260.667" type="line"/>
      <point x="417.041" y="248.667" type="line"/>
      <point x="432.719" y="256.825"/>
      <point x="475.73" y="274.654"/>
      <point x="514.741" y="275" type="curve" smooth="yes"/>
      <point x="589.082" y="275.333"/>
      <point x="624.228" y="211.97"/>
      <point x="625.09" y="151.338" type="curve" smooth="yes"/>
      <point x="627.237" y="59.8692"/>
      <point x="556.862" y="-3.43357"/>
      <point x="436.105" y="9.66667" type="curve" name="hr02"/>
      <point x="401.42" y="-3"/>
      <point x="372.389" y="-9.33333"/>
      <point x="346.87" y="-6.66667" type="curve" name="n37"/>
      <point x="318.247" y="-21.8925"/>
      <point x="286.578" y="-62.0801"/>
      <point x="282" y="-46.7842" type="curve" name="n40"/>
      <point x="282" y="-0.839652"/>
      <point x="322.597" y="53.3114"/>
      <point x="383.861" y="52.6667" type="curve" smooth="yes" name="n43"/>
      <point x="410.193" y="51.7638" name="hr04"/>
      <point x="452.21" y="44.0975"/>
      <point x="463.176" y="39" type="curve"/>
      <point x="471.191" y="18.6667" type="line"/>
    </contour>
    <contour>
      <point x="381.157" y="389.333" type="line" smooth="yes"/>
      <point x="383.273" y="399.976"/>
      <point x="359.127" y="446"/>
      <point x="342.791" y="446" type="curve" smooth="yes" name="n51"/>
      <point x="249.722" y="446"/>
      <point x="157" y="333"/>
      <point x="157" y="168.098" type="curve" smooth="yes" name="n54"/>
      <point x="157" y="101"/>
      <point x="176.02" y="53.6667"/>
      <point x="224.567" y="53.6667" type="curve" smooth="yes" name="n57"/>
      <point x="265.744" y="53.6667"/>
      <point x="299.292" y="87.3333"/>
      <point x="326.456" y="114.333" type="curve"/>
    </contour>
    <contour>
      <point x="660" y="303.817" type="curve" smooth="yes" name="n61"/>
      <point x="660" y="363.333"/>
      <point x="647.318" y="431" name="hr05"/>
      <point x="597.758" y="431" type="curve" smooth="yes" name="n64"/>
      <point x="559.253" y="431"/>
      <point x="514.333" y="391"/>
      <point x="497.548" y="375.667" type="curve"/>
      <point x="436.843" y="67" type="line"/>
      <point x="451.447" y="57.6667"/>
      <point x="480.539" y="39"/>
      <point x="510.959" y="39" type="curve" smooth="yes" name="n71"/>
      <point x="596.63" y="39"/>
      <point x="660" y="191.333"/>
    </contour>
  </outline>
</glyph>
<glyph name="uni023F" format="2">
  <advance width="400"/>
  <unicode hex="023F"/>
  <outline>
    <contour>
      <point x="379" y="425.667" type="curve" smooth="yes"/>
      <point x="379" y="377"/>
      <point x="343.333" y="364"/>
      <point x="299" y="361.333" type="curve"/>
      <point x="250" y="439.667" type="line"/>
      <point x="244.667" y="442"/>
      <point x="236.333" y="445"/>
      <point x="224.333" y="445" type="curve" smooth="yes" name="n07"/>
      <point x="189" y="445"/>
      <point x="176.667" y="416"/>
      <point x="176.667" y="384" type="curve" smooth="yes" name="n10"/>
      <point x="176.667" y="344.667"/>
      <point x="216" y="310.333"/>
      <point x="253.667" y="279" type="curve" smooth="yes"/>
      <point x="298.333" y="241.333"/>
      <point x="353" y="200.667"/>
      <point x="353" y="147" type="curve" smooth="yes" name="n16"/>
      <point x="353" y="44"/>
      <point x="250" y="-12"/>
      <point x="145" y="-12" type="curve" smooth="yes" name="n19"/>
      <point x="136.333" y="-12"/>
      <point x="120.667" y="-11.6667"/>
      <point x="111.333" y="-9" type="curve"/>
      <point x="154.667" y="-58"/>
      <point x="181.667" y="-140"/>
      <point x="220" y="-166" type="curve" name="n25"/>
      <point x="295.333" y="-100.667" type="line"/>
      <point x="314.667" y="-106"/>
      <point x="327" y="-127"/>
      <point x="327" y="-155" type="curve" smooth="yes"/>
      <point x="327" y="-197"/>
      <point x="285.667" y="-231"/>
      <point x="241" y="-231" type="curve" smooth="yes" name="n32"/>
      <point x="122.333" y="-231"/>
      <point x="66" y="14.3333" name="hr01"/>
      <point x="-11.6667" y="14.3333" type="curve" name="n35"/>
      <point x="18" y="160" type="line" name="n36"/>
      <point x="71.3333" y="160" type="line"/>
      <point x="74.6667" y="72.6667"/>
      <point x="103" y="34" name="hr02"/>
      <point x="160.333" y="34" type="curve" smooth="yes" name="n40"/>
      <point x="218.333" y="34"/>
      <point x="233.667" y="78"/>
      <point x="233.667" y="113" type="curve" smooth="yes" name="n43"/>
      <point x="233.667" y="167.333"/>
      <point x="173.333" y="198"/>
      <point x="130.333" y="237.667" type="curve" smooth="yes"/>
      <point x="94.6667" y="269.667"/>
      <point x="69.3333" y="305.667"/>
      <point x="69.3333" y="345" type="curve" smooth="yes" name="n49"/>
      <point x="69.3333" y="437"/>
      <point x="159.333" y="498"/>
      <point x="266.667" y="498" type="curve" smooth="yes" name="n52"/>
      <point x="337.667" y="498"/>
      <point x="379" y="455"/>
    </contour>
  </outline>
</glyph>
<glyph name="uni0240" format="2">
  <advance width="475"/>
  <unicode hex="0240"/>
  <outline>
    <contour>
      <point x="482" y="469.333" type="line"/>
      <point x="142.333" y="77" type="line"/>
      <point x="157.667" y="77"/>
      <point x="188.333" y="73.6667"/>
      <point x="219" y="48" type="curve" smooth="yes"/>
      <point x="272.333" y="2"/>
      <point x="296.667" y="-86.3333"/>
      <point x="334" y="-159.333" type="curve"/>
      <point x="407" y="-101.333" type="line"/>
      <point x="425.667" y="-103"/>
      <point x="443" y="-125.667"/>
      <point x="443" y="-149.667" type="curve" smooth="yes"/>
      <point x="443" y="-188.333"/>
      <point x="406.667" y="-229" name="n13"/>
      <point x="348" y="-229" type="curve" smooth="yes"/>
      <point x="238.667" y="-229"/>
      <point x="185" y="8"/>
      <point x="100.667" y="8" type="curve"/>
      <point x="74.3333" y="-34.6667" type="line"/>
      <point x="-16" y="14.3333" type="line"/>
      <point x="317" y="400" type="line"/>
      <point x="245.667" y="385" type="line"/>
      <point x="213.333" y="402.667"/>
      <point x="189.667" y="416"/>
      <point x="165.333" y="416" type="curve" smooth="yes" name="n24"/>
      <point x="150.333" y="416"/>
      <point x="114.333" y="403"/>
      <point x="104.667" y="387" type="curve"/>
      <point x="161.667" y="323.667" type="line"/>
      <point x="156" y="313.667"/>
      <point x="124" y="286.667" name="hr01"/>
      <point x="92.6667" y="286.667" type="curve" smooth="yes" name="n31"/>
      <point x="51.3333" y="286.667"/>
      <point x="33" y="329.333"/>
      <point x="33" y="355.667" type="curve" smooth="yes"/>
      <point x="33" y="418.667"/>
      <point x="104" y="498"/>
      <point x="195.333" y="498" type="curve" smooth="yes" name="n37"/>
      <point x="260.667" y="498"/>
      <point x="314.667" y="452.667"/>
      <point x="336.667" y="452.667" type="curve" smooth="yes"/>
      <point x="344" y="452.667"/>
      <point x="351" y="453.667"/>
      <point x="358.333" y="459" type="curve"/>
      <point x="383.667" y="519.667" type="line"/>
    </contour>
  </outline>
</glyph>
<glyph name="uni0243" format="2">
  <advance width="634"/>
  <unicode hex="0243"/>
  <outline>
    <contour>
      <point x="602" y="541" type="curve" smooth="yes" name="n00"/>
      <point x="602" y="442"/>
      <point x="531.667" y="389"/>
      <point x="441" y="357.667" type="curve"/>
      <point x="528" y="343"/>
      <point x="582" y="307" name="hr01"/>
      <point x="582" y="225.333" type="curve" smooth="yes" name="n06"/>
      <point x="582" y="64.6667"/>
      <point x="457" y="0"/>
      <point x="273" y="0" type="curve" smooth="yes" name="n09"/>
      <point x="-15" y="0" type="line"/>
      <point x="-15" y="47.3333" type="line"/>
      <point x="11.673" y="49.7571"/>
      <point x="48" y="52.3333"/>
      <point x="48" y="52.3333" type="curve"/>
      <point x="59.3333" y="52.6667"/>
      <point x="64.8995" y="56.0181"/>
      <point x="67" y="69.3333" type="curve"/>
      <point x="87.3333" y="172.333" type="line" name="n18"/>
      <point x="-0.333333" y="172.333" type="line"/>
      <point x="12.6667" y="235.333" type="line"/>
      <point x="99.6667" y="235.333" type="line" name="n21"/>
      <point x="170.667" y="602" type="line" smooth="yes"/>
      <point x="172.695" y="612.995"/>
      <point x="167.333" y="617.333"/>
      <point x="153.333" y="618.667" type="curve"/>
      <point x="153.333" y="618.667"/>
      <point x="119.59" y="621.249"/>
      <point x="95" y="623.667" type="curve"/>
      <point x="95" y="671" type="line"/>
      <point x="390" y="671" type="line" smooth="yes" name="n30"/>
      <point x="551.667" y="671"/>
      <point x="602" y="615.333" name="hr02"/>
    </contour>
    <contour>
      <point x="463" y="534" type="curve" smooth="yes" name="n33"/>
      <point x="463" y="597.667"/>
      <point x="409.333" y="621.333"/>
      <point x="341" y="621.333" type="curve" smooth="yes" name="n36"/>
      <point x="326.667" y="621.333"/>
      <point x="312.667" y="620"/>
      <point x="303" y="619.667" type="curve"/>
      <point x="255.667" y="373.667" type="line"/>
      <point x="267.667" y="372.667"/>
      <point x="282.333" y="372.333"/>
      <point x="288" y="372.333" type="curve" smooth="yes" name="n43"/>
      <point x="395.667" y="372.333"/>
      <point x="463" y="442.667"/>
    </contour>
    <contour>
      <point x="445" y="215.333" type="curve" smooth="yes" name="n46"/>
      <point x="445" y="297.333"/>
      <point x="384" y="321.667" name="hr03"/>
      <point x="306" y="321.667" type="curve" smooth="yes" name="n49"/>
      <point x="286.333" y="321.667"/>
      <point x="264.333" y="320.333"/>
      <point x="244.333" y="318" type="curve"/>
      <point x="228.667" y="235.333" type="line"/>
      <point x="382.333" y="235.333" type="line"/>
      <point x="369.333" y="172.333" type="line"/>
      <point x="215.667" y="172.333" type="line"/>
      <point x="193" y="53.3333" type="line"/>
      <point x="207.667" y="52.3333"/>
      <point x="227.667" y="51.6667"/>
      <point x="240" y="51.6667" type="curve" smooth="yes" name="n60"/>
      <point x="366.333" y="51.6667"/>
      <point x="445" y="108.667"/>
    </contour>
  </outline>
</glyph>
<glyph name="uni0244" format="2">
  <advance width="735"/>
  <unicode hex="0244"/>
  <outline>
    <contour>
      <point x="777" y="623.667" type="line"/>
      <point x="713.667" y="618.667" type="line" smooth="yes"/>
      <point x="703.668" y="617.655"/>
      <point x="697" y="611.667"/>
      <point x="695" y="601.333" type="curve" smooth="yes"/>
      <point x="651.667" y="381.667" type="line" name="n05"/>
      <point x="742.667" y="381.667" type="line"/>
      <point x="738.667" y="319.667" type="line"/>
      <point x="639.333" y="319.667" type="line" name="n08"/>
      <point x="618" y="214.667" type="line" smooth="yes"/>
      <point x="590.667" y="73.6667"/>
      <point x="500.667" y="-16"/>
      <point x="325" y="-16" type="curve" smooth="yes" name="n12"/>
      <point x="185.333" y="-16"/>
      <point x="92" y="36"/>
      <point x="92" y="161" type="curve" smooth="yes" name="n15"/>
      <point x="92" y="180.333"/>
      <point x="96" y="219.333"/>
      <point x="105" y="264.667" type="curve"/>
      <point x="117.333" y="319.667" type="line"/>
      <point x="25.3333" y="319.667" type="line"/>
      <point x="29.3333" y="381.667" type="line"/>
      <point x="129.667" y="381.667" type="line"/>
      <point x="175" y="602" type="line"/>
      <point x="177" y="613.667"/>
      <point x="170.333" y="617.667"/>
      <point x="155" y="618.667" type="curve" name="n26"/>
      <point x="155" y="618.667"/>
      <point x="121.509" y="621.264"/>
      <point x="99" y="623.667" type="curve"/>
      <point x="99" y="671" type="line" name="n30"/>
      <point x="387" y="671" type="line"/>
      <point x="387" y="623.667" type="line"/>
      <point x="361.41" y="621.249"/>
      <point x="326" y="618.667"/>
      <point x="326" y="618.667" type="curve"/>
      <point x="314" y="617.667"/>
      <point x="306" y="613.667"/>
      <point x="304" y="601.333" type="curve"/>
      <point x="258.667" y="381.667" type="line"/>
      <point x="554.667" y="381.667" type="line"/>
      <point x="599" y="602" type="line"/>
      <point x="601" y="613.667"/>
      <point x="596.333" y="617.667"/>
      <point x="579.667" y="618.667" type="curve"/>
      <point x="579.667" y="618.667"/>
      <point x="545.431" y="621.271"/>
      <point x="523" y="623.667" type="curve"/>
      <point x="523" y="671" type="line"/>
      <point x="777" y="671" type="line"/>
    </contour>
    <contour>
      <point x="542.333" y="319.667" type="line"/>
      <point x="246.333" y="319.667" type="line"/>
      <point x="235" y="264.667" type="line" smooth="yes"/>
      <point x="227" y="226.333"/>
      <point x="224" y="194.333"/>
      <point x="224" y="176.333" type="curve" smooth="yes" name="n55"/>
      <point x="224" y="91.6667"/>
      <point x="282.333" y="55.6667"/>
      <point x="351" y="55.6667" type="curve" smooth="yes" name="n58"/>
      <point x="463.667" y="55.6667"/>
      <point x="507.333" y="140.667"/>
      <point x="529" y="249.667" type="curve" smooth="yes"/>
    </contour>
  </outline>
</glyph>
<glyph name="uni0245" format="2">
  <advance width="671"/>
  <unicode hex="0245"/>
  <outline>
    <contour>
      <point x="619.333" y="0" type="line" name="n00"/>
      <point x="364.333" y="0" type="line"/>
      <point x="364.333" y="48" type="line"/>
      <point x="381.68" y="48.8223"/>
      <point x="408.667" y="49.3333"/>
      <point x="408.667" y="49.3333" type="curve"/>
      <point x="420.333" y="49.6667"/>
      <point x="429.333" y="52.6667"/>
      <point x="427.333" y="65.6667" type="curve" smooth="yes"/>
      <point x="358.333" y="505.333" type="line"/>
      <point x="126.333" y="65.6667" type="line" smooth="yes"/>
      <point x="120" y="54"/>
      <point x="128.333" y="50.3333"/>
      <point x="140.667" y="49.3333" type="curve"/>
      <point x="140.667" y="49.3333"/>
      <point x="171.241" y="48.8201"/>
      <point x="190.333" y="48" type="curve"/>
      <point x="190.333" y="0" type="line"/>
      <point x="-41.6667" y="0" type="line"/>
      <point x="-41.6667" y="47.3333" type="line"/>
      <point x="12.6667" y="53.3333" type="line"/>
      <point x="357.667" y="687" type="line" name="n21"/>
      <point x="459.667" y="687" type="line"/>
      <point x="557.333" y="66.3333" type="line" smooth="yes"/>
      <point x="559.333" y="53.6667"/>
      <point x="568.327" y="50.2284"/>
      <point x="580.667" y="50" type="curve"/>
      <point x="580.667" y="50"/>
      <point x="605.238" y="48.812"/>
      <point x="619.333" y="48" type="curve" name="n29"/>
    </contour>
  </outline>
</glyph>
